<?xml version="1.0" encoding="UTF-8"?>
<svg width="1394px" height="958px" viewBox="0 0 1394 958" version="1.1" xmlns="http://www.w3.org/2000/svg" xmlns:xlink="http://www.w3.org/1999/xlink">
    <!-- Generator: Sketch 63.1 (92452) - https://sketch.com -->
    <title>Artboard</title>
    <desc>Created with Sketch.</desc>
    <defs>
        <path d="M0,0 L0,239.142857 L813,239.142857 L813,478.285714 L696.857143,478.285714 L0,0 Z M696.857143,0 L348.428571,0 L348.428571,558 L0,558 L0,478.285714 L696.857143,0 Z" id="path-1"></path>
    </defs>
    <g id="Artboard" stroke="none" stroke-width="1" fill="none" fill-rule="evenodd">
        <rect fill="#CF142B" x="0" y="0" width="1394" height="958"></rect>
        <g id="BER" transform="translate(0.000000, 1.000000)">
            <polygon id="Path" fill="#00247D" fill-rule="nonzero" points="0 0 1394 0 1394 956 0 956"></polygon>
            <path d="M0,1 L697,478 M697,1 L0,478" id="Shape" stroke="#FFFFFF" stroke-width="60" fill="#000000" fill-rule="nonzero"></path>
            <g id="Clipped">
                <mask id="mask-2" fill="white">
                    <use xlink:href="#path-1"></use>
                </mask>
                <g id="Shape"></g>
                <path d="M0,0 L696.857143,478.285714 M696.857143,0 L0,478.285714" id="Shape" stroke="#CF142B" stroke-width="40" fill="#000000" fill-rule="nonzero" mask="url(#mask-2)"></path>
            </g>
            <path d="M348.428571,0 L348.428571,558 M0,239.142857 L813,239.142857" id="Shape" stroke="#FFFFFF" stroke-width="100" fill="#000000" fill-rule="nonzero"></path>
            <path d="M348.428571,0 L348.428571,558 M0,239.142857 L813,239.142857" id="Shape" stroke="#CF142B" stroke-width="60" fill="#000000" fill-rule="nonzero"></path>
            <polygon id="Path" fill="#CF142B" fill-rule="nonzero" points="0 478 697 478 697 0 1394 0 1394 956 0 956"></polygon>
            <path d="M891,304 L891,604.999932 C894.496165,648.097064 982.638661,675.227988 1044.09291,721 C1124.69803,665.909817 1202.87611,654.766463 1206.0194,593.002134 L1207,304 L891.005823,304 L891,304 Z" id="Path" fill="#FFFFFF" fill-rule="nonzero"></path>
            <g id="Group" transform="translate(891.000000, 569.000000)">
                <polygon id="Path" stroke="#000000" stroke-width="0.456" fill="#2F8F22" fill-rule="nonzero" points="2.64928323e-13 30.134 3.30208353 47.4530093 14.309417 61.0093039 93.9369358 113.719592 152.279182 151 266.029784 87.3650458 305.29242 56.486155 313 16.1974883 308.227476 6.7853212 309.329724 16.5753142 306.392337 24.4821563 303.092584 22.2211797 300.890418 7.53858153 300.522226 18.454878 295.019141 24.8599821 293.918059 16.9483574 295.386169 11.3024919 293.184003 4.90217038 292.449948 17.7028133 289.516057 23.3534615 286.945699 19.5859642 288.047947 13.9353161 287.680919 8.66727637 285.845781 6.02847392 285.476423 11.6779264 284.37767 13.5598815 284.744698 16.9471617 282.542532 19.2081383 281.074422 14.6909677 281.809642 10.5468402 281.075587 6.78412555 279.607476 2.63880245 279.975669 9.41814539 276.305393 17.7016177 273.369172 19.5835729 271.535199 17.3237919 271.903392 9.41694974 269.334198 4.90097473 270.067088 14.689772 266.399142 23.3522658 264.198142 20.7134634 263.093563 18.0794435 263.093563 13.9341204 267.133198 3.39206278 263.093563 7.15836441 259.79381 16.1939014 258.3257 18.8279212 256.491727 14.3107506 259.06092 4.14412745 257.592809 2.26456359 254.290726 14.6885764 251.35334 16.5705316 249.152339 15.8172712 247.685394 16.5705316 70.0848003 26.7383503 65.3146063 19.5823772 64.2158537 26.7383503 61.2773023 29.3723702 58.3445768 16.1927057 56.142411 30.1268261 53.2050247 23.3486788 54.6731353 7.90803779 53.2050247 6.7805386 51.0051893 15.0628152 51.0051893 26.735959 49.9029412 34.6439968 47.7007754 33.1374761 44.7668847 25.9826987 44.3998571 14.3083593 45.4986096 6.02488697 42.5647189 15.8148799 42.5647189 27.8658495 42.1976913 33.8871495 38.5262498 25.6048729 36.6922768 18.8255299 33.0220004 10.9198834 35.2241662 21.0865066 35.2241662 26.3581332 28.9858616 20.7074851 25.6849433 4.89499648 24.950888 16.5681402 26.4189986 22.2140057 24.5850256 24.4749824 20.9159144 17.6956394 18.7149138 8.66129811 16.1468855 0 16.1468855 13.9293378 17.9808585 21.4619411 16.512748 23.3462875 13.5776921 21.8397669 12.4766092 13.5527076 11.7413887 1.50652065 8.80749802 9.7887973 8.07227759 18.4465085 6.97119469 25.2258514 5.13722169 29.746609 0 30.1328044"></polygon>
                <path d="M126.888118,123 C125.921201,105.002015 141.832783,87.0016122 99,69" id="Path" stroke="#4DCF4A" stroke-width="0.913"></path>
                <path d="M167,111 C167,88.1426271 153.999614,78.348437 128,81.611617" id="Path" stroke="#38BB26" stroke-width="1.141"></path>
                <path d="M180.778422,122 C166.999051,105.048828 148.593291,107.012119 127,122 M215,100.022043 C209.76674,90.0562042 190.662438,96.6194782 170.02297,105.02156" id="Shape" stroke="#51C757" stroke-width="0.913"></path>
                <path d="M284,68 C278.857252,52.668188 269.858015,43.9995436 257,42" id="Path" stroke="#7ACB73" stroke-width="0.822"></path>
                <path d="M303,44 C299.463433,36.3679423 295.760718,29.048074 287,31.4724016" id="Path" stroke="#4CB135" stroke-width="1.141"></path>
                <path d="M92.1900737,107 C96.9469033,91.0081644 91.7877125,84.7258271 83,82" id="Path" stroke="#60C85A" stroke-width="1.278"></path>
                <path d="M16.7259835,46.9988131 C25.4039637,43.1341246 32.3347772,35.6848665 45,40.0005935 M6,37 C13.0870171,37.1519288 18.03578,39.989911 19.6487272,47" id="Shape" stroke="#71CE5B" stroke-width="1.187"></path>
            </g>
            <g id="Group" transform="translate(921.000000, 310.000000)" fill-rule="nonzero">
                <path d="M131.636324,0 C127.534475,3.87190801 123.326085,7.42313652 117.415346,5.88743804 C113.369084,7.58822708 117.292592,17.3748903 110.706704,15.3581725 C104.31537,10.1702909 106.007296,21.5460991 101.911238,23.9262536 C98.1683874,25.1531496 91.2200269,27.0404079 96.7208123,31.5988075 C100.083819,34.96713 103.315965,40.8189369 97.8105469,43.7549359 C94.6200913,49.9119823 93.94031,38.0836596 89.2107926,45.0305277 C87.677521,52.0569718 99.3901408,50.5260241 93.9449423,55.9716371 C93.0323909,59.2295032 89.778242,47.9403972 86.4789288,56.91586 C83.9149838,60.6298037 83.8153906,66.1134231 88.7394621,67.7726426 C92.9339558,70.2430624 101.727106,66.4863615 96.4892003,73.7360935 C96.4903584,78.0141956 89.6010588,85.1178403 92.2159585,77.0616587 C96.9234728,71.4568937 90.0909183,69.9069428 86.9965817,73.730155 C80.643464,78.1733476 83.282683,88.0609655 89.488727,90.9138253 C91.3265684,94.8617462 93.1933613,95.9045484 88.5414339,100.656544 C89.1783669,105.416853 88.2137028,109.507298 82.0933552,109.209184 C78.6770779,112.531187 76.3794867,118.073003 69.8792954,117.236861 C63.6396676,119.815362 62.0704961,115.606147 60.8939071,110.526346 C58.8742503,105.480988 50.6265463,102.594873 47.6167481,108.171133 C44.0047586,106.672253 39.3122991,99.6339322 35.6076649,106.560609 C32.3153,111.186708 27.1063457,103.855025 23.6275332,109.874298 C19.5812712,114.431509 26.1451558,118.688233 27.093607,122.164636 C32.5052219,126.638709 29.5950168,129.282533 28.4381148,135.067829 C26.4752029,140.309157 35.6007165,143.553959 32.7762079,147.756048 C28.7206815,151.004412 22.1961709,154.751612 23.7630262,160.975169 C18.0144159,163.053648 18.7914742,169.816422 20.5714126,174.498343 C23.4665628,181.182728 35.7234709,180.424975 35.1363344,172.241709 C38.3812188,171.766628 42.1958688,178.990231 44.5606275,182.497514 C42.2676685,184.967934 34.8294485,181.990366 30.7241254,184.128229 C25.3414621,183.55932 20.7242765,189.55959 15.3531938,190.368415 C11.4586377,192.735504 6.27168647,195.81284 7.56639766,201.556566 C8.53221978,206.385762 10.3133162,211.188828 9.62079628,216.153422 C7.03832226,220.54198 4.82642747,225.194208 5.03719441,230.488983 C2.76044826,238.224485 7.84780627,247.553883 1.3950954,253.885521 C-0.427691189,259.607869 4.52417379,259.581739 6.73143633,255.933119 C9.72270556,257.277598 11.6126596,252.037457 11.331251,249.776073 C13.9484669,254.674155 14.8517537,248.43397 17.2211447,253.032751 C22.0143554,251.400849 16.1314101,237.230378 19.13426,243.159386 C21.4225867,246.601346 22.6339176,253.916402 25.9320727,254.428301 C29.5996491,252.938923 27.7340143,239.104572 30.3836558,249.866338 C33.2452223,259.460594 34.7298553,269.584564 39.4512663,278.405626 C42.2271364,286.702911 49.5483923,294.451478 58.810557,292.83264 C61.4358792,295.383824 54.7411338,300.658408 53.4556871,304.263083 C49.3167803,307.475816 44.2062611,303.329549 39.8287939,303.149018 C35.4397461,304.898503 30.3987105,305.853416 27.2777386,309.724136 C25.2777688,314.227901 23.7502875,318.155631 23.3009602,322.616639 C22.2726028,328.923336 23.451508,336.183758 29.5892265,339.300287 C31.1236562,334.472279 29.9609638,330.35808 36.5225323,330.772588 C41.1119245,333.472234 36.0176181,340.395348 40.0986219,344.64257 C42.161127,349.048944 48.1089236,354.550379 46.1436956,345.865903 C43.8090465,339.046119 50.0313034,338.984358 53.8065793,336.171881 C58.7804474,330.791591 59.5644541,336.02223 58.8950954,341.281374 C61.6837041,345.022635 67.251657,337.801407 68.6019551,334.579172 C70.5289671,330.84385 68.716603,322.788856 72.1409868,324.413632 C76.5508796,323.249684 79.4066558,319.10698 82.8669394,316.169794 C85.9855952,309.946236 91.8256923,316.087842 96.4220328,316.98812 C102.147482,319.521488 109.826578,318.623586 112.406736,325.743858 C107.996843,323.508603 102.843476,327.691689 104.457812,333.328522 C106.688236,339.111443 113.502261,337.426094 117.601794,336.601829 C121.726804,338.345375 126.374099,333.031597 130.811785,336.955764 C135.154511,335.985411 139.943089,336.593515 144.020619,334.368949 C148.036771,330.985187 146.391168,323.345888 140.511697,324.511024 C143.20187,320.434831 149.301373,319.292262 153.358058,316.452467 C158.021566,316.017768 162.07825,310.713492 166.163886,311.49975 C171.984296,315.630577 174.87713,322.301898 179.87995,327.070521 C184.784334,327.652495 180.240107,334.644496 180.765866,338.915472 C179.452626,344.076036 182.26787,351.220063 186.47047,344.165114 C189.001989,339.473692 195.964247,340.815795 196.340616,334.657561 C198.283841,329.455427 199.595923,342.258852 204.567475,341.574736 C204.902154,345.548787 203.43605,355.274877 209.28078,348.876727 C214.409828,344.048719 215.264476,336.655275 213.438215,330.1051 C214.260438,324.745001 221.821412,333.32971 220.449111,337.176676 C221.616436,342.127018 227.604765,332.90095 228.451306,330.082533 C229.107927,322.855367 229.315219,314.315791 223.976562,308.775162 C219.92451,306.713312 218.246481,300.252214 212.449232,300.492129 C208.459715,302.742824 203.908539,307.030428 202.207349,299.515839 C196.946282,294.722274 205.774174,294.384967 208.722595,292.185343 C214.655337,288.339564 217.903695,281.740693 219.10692,274.885278 C221.265544,268.594021 223.117282,262.194684 224.532431,255.682514 C229.173936,253.972224 233.524768,250.483943 236.1084,247.599016 C241.381047,237.437039 236.337696,255.220498 234.465113,259.402396 C238.495162,261.231457 243.760861,257.923708 245.48637,253.545839 C248.081583,250.595587 248.653665,238.992928 250.005121,248.28432 C250.607312,251.500616 245.02083,261.049739 249.547687,259.360827 C254.22625,257.825128 257.979523,253.208531 260.128882,248.766526 C262.003782,242.804263 263.8671,235.552156 261.5035,229.806054 C265.264879,227.164605 261.231356,216.120166 257.160774,222.125186 C251.933291,221.11564 253.436453,213.312439 252.482212,209.464285 C256.76356,203.249041 253.19326,191.212871 244.863334,191.506233 C240.653786,189.031062 237.295411,187.924124 232.979321,186.255403 C227.371994,188.048833 223.366265,182.612722 217.786731,183.554569 C209.35837,183.983329 218.495464,174.092148 221.764667,177.500853 C225.587424,182.550961 233.685738,184.953682 237.619668,178.774069 C237.434379,174.114715 237.443643,167.699937 233.388117,164.053693 C232.583265,158.844432 231.228335,153.919033 227.733309,149.859468 C223.442697,143.391244 231.334876,141.886425 233.933563,137.858928 C235.086991,132.64848 232.004235,126.932071 228.963169,122.677723 C232.233531,119.321278 235.52937,113.101283 232.014657,108.838622 C233.323265,104.774306 224.402728,104.067623 221.515685,104.467879 C215.735807,104.074749 210.882377,109.479981 205.127976,109.886175 C200.205063,114.005125 194.237579,116.293826 187.904148,114.65361 C183.423614,113.512228 179.913534,108.465683 177.510559,105.466736 C171.670462,108.744793 176.450934,98.997324 171.708678,96.1432765 C168.427894,91.5290548 161.633555,92.5195982 164.097907,99.2894987 C159.806136,104.666225 163.548986,92.0599576 160.866919,89.4790815 C157.373052,80.840926 158.803256,87.0383542 163.521193,89.4006931 C168.764889,93.0825689 176.399979,90.8568156 177.712061,84.2484425 C175.137694,80.3242757 178.013157,72.5804596 172.20896,73.1363041 C167.958879,73.8014171 167.745796,84.4170962 165.365983,75.7373711 C164.720943,70.9485573 162.088673,66.9650053 159.733178,62.8543692 C162.89584,68.5493996 169.023136,74.7016951 175.818633,71.1908485 C179.466522,68.7441827 180.761234,62.6631492 178.569026,59.0204677 C178.774002,46.4201388 171.680884,65.7143553 168.424419,55.7459737 C160.894713,53.45846 182.85269,45.1445471 173.846457,42.3890788 C170.783388,46.762197 164.130333,44.7039097 163.428548,40.1122544 C167.226985,37.9316338 170.843607,29.5179539 168.331775,26.7351685 C162.851834,23.546189 160.730268,18.7312458 161.954338,12.2713354 C158.743037,8.74386097 150.532391,14.9436646 150.054112,7.00981628 C149.787758,-0.359873659 143.242403,7.98373179 139.654732,5.31971656 C136.947188,3.67831261 134.196795,2.04759798 131.636324,0 L131.636324,0 Z" id="Path" stroke="#000000" stroke-width="0.456" fill="#000000"></path>
                <g transform="translate(1.000000, 3.000000)">
                    <path d="M128.726335,49.2848012 C128.367172,57.4479153 121.519903,55.733424 119.564203,53.5004326 C117.682652,46.037353 128.602366,43.990642 128.726335,49.2848012 Z M132.4373,48.816134 C133.150991,55.2635703 140.370167,56.1581907 141.737304,53.4577186 C144.122841,47.3009746 135.159987,43.3902735 132.4373,48.816134 Z" id="Shape" stroke="#000000" stroke-width="0.456" fill="#D40000"></path>
                    <path d="M128.002216,42.595319 L128.002216,44.007253 L127.243339,44.1496329 L126.967595,43.7972427 L126.762524,41.6057788 L126.347749,41.3945819 L126.347749,40.4050416 L127.312855,40.3362247 L127.312855,39.4155014 L126.140361,39.4155014 L125.724427,40.3362247 L125.515881,41.6069653 L126.002489,42.6676955 L125.515881,43.5160424 L124.621449,44.0108125 L123.378282,45.2139226 L122.547573,45.6363163 L120.615044,45.8486997 L119.028934,45.0703562 L117.438189,43.5160424 C117.438189,43.5160424 116.748828,42.3841222 116.679313,42.1017354 C116.610956,41.8193486 116.196181,40.8298083 116.196181,40.8298083 L115.779088,39.7690781 L115.02137,38.9207312 L113.847718,38.7783513 L113.502458,40.2626617 L113.09,40.8286218 L112.122577,40.9698152 L111.089115,40.0514649 L110.398595,38.8495413 L109.637401,37.2928544 L109.016396,36.2321242 L108.119648,34.8913801 L107.703714,34.1142232 L107.291256,32.2751495 L106.253159,30.9320325 L105.563797,29.8012988 L104.461978,28.8829485 L103.287167,27.9634117 L101.906128,27.9634117 L101.00822,27.2562582 L99.6990132,25.9843311 L98.7315903,24.6412141 L98.1129031,23.8640572 L98.2519339,23.1557172 L98.7339075,22.5185671 L99.7696872,21.8837901 L100.80315,21.8126001 L101.97796,21.5302134 L103.151612,20.8942498 L103.359,20.0447164 L103.566388,18.631596 L104.807238,16.3689421 L105.359885,14.7434383 L105.429401,13.4715112 L107.224057,13.1879379 L108.950357,13.4003213 L110.192366,13.7550845 L111.50389,14.1774782 L113.021643,13.4003213 L114.264811,11.7724444 L114.677269,8.9462035 L115.229916,6.3311594 L115.852079,4.84803548 L119.028934,4.84803548 L120.129595,5.62519241 L121.028661,5.20161222 L121.855894,4.77803203 L123.859097,4.98804237 L124.893718,4.98804237 C124.893718,4.98804237 125.72211,3.64611185 126.068529,3.4337285 C126.411471,3.22134516 128.069414,0.958691303 128.069414,0.958691303 L130.208172,0.393917714 L131.312308,0.53629761 L132.832379,2.30418133 L134.073229,3.08252476 L135.178524,3.15371471 L137.802731,4.92041192 C137.802731,4.92041192 138.631123,5.62637891 138.908026,5.48399901 C139.182612,5.34280562 141.532233,4.28207539 141.532233,4.28207539 L143.600317,4.14088199 L145.810907,3.36372506 L146.569784,5.12923577 C146.569784,5.12923577 147.675079,7.81665632 148.020339,8.09904311 C148.365599,8.38142991 149.74548,11.0664775 149.74548,11.0664775 C149.74548,11.0664775 150.436,10.7140872 150.782419,10.6428973 C151.125361,10.5717073 152.713789,10.996474 152.713789,10.996474 L157.269366,11.2100439 L157.891529,10.5017039 L158.372344,11.3500508 L157.753656,14.6010584 L158.028242,17.0760956 L158.857793,20.3994797 L159.891256,21.9537935 L161.273454,22.0249835 L163.069269,23.5804839 L163.138784,25.1347977 L161.757744,25.6307544 L160.514577,25.2059877 L158.923833,26.124338 L156.440974,27.6074619 L154.367097,29.7301089 L152.575916,32.3439665 L151.401106,34.9590106 L150.228612,35.808544 L149.191674,35.3837773 L148.155894,35.4537807 L147.673921,36.7268943 L146.638141,37.9976349 L145.740233,41.249829 L143.807705,43.4412929 L141.805661,44.4308332 L140.357423,45.5627534 L139.391159,45.5627534 L137.734374,43.9348766 L136.975498,43.2289096 L136.769269,40.6850554 L135.178524,39.4107554 L134.003714,39.4107554 L135.730013,40.8250623 L135.799529,42.7329529 L134.835581,43.5801133 L134.350132,43.4401064 L133.869317,42.4505661 L133.314352,42.4505661 L133.244837,44.3584568 L131.174436,46.8323075 L129.105194,45.0656102 L129.035678,42.8029564 L128.002216,42.595319 L128.002216,42.595319 Z" id="Path" stroke="#000000" stroke-width="0.456" fill="#D40000" stroke-linejoin="round"></path>
                    <polygon id="Path" stroke="#000000" stroke-width="0.456" fill="#D40000" points="94.2015022 24.750372 97.2856696 24.8512244 98.8787313 27.2989722 100.271357 28.8271831 101.662824 29.9484247 102.858489 30.1501296 105.147863 33.6158936 105.147863 34.0252358 106.936727 35.6554856 107.434921 37.793557 107.634198 38.506643 107.534559 39.4238068 106.538172 40.0360404 105.344824 39.8307761 104.648511 39.3205814 102.461093 41.2581345 101.067308 43.1945011 100.171718 43.3997655 97.7815463 46.0480315 96.5881982 46.4561872 94.6973789 47.8823592 91.7128502 47.7803203 89.824348 45.4369845 89.4269515 44.5186341 89.3273128 42.6843065 91.0188546 41.4622124 91.8148062 42.3781897 91.4185683 43.2953535 91.5158899 44.4177817 92.5122775 44.8247509 93.506348 44.7215255 97.0887093 41.5630648 97.9842996 41.0528702 100.074396 38.9147987 101.368542 38.2005262 101.270062 36.8763932 99.7766388 34.5330574 99.2807621 32.9028076 98.882207 31.3734102 98.4859692 30.2521685 97.092185 28.6231052 96.2950749 27.7047549 95.9961586 26.787591 94.6046916 25.6663493 94.2072952 25.461085 94.2072952 24.750372 94.2015022 24.750372"></polygon>
                    <polygon id="Path" stroke="#000000" stroke-width="0.456" fill="#AA0000" points="154.102938 36.6723153 155.696 36.6723153 157.387542 35.8560039 158.682846 34.7359488 159.876194 34.7359488 160.672145 35.5498872 161.966291 35.4490347 162.762242 34.429832 163.061159 33.2077379 164.154868 31.679527 164.453784 30.1489431 165.450172 28.0096851 165.74793 26.4802878 163.260436 26.3794353 160.375546 28.9280355 158.185811 29.0288879 156.39463 30.9652545 155.002004 31.1669593 153.50974 33.4094427 153.012705 34.7359488 153.211982 36.0612683 154.102938 36.6723153"></polygon>
                    <polygon id="Path" stroke="#000000" stroke-width="0.456" fill="#D40000" stroke-linejoin="round" points="123.357427 57.157223 121.465449 59.0935896 120.968414 60.8258783 121.764366 62.555794 123.556705 62.8619108 124.85085 62.1500113 126.044198 63.5761833 126.242317 66.021558 128.63133 68.6698241 129.72504 68.9759409 130.621789 67.9567381 131.615859 66.9363489 131.715498 65.9195191 133.309718 65.2064331 133.707115 62.1488248 134.603863 63.2676935 136.093811 62.3517162 137.985789 62.1500113 137.985789 59.6002247 137.290634 57.8691224 135.796053 56.7466943 133.507837 55.7274915 131.020344 54.8103277 129.826996 54.9135531 127.633784 56.2400591 125.247088 57.052811 123.357427 57.157223"></polygon>
                    <path d="M138.335683,56.5260054 L141.927313,56.3575225 C144.392793,54.7201537 145.459855,48.0520286 147.156031,43.6465573 C149.787189,40.1523173 153.018498,39.1070116 156.957705,40.9698152 L159.244762,41.6390007 L162.184106,43.9799635 L164.304326,43.9799635 L165.778053,44.3145563 L168.06511,44.4818527 L172.149141,41.1359251 L171.986938,44.6479626 L169.208639,47.1574082 L163.492154,49.3334476 L159.080242,46.6578921 L158.91804,47.3270776 L168.392991,58.0304863 L169.208639,58.0304863 L170.842251,59.7034501 L171.659057,59.0342646 L171.822419,56.1914127 L175.090802,53.1812644 L175.416366,57.5297837 L176.559894,59.7034501 L176.559894,63.8858596 L173.456031,67.9009727 L168.556352,68.5701582 L162.839868,64.8908243 L162.677665,63.2178606 L157.447789,57.0290811 L157.447789,59.7058231 L160.552811,66.2291954 L161.041736,68.7374545 L162.186423,69.9097157 L163.004388,71.9184587 L163.004388,74.4279044 L164.472322,77.9399419 L167.086101,78.2721616 L167.741863,76.6015708 L167.741863,74.2594215 L170.519004,71.4141966 L172.315978,71.2480867 L172.969423,72.251865 L172.152617,73.0871604 L171.825894,74.928607 L171.825894,76.0984952 L174.112952,79.2771264 L174.767555,81.2846829 L171.335811,86.635794 L169.047595,87.3073525 L164.965881,86.6369805 L162.514304,84.9640168 L161.207414,84.9640168 L157.450106,79.1086435 L156.961181,76.2657916 L151.896982,68.068269 L151.731304,69.7412328 L153.693956,72.251865 L154.672965,76.0984952 L155.651974,82.9564602 L158.592476,88.8118335 L158.754678,99.6860981 L159.737163,100.855986 L161.040577,100.855986 L162.675348,99.5188017 L163.981079,97.679728 L163.654357,91.3224656 L165.452489,91.3224656 L168.555194,93.1627258 L170.842251,97.0105425 L171.659057,98.6835063 L171.659057,102.195544 L170.516687,102.361654 L168.228471,104.872286 L164.471163,106.544063 L157.939031,106.544063 L156.469938,105.206879 L155.163048,105.206879 L154.18404,104.2031 L152.385907,104.2031 L147.319392,96.8432461 L147.158348,84.631797 L147.811793,81.9562414 L147.811793,78.2757211 L146.996145,78.2757211 L146.996145,81.9562414 L146.177022,84.2995772 L146.014819,87.6455048 L146.177022,96.8456191 L151.566784,105.711141 L155.487454,107.718697 L156.632141,109.057068 L154.835167,109.057068 L154.999687,110.395439 L153.527119,110.060847 L153.201555,110.730032 L152.385907,110.395439 L150.913339,109.390475 L148.953004,109.726254 L147.648432,110.395439 L144.219004,110.395439 L142.746436,107.384104 L141.605225,105.041955 L137.684555,101.361435 L134.744053,101.361435 L134.090608,99.1877684 L134.580692,95.3399517 L135.399815,91.8279143 L135.399815,82.4593171 L134.744053,93.1662853 L132.948238,99.1877684 L132.293634,99.6896576 L132.130273,106.547623 L133.273802,109.726254 L137.846758,114.911255 L134.744053,115.245848 L132.456996,114.244442 L130.005419,114.742772 L126.250427,113.907477 L122.001877,112.402996 L119.224736,109.560144 L117.917846,106.380326 L117.427762,103.204068 L116.774317,99.8581404 L117.427762,97.1825849 L117.754485,94.5058428 L116.448753,97.5159911 L116.448753,104.708549 L114.650621,104.207846 L114.650621,102.20029 L113.181529,100.192733 L112.857123,97.5159911 L112.365881,93.5020645 L112.200203,86.9786923 L112.365881,82.9635792 L113.181529,78.446577 L112.528084,78.2792806 L112.035683,83.968544 L111.711278,95.1750283 L110.567749,95.5108076 L107.955128,99.1901414 L102.071806,99.1901414 L99.7847489,97.1849579 L104.196661,92.3321764 L103.706577,88.4843597 L103.215335,83.9697305 L102.725251,76.2740971 L97.6610529,81.7936911 L91.9445683,85.977287 L87.0437313,85.977287 L84.2677489,82.4628766 L83.775348,78.4501365 L84.1032291,75.6049116 L87.0425727,71.5897985 L89.1639515,71.2575787 L89.9830749,70.4199103 L90.4731586,71.0890958 L89.3307885,74.4350234 L88.1872599,76.9432826 L89.1662687,79.2854319 L91.9445683,79.6200246 L95.5373568,73.9331343 L98.3144978,67.2412791 L100.437035,63.8953516 L100.437035,62.0562779 L98.4790176,63.5607588 L96.1908018,64.0638344 L89.4953084,64.2311308 L85.5757974,61.7216851 L84.9211938,59.7141286 L85.0833965,57.8750549 L85.2490749,55.3656093 L89.4953084,52.5203843 L89.657511,58.5418675 L92.4381278,56.1997182 L92.4381278,55.034576 L96.0297577,50.1817945 L104.686744,42.3212377 L109.914304,42.3212377 L113.017009,44.663387 L114.321581,44.9979798 L118.080048,48.6785001 L118.242251,53.3616122 L122.654163,57.0421325 L120.040383,60.2207637 L120.200269,61.8937275 L122.654163,63.7339877 L124.940062,63.0648022 L125.920229,69.2547682 L128.696211,70.927732 L130.166463,71.0938418 L135.721903,64.4019867 L138.172322,64.0697669 L139.642573,60.7238394 L138.985652,58.0459108 L138.335683,56.5307514 L138.335683,56.5260054 Z" id="Path" stroke="#000000" stroke-width="0.456" fill="#D40000" stroke-linejoin="round"></path>
                    <polygon id="Path" stroke="#000000" stroke-width="0.456" fill="#D40000" points="75.5505154 114.666836 75.5505154 115.648071 77.4702996 118.314135 77.3324273 121.122578 67.6002687 126.175878 63.3551938 126.457078 61.1596652 128.561928 55.5405022 130.386763 53.075022 129.824363 53.485163 128.421921 53.7585903 126.035871 53.485163 124.632242 51.7044097 123.649821 51.7044097 121.401405 53.8964626 120.701371 53.2094185 119.720136 51.9766784 119.577756 52.2512643 116.631679 52.7992775 115.509251 52.9371498 114.806843 52.7992775 113.402028 52.2512643 112.139593 50.7427797 111.717199 46.358674 113.544408 45.6727885 112.839627 43.6162907 115.08567 42.5191057 115.226864 42.3835507 113.400842 40.1903392 110.452391 40.1903392 109.889991 36.0796608 109.189956 33.2005639 112.979634 31.1440661 112.979634 29.6378987 111.857206 28.4028414 111.857206 27.0345463 112.697248 26.20963 112.41842 24.9768899 114.66565 24.2933216 114.66565 23.4684053 112.838441 22.3723789 111.014792 21.9622379 109.889991 22.5114097 107.646321 24.292163 106.522706 26.4818987 105.397905 28.1317313 105.119078 30.0480396 106.242692 30.8706388 108.065155 33.3384361 105.680292 35.8039163 102.871848 37.8592555 102.03062 40.4649251 102.450641 43.344022 106.381513 46.0829295 106.66034 49.373326 104.275477 50.6072247 103.573069 53.6241938 103.994276 56.6400044 105.679105 59.79137 110.448832 60.3405419 115.080924 61.0241101 116.345732 66.5065595 115.922152 72.2624361 114.800911 75.5505154 114.666836"></polygon>
                    <polygon id="Path" fill="#D40000" points="78.8409119 108.349915 77.3324273 115.22805 79.1131806 117.192893 78.9753084 119.438936 79.9334626 120.421357 81.716533 119.438936 83.4972863 118.175314 85.2780396 117.47172 87.3345374 116.350478 87.6068062 115.08567 89.798859 113.964429 92.1311013 113.260835 95.1445947 112.41842 98.1615639 111.997213 95.969511 110.452391 89.6644626 106.243879 87.058793 105.962678 86.0994802 106.803906 82.4012599 106.9451 80.3470793 107.505127 78.8409119 108.349915"></polygon>
                    <path d="M109.129938,101.472966 L104.744674,101.331772 L101.864419,101.331772 L99.535652,100.350538 L97.6170264,98.385695 L97.3424405,96.5608593 L95.9729868,94.316003 L94.6023744,92.911188 L92.5458767,92.911188 L89.6702555,94.8760305 L88.4351982,97.4032737 L88.1629295,101.472966 L89.8058106,104.981444 L95.2882599,109.193516 L98.4407841,109.89355 L100.636313,108.913502 L105.568432,106.667459 L108.720956,104.56261 L109.821617,102.737774 L109.129938,101.472966 L109.129938,101.472966 Z M98.5763392,95.0148509 L101.041819,92.3499739 L101.178533,86.3130663 L100.493806,85.7518522 L101.178533,83.3658024 L101.453119,81.4009598 L100.493806,81.4009598 L95.1480705,86.5930801 L91.4463744,87.1542942 L89.5312247,88.2790953 L89.3921938,89.6815373 L90.9006784,90.6639586 L93.6419031,90.3827583 L95.1480705,90.5251382 L98.5763392,95.0148509 L98.5763392,95.0148509 Z" id="Shape" stroke="#000000" stroke-width="0.456" fill="#D40000"></path>
                    <path d="M100.769551,110.875971 L105.564956,110.454764 L109.403366,110.735965 L111.321991,111.298365 L115.160401,113.403215 L117.354771,114.528016 L121.603322,114.245629 L119.958123,112.141966 L118.312925,110.03593 L117.214581,107.929894 L116.941154,105.826231 L115.985317,106.106245 L114.886974,105.826231 L113.51752,104.001395 L112.694921,101.334145 L112.14459,97.8256674 L111.050881,97.6832875 L110.225965,99.3681163 L111.050881,100.209344 L111.871163,101.894173 L110.500551,103.716636 L110.363837,105.122637 L108.583084,106.526266 L106.115286,107.64988 L103.785361,108.631115 L101.18085,109.613536 L100.769551,110.875971 L100.769551,110.875971 Z M135.8563,104.419043 L135.994172,110.454764 L138.05067,112.2796 L139.966978,112.2796 L141.475463,111.438372 L141.887921,110.175937 L140.51615,109.333523 L139.966978,107.648694 L137.08904,104.421416 L135.855141,104.421416 L135.855141,104.419043 L135.8563,104.419043 Z M158.197396,109.191143 L164.089987,113.260835 L165.871899,113.824422 L167.517097,113.262021 L170.257163,111.015978 L171.626617,107.928708 L171.765648,105.683851 L170.396194,105.543844 L168.202982,107.088666 L165.050458,107.36868 L162.583819,107.788701 L160.664035,107.788701 L158.744251,108.209908 L158.197396,109.191143 L158.197396,109.191143 Z M175.190441,104.561423 L174.096731,106.386259 L172.999546,109.193516 L170.531749,111.860766 L170.669621,113.824422 L169.571278,113.824422 L169.710308,115.369244 L171.626617,116.911693 L176.97467,117.75292 L181.224379,112.14078 L181.224379,110.595958 L178.893295,107.787514 L177.246938,107.367493 L175.190441,104.561423 L175.190441,104.561423 Z M200.13489,120.28135 L202.878432,121.684979 L202.878432,122.6674 L201.781247,124.212222 L201.097678,127.158299 L200.821934,128.983135 L197.531537,129.125515 L194.106744,127.861893 L192.18696,126.598271 L190.405048,126.598271 L189.445736,125.757044 L187.802855,124.633429 L185.745198,123.228614 L183.554304,120.282537 L182.046978,118.317694 L182.046978,116.914066 L184.103476,114.246815 L186.159974,113.546781 L195.34296,113.546781 L199.590352,112.001959 L203.015145,109.054695 L207.128141,108.212281 L208.087454,107.089853 L210.828678,106.527452 L217.68174,102.877781 L221.518991,103.577815 L225.357401,103.438995 L228.64548,104.42023 L229.880537,105.543844 L229.194652,105.965051 L227.413899,105.823858 L225.357401,106.947473 L225.082815,110.737151 L226.728013,113.824422 L226.316714,114.666836 L224.261374,114.526829 L222.891921,113.823235 L222.204877,112.559614 L222.204877,111.297179 L220.836581,109.332336 L219.739396,108.912315 L217.275075,108.912315 L216.452476,114.244442 L215.215101,114.244442 L212.888652,112.139593 L209.459225,111.717199 L207.130458,113.823235 L207.95074,116.630492 L211.380167,120.00015 L213.160921,120.00015 L214.806119,121.962619 L214.667088,123.506255 L212.201608,122.943854 L209.733811,122.383827 L207.678471,121.399032 L206.033273,121.681419 L204.113489,120.556618 L202.194863,119.716576 L200.962123,119.154176 L200.13489,120.28135 L200.13489,120.28135 Z M209.385075,182.991389 L207.204608,185.01437 L205.750577,187.885698 L205.232687,190.860251 L204.297705,194.582299 L203.881771,197.453627 L204.298863,203.726648 L204.50741,207.127154 L206.477013,210.318837 L207.51511,210.636819 L208.760595,213.187792 L210.525128,208.191444 L211.358154,208.828594 L211.876044,212.549456 L214.784106,215.100429 C214.784106,215.100429 212.08459,213.719344 211.461269,213.719344 C210.837947,213.719344 210.734833,214.462092 210.734833,214.462092 L211.461269,216.056747 L213.12037,217.758187 L216.028432,218.925702 L221.427463,219.032487 L220.181978,220.307973 L216.445524,220.307973 L215.507066,221.050722 L216.859141,223.07133 L218.519401,225.729088 L221.531736,227.216958 L224.643709,226.367424 L225.681806,226.367424 L225.163916,227.642911 L226.721062,228.810426 L228.069661,230.085913 L229.316304,231.469371 L230.353242,231.680568 L230.353242,233.275222 L228.485595,238.06156 L228.068502,240.292178 L227.032722,242.100403 L226.409401,244.862573 L224.540595,248.158668 L224.333207,249.328556 L225.268189,249.328556 L226.616789,247.519145 L228.591026,246.669611 L230.978881,243.480302 C230.978881,243.480302 232.32748,243.907441 232.6403,243.266732 C232.950802,242.628395 234.404833,238.163599 234.404833,238.163599 L235.857705,237.844431 L236.5853,233.167251 L237.830784,237.527635 L238.871198,243.056721 L238.454106,247.733901 L235.75459,252.835847 L235.029313,253.690127 L235.444088,255.389193 L237.416009,255.389193 L239.700749,252.941446 L243.64459,247.519145 L245.205211,242.096844 L246.034762,231.57141 L247.799295,236.463346 L249.460714,241.246124 L250.29374,244.966985 L249.045938,249.857734 L247.488793,255.60039 L249.566145,254.110147 L253.928238,249.112613 L257.351872,243.906255 L258.288013,240.078609 L259.118722,232.741298 L258.599674,227.001015 L258.804744,224.873622 L259.532339,223.70492 L259.428066,219.877274 L258.70163,218.282619 L256.211819,221.684312 L255.173722,221.897882 L252.265661,219.877274 L251.540383,219.663704 L249.878965,217.21833 L248.738912,213.283898 L248.840868,208.819102 L248.219863,208.819102 C248.219863,208.819102 248.531524,205.097054 248.840868,204.140736 C249.153687,203.183231 249.568463,201.378566 249.568463,201.378566 L249.048256,197.442949 L247.076335,193.720901 L244.68848,191.597067 L240.847753,190.428366 L236.381388,189.150506 L233.786145,187.026673 L228.907322,186.495121 L226.416352,186.814289 L221.743758,184.581298 L218.732581,183.41141 L214.893013,183.306998 L211.258515,182.879858 L209.385075,182.991389 L209.385075,182.991389 Z M42.3441586,183.223943 L32.7695683,183.029357 L31.2367533,182.243895 L28.9404273,184.203991 L24.535467,184.203991 L19.7470132,186.94955 L16.492533,189.49815 L14.7697093,189.303564 L8.06610573,195.580145 L9.02425991,200.677345 L9.78892952,202.051311 L10.1724229,206.953926 L10.3624317,214.012409 L8.83309251,215.190603 L6.53444934,221.075638 L5.19280176,226.172839 L4.04348018,236.175026 L5.00163436,243.626241 L3.65998678,247.548807 L0.980167401,251.864104 L0.405506608,254.02116 L2.7018326,252.450235 L2.32181498,251.665959 L3.46881938,253.430283 L6.33980617,248.134938 L7.49028634,250.097407 L8.63729075,250.291993 L8.63729075,243.623868 L7.29911894,233.230136 L10.5535991,244.018972 L11.3205859,247.940352 L11.8952467,247.742206 L12.2775815,238.917026 L14.3827401,243.820827 L14.5750661,248.133751 L15.5320617,248.919214 L16.1090396,247.742206 L16.1090396,241.27104 L12.6599163,230.877308 L10.9370925,221.265478 L15.5332203,233.817453 L18.2153568,236.366053 L20.7040088,243.231137 L22.8126432,247.152516 L23.194978,249.701117 L24.7266344,248.721068 L25.3036123,247.742206 L23.9619648,246.760972 L24.9178018,245.977882 L24.7243172,242.448047 L23.5773128,234.213743 L22.4303084,234.213743 L18.4076828,225.584335 L22.0456564,230.880867 L23.5773128,230.880867 L23.7696388,229.505715 L22.046815,225.97588 L21.6644802,221.857541 L25.1112863,226.957115 L26.2582907,226.369797 L24.3442996,220.679348 L23.9619648,214.208181 L25.1112863,216.95374 L24.9189604,220.092031 L27.4099295,223.231507 L29.8985815,224.601914 L31.8125727,222.252645 L30.4709251,221.269038 L29.8985815,218.525852 L27.9811145,216.171837 L27.9811145,213.032361 L30.6655683,217.936162 L33.1530617,219.701672 L35.6428722,220.290176 L38.1338414,218.525852 L42.3441586,213.622051 L41.7729736,213.032361 L37.365696,213.230506 L33.9188899,210.876492 L30.8555771,207.936347 L30.8555771,205.38656 L31.4302379,205.776918 L32.7695683,208.52485 L35.2593789,211.075824 L38.1315242,211.464995 L41.771815,211.663141 L45.7909648,207.937533 L47.8995991,200.876677 L48.4742599,196.954111 L47.7084317,192.051496 L45.2174626,186.36342 L43.6846476,183.812446 L42.3441586,183.223943 L42.3441586,183.223943 Z M183.293621,291.874042 L173.142053,302.656946 L171.801564,302.265401 L168.16359,305.404878 L167.972423,308.738941 L171.419229,311.486873 L172.760877,314.035473 L173.719031,313.837327 L177.16352,318.151438 L180.421476,322.860653 L181.763123,323.646116 L182.717802,325.801985 L180.997295,328.350585 L181.570797,329.922696 L184.251775,329.527592 L187.317405,329.725737 L189.230238,330.901558 L189.997225,334.432579 L189.997225,335.802986 L192.103542,334.628352 L193.827524,332.077379 L194.01985,325.803171 L193.638674,324.038847 L194.209859,319.330818 L194.78452,325.605026 L196.126167,327.567495 L197.083163,326.780847 L198.230167,330.901558 L200.721137,333.452531 L202.062784,335.801799 L202.256269,334.235621 L202.062784,331.098517 L203.404432,327.567495 L204.936088,323.450343 L206.468903,322.466736 L207.807075,323.059985 L209.7257,325.017709 L209.533374,325.803171 L211.257357,325.605026 L210.871546,320.89937 L208.384053,317.368349 L204.552595,314.823308 L202.638604,312.862025 L200.91578,309.723735 L203.596758,311.292287 L206.468903,314.037846 L209.148722,315.411812 L211.065031,315.803356 L214.322987,322.274523 L216.429304,325.412813 L216.811639,321.098702 L218.343295,316.193715 L219.877269,314.037846 L221.79126,313.840887 L224.282229,314.626349 L223.705251,311.683831 L221.79126,307.958224 L217.96096,304.429576 L213.938335,301.291286 L210.493846,299.719174 L207.427057,302.467106 L206.470062,302.857464 L204.746079,304.429576 L203.406749,303.841072 L199.001789,299.522215 L197.852467,298.741499 L195.938476,294.032284 L193.065172,292.658318 L188.660211,293.053422 L183.293621,291.874042 L183.293621,291.874042 Z M68.1981013,289.325442 L69.5397489,291.675897 L70.6890705,295.401504 L72.6030617,297.562119 L72.4118943,298.736753 L75.0928722,301.088394 L77.7726916,305.402505 L82.1788106,309.128112 L78.9231718,312.071817 L71.2625727,317.956852 L68.7716035,318.742315 L65.5171233,316.776286 L65.8994581,321.484314 L67.2399471,323.643743 L63.793141,322.85828 L59.7705154,323.249825 L57.2818634,325.409254 L56.7060441,327.563936 L55.7490485,325.997757 L54.4074009,323.837142 L54.0250661,323.446784 L53.2603965,324.035288 L53.8350573,324.424459 L54.0250661,328.347025 L53.0692291,329.133674 L52.8757445,330.309495 L48.4731013,333.24964 L47.3237797,330.309495 L45.7886476,326.975432 L43.1088282,325.601466 L40.2378414,325.995384 L36.9822026,327.955481 L37.9380396,325.209922 L39.854348,322.071631 L43.491163,318.934528 L47.1291366,316.582886 L50.0024405,315.407066 L50.7694273,315.011962 L49.8101145,314.0331 L44.4504758,315.599279 L40.6190176,318.150252 L36.5963921,321.09277 L33.5330793,325.601466 L32.0014229,326.776101 L32.0014229,323.445597 L30.2751233,318.934528 L29.7016211,315.990823 L27.9776388,313.834954 L25.8724802,313.834954 L23.0003348,314.422271 L25.1089692,310.697851 L29.3192863,308.346209 L31.2355947,305.012147 L34.6824009,302.067256 L37.5545463,301.478752 L41.7683392,302.067256 L43.8723392,303.247823 L47.8972819,303.441222 L50.3836167,303.247823 L53.4492467,301.675711 L55.9402159,296.966496 L59.3847048,291.871669 L63.4096476,289.71224 L68.1981013,289.325442 L68.1981013,289.325442 Z" id="Shape" stroke="#000000" stroke-width="0.456" fill="#D40000"></path>
                </g>
                <path d="M116.749402,27.2935019 L116.749402,29.8852731 L115.846423,31.4398383 L114.250189,31.4398383 L113.279632,32.552907 L113,33.4421184 L114.805958,35.220541 L116.4721,36.479117 L117.164189,37.369572 L117.583638,37.5909421 L124.524342,37.5163229 L125.356248,38.4055343 L126.884904,37.2203337 L128.76077,34.1820914 L134.661009,34.2567105 L137.783568,36.7017307 L137.992127,38.7027671 L138.686547,39 L140.350359,37.4454348 L141.739199,37.3708156 L142.432454,38.3346461 L143.683808,38.3346461 L147.779254,34.4059488 L148.473674,33.3687429 L150,33.2941237 L149.793771,32.0343041 L148.127629,31.5903202 L146.671212,30.035755 L146.252929,27.4414965 L144.935162,27.2201264 L142.644508,28.4799461 L138.687713,30.554358 L137.367616,31.5915639 L136.1885,31.6649394 C136.1885,31.6649394 135.702639,31.2209555 135.424172,31.2209555 L133.897846,31.2209555 L132.646492,32.3327806 L131.67477,32.3327806 L131.32756,31.9621722 L125.98309,31.5169448 L121.540433,30.3317442 L119.247449,28.7025599 L117.791032,27.4427402 L117.372748,27 L116.749402,27.2935019 L116.749402,27.2935019 Z" id="Path" stroke="#000000" stroke-width="0.456" fill="#000000"></path>
                <g transform="translate(116.000000, 30.000000)" fill="#FFFFFF" id="Shape" stroke="#000000" stroke-width="0.456">
                    <path d="M4.33196916,4.20508148 L7.36747577,4.20508148 L8.12751101,4.80262222 L8.12751101,5.5986 L6.67927313,6.19725556 L4.12342291,6.32991852 L2.32760793,6.06459259 L1.08444053,5.00105926 L0.809854626,2.87622222 L2.46432159,1.08248519 L4.05390749,1.08248519 L4.19293833,1.68114074 L4.33196916,4.20508148 Z M24.6246784,4.07353333 L24.1427048,4.47040741 L24.1427048,5.26861481 L24.7613921,5.6666037 L27.8003744,5.80038148 L31.1139427,3.27755556 L31.1834581,2.2797963 L29.1837313,0.618722222 L27.4574317,0.618722222 L27.17937,1.0836 L27.5964626,1.94758148 L28.146793,2.74467407 L27.595304,3.80709259 L24.6246784,4.07353333 Z"></path>
                </g>
                <g transform="translate(23.000000, 109.000000)" id="Shape" stroke="#000000" stroke-width="0.456">
                    <path d="M8.582837,8.19687398 L10.3647489,11.4289987 L10.2291938,17.1921624 L9.54214978,17.8956248 L6.93995595,15.6462086 L5.56702643,13.6796033 L4.1964141,11.2899698 L4.1964141,9.18195906 L5.56702643,8.05665681 L7.34777974,7.63600527 L8.582837,8.19687398 L8.582837,8.19687398 Z M14.0664449,17.4702202 L18.0404097,9.03698876 L18.0404097,6.78876081 L16.5319251,4.53696801 L14.4754273,4.53696801 L12.284533,6.64616707 L12.284533,14.0966899 L14.0664449,17.4702202 Z M20.9171894,17.4702202 L23.1115595,16.4875116 L28.4572952,11.286405 L29.2787357,9.74045121 L28.8651189,8.47493177 L27.3589515,7.3508178 L26.4019559,7.06919516 L24.2075859,8.05309196 L22.9748458,9.3186114 L20.5070485,13.8150673 L20.9171894,17.4702202 L20.9171894,17.4702202 Z M30.3770793,21.125373 L28.4572952,22.5322979 L26.2629251,22.3920807 L22.2912775,19.5794192 L22.4268326,19.0161739 L24.89463,18.5943341 L27.0866828,17.6104373 L29.2787357,17.7506545 L30.5149515,18.8747685 L30.9239339,20.1414762 L30.3770793,21.125373 Z" fill="#5656A6"></path>
                    <path d="M183.057269,17.0483803 L186.210952,17.0483803 L187.991705,18.0322771 L191.55437,18.0322771 L191.55437,19.439202 L189.499031,20.9839675 L185.523907,22.1092698 L183.740837,22.9517612 L182.371383,22.8103557 L181.41207,21.5460245 L181.41207,19.5782309 L182.23467,17.8908717 L183.057269,17.0483803 L183.057269,17.0483803 Z M204.848035,12.6933299 C204.848035,12.6933299 207.042405,11.4254339 207.450229,10.4451019 C207.863846,9.46120514 208.822,7.3508178 208.822,7.3508178 L209.645758,3.69566495 L208.55089,0.603757367 L206.494392,0.0428886596 L204.713639,0.181917555 L203.754326,1.16462607 L203.480899,3.8370704 L204.439053,6.08529836 L205.261652,7.3508178 L205.124938,9.73926293 L204.848035,12.6933299 L204.848035,12.6933299 Z M196.624361,13.8162556 L198.818731,12.6921416 L200.185868,10.0220738 L200.327216,7.06919516 L199.230031,4.81859064 L197.721546,3.13479624 L195.665048,3.13479624 L195.115877,7.06800688 L196.622044,8.61633723 L196.622044,13.8162556 L196.624361,13.8162556 L196.624361,13.8162556 Z M194.021009,16.3472945 L194.843608,15.3633977 L195.257225,13.2541986 L194.434626,10.1634793 L193.19841,8.75655441 L191.692242,7.3508178 L190.047044,6.2278921 L187.714802,6.2278921 L186.208634,7.49222325 L186.617617,10.0232621 L189.362317,12.1312729 L191.55437,12.5531127 L194.021009,16.3472945 L194.021009,16.3472945 Z M204.034705,9.65964809 L204.034705,12.1954401 L201.56459,12.5590541 L201.387326,9.11779188 L204.034705,9.65964809 Z" fill="#48489C"></path>
                    <path d="M185.025714,220.768491 L182.919396,223.715428 L182.919396,228.625406 L183.876392,230.984144 L182.919396,240.213524 L187.70785,233.340505 L189.428357,229.802992 L189.238348,225.091458 L187.8967,222.928786 L186.365044,221.553945 L185.025714,220.768491 L185.025714,220.768491 Z M200.920414,210.558779 L199.388758,210.949724 L197.664775,214.679738 L197.282441,219.589716 L198.239436,222.142144 L198.239436,225.679657 L198.624088,227.838764 L200.344595,225.288712 L202.835564,220.965745 L203.215581,217.822742 L203.215581,213.50334 L202.067419,211.537923 L200.920414,210.558779 L200.920414,210.558779 Z M159.171771,236.087811 L161.66274,234.320837 L163.57789,232.944808 L166.068859,229.608114 L165.684207,227.055686 L164.150233,225.8781 L162.236242,225.091458 L160.513419,225.288712 L158.59711,228.037207 L158.790595,233.538948 L159.171771,236.087811 L159.171771,236.087811 Z" fill="#4F4D9F"></path>
                    <path d="M42.5480705,218.807827 L44.4620617,219.590904 L44.4620617,224.895391 L41.2075815,228.626594 L37.5707665,231.377465 L37.7596167,227.84114 L36.8037797,226.667118 L36.8037797,222.931162 L37.5707665,221.950831 L37.5707665,220.185045 L40.8264053,218.414506 L42.5480705,218.807827 Z M17.6499648,221.948454 L20.3309427,221.751199 L23.2030881,223.516985 L24.3512511,226.858432 L22.6284273,228.430528 L21.6725903,230.000247 L21.0979295,232.555052 L21.4802643,236.680764 L21.6725903,240.411967 L18.4169515,236.285066 L15.7371322,231.965664 L15.5436476,227.646262 L16.5006432,223.915059 L17.6499648,221.948454 L17.6499648,221.948454 Z M8.45770925,217.039664 L7.69188106,219.786971 L6.73488546,220.376358 L5.58672247,221.949642 L5.58672247,227.839952 L3.6704141,226.66593 L1.56409692,223.913871 L0.417092511,220.966934 L0.799427313,213.504528 L1.75642291,210.361524 L4.05506608,209.574882 L6.35255066,210.361524 L8.26538326,214.879369 L8.45770925,217.039664 L8.45770925,217.039664 Z M8.65235242,197.989141 L7.50303084,200.932513 L4.43855947,203.287687 C3.9693304,200.150624 5.54501322,198.503667 8.65235242,197.989141 Z" fill="#4748A5"></path>
                </g>
            </g>
            <g id="Group" transform="translate(942.000000, 423.000000)">
                <polygon id="Path" stroke="#000000" stroke-width="0.456" fill="#DFDA4D" fill-rule="nonzero" points="17.414363 18.4154683 21.130827 21.8631947 23.8870395 23.6552662 26.0892161 24.4830937 28.8442647 26 34.627888 26 39.8586394 25.4473377 42.474015 24.4819277 47.5685852 24.3431792 51.7005762 22.4123591 54.727987 20.3451224 57.7565617 20.2075398 59.4128499 18.551885 61.6138625 18.551885 66.0182157 15.2405752 72.2162021 12.4842596 78.6877146 10.1395258 85.7120992 8.7602021 88.601001 8.89661873 89.7020893 9.72444617 91.0801955 12.068014 91.6295757 13.1733385 90.9428505 15.5169063 88.3274748 17.0361446 87.7757667 15.3793237 89.4273992 14 89.015364 13.1721726 86.3964965 12.7582588 84.6063551 12.7582588 82.9570506 14.4139137 82.6811965 18.1379712 84.8833731 20.0676253 87.2240587 21.5856976 89.2900541 21.7244462 91.7692487 20.2087058 95.0748414 17.3113098 97 14.001166 96.4482919 9.17411582 95.3472036 6.13797124 92.0427748 3.65565488 87.9131118 2 80.7537101 2.1399145 76.4843741 3.24174116 74.8315777 3.79440342 70.2887156 6.82821609 68.2227201 6.96579868 63.679858 9.99961135 61.8873887 10.6875243 59.8213932 11.5153517 56.6554734 12.8958414 50.5948321 15.652157 46.466333 18.1356393 44.4003375 18.4131364 39.5827853 21.4457831 32.6969097 21.9984454 31.4584764 21.3070346 28.2902287 20.8942868 26.2253972 20.0652934 24.1605657 18.9623008 21.2704999 15.5145744 20.4429378 14.9619122 17.8263982 14.9619122 17 16.0672367 17.414363 18.4154683"></polygon>
                <polygon id="Path" stroke="#000000" stroke-width="0.456" fill="#D9D24D" fill-rule="nonzero" points="97.6773823 6 98.4925373 13.3175258 97 17.8527835 100.123995 18 103.788749 18 107.049369 17.2663918 110.173364 16.9731959 113.026406 17.1216495 115.335247 17.4136082 118.185993 16.243299 118.322618 13.9026804 117.642939 11.8540206 119 7.31505155 118.455798 6.29072165 97.6773823 6"></polygon>
                <polygon id="Path" stroke="#000000" stroke-width="0.456" fill="#D9D34A" fill-rule="nonzero" points="129.709324 13.464976 128.885352 14.0269058 127.650553 13.464976 126.963522 11.5029638 128.336423 10.2404 131.354949 10.3802897 134.101911 12.9054172 134.101911 16.5508479 130.394034 18.376527 126.552696 19.3569404 122.29473 18.0943766 119.687031 14.4477604 119 11.9238184 119.550089 7.57538271 120.23712 4.77047575 123.943836 1.96438328 127.924437 0.703005 132.589747 0 137.947891 1.40245348 148.790676 5.61099943 156.067167 8.97665069 164.167631 13.3250863 168.972205 15.569249 175.288942 18.6527499 179.133761 20.0563888 183.526348 19.494459 185.448178 19.6343487 189.291836 18.3729705 191.899536 18.0908201 197.665024 11.2196279 200 9.81717437 199.726116 12.9018607 195.881297 17.2502964 192.587727 21.0368022 191.215987 21.1790629 189.431099 22.7190351 185.999427 22.5779599 178.035905 23 174.192246 21.7386217 168.151714 20.4748724 161.013325 17.2502964 155.382457 14.3043142 152.636655 13.8858306 148.378689 11.6404824 145.77215 11.3607031 144.262307 10.238029 139.592355 8.83676099 135.747536 7.433122 132.04314 7.01226741 129.159235 6.59259832 127.787495 7.433122 126.414594 9.39631978 125.729884 12.0601515 126.689638 15.2870986 128.337584 15.569249 129.848587 14.8698005 130.396355 13.7459409 129.709324 13.4661615"></polygon>
                <path d="M48.2511871,168.078239 L46.5008137,169.860226 L43.7489021,168.078239 L44.9973472,164.762584 L49.498473,163.996341 L52,167.821642 L50.9984618,171.645761 L47.4977151,175.214465 L43.2458147,176.491536 L38.9962326,177 L33.9978154,176.746951 L27.2455472,175.213283 L21.9967454,168.839752 L17.9963887,160.678321 L14.9987294,153.793961 L11.4979826,139.767462 L9.74644999,133.901212 L8.99645556,128.545791 L5.24764261,121.150602 L6.74531309,119.875896 L19.7467621,108.145761 L20.4979157,108.145761 L23.248668,105.593983 L27.9967008,96.4132605 L28.4974698,95.9047969 L29.9962995,90.2951435 L29.745915,80.6047746 L28.4974698,76.0144131 L25.4986513,70.9132232 C25.4986513,70.9132232 24.4982724,69.1276885 25.4986513,69.3831027 C26.4967119,69.638517 22.747899,65.0469731 22.747899,65.0469731 L18.245614,60.1988324 L18.245614,59.1819054 L14.9975702,55.8662502 L12.7475869,54.5915439 L10.9972135,54.5915439 L10.2460599,53.569887 L6.99569763,52.550595 L5.49686796,54.0807154 L4.496489,57.3963706 L4.496489,58.6734418 L6.74531309,59.6903689 L7.49414833,59.1819054 L6.74531309,57.9048342 L6.99569763,56.3747137 L8.7483894,55.1011899 L10.746829,56.627763 L10.4964444,60.4530642 L8.99645556,62.2397814 L5.24764261,62.4963781 L2.24766491,60.9650751 L0.99806059,58.4144802 L-2.27373675e-13,54.5915439 L0.99806059,52.2951807 L2.49920863,51.021657 L4.99957645,51.5301205 L8.99877394,50.509646 L10.2472191,50 L13.4987405,50.5084635 L15.7487238,52.8048267 L18.2467732,54.3349472 L24.4982724,61.4770861 L26.2474866,63.2602559 L29.4978488,68.107214 L33.4982055,77.2879369 L34.4974253,83.6614681 L33.9989746,90.0385468 L30.7486123,99.2192697 L26.9986402,105.084337 L21.7498384,111.714465 L12.7499053,119.367433 L11.5003009,119.621664 L9.5007022,122.172259 L13.001449,129.822862 L18.5006353,153.285497 L23.0006019,162.974684 L29.5001672,169.860226 L34.4997436,172.666235 L41.0016273,173.432478 L46.7511982,171.899993 L49.251566,169.608359 L48.2500279,168.078239 L48.2511871,168.078239 Z" id="Path" stroke="#000000" stroke-width="0.456" fill="#DDD457" fill-rule="nonzero"></path>
                <polygon id="Path" stroke="#000000" stroke-width="0.456" fill="#DBD45D" fill-rule="nonzero" points="59.209498 174.3581 58.4638866 175.635494 59.4584193 177.685736 61.9453274 178.197406 63.6831667 175.891923 63.6831667 173.330011 62.1907914 170.516419 60.2040308 170 57.9683488 170.257616 54.7358293 172.563099 52.9956851 174.612154 52 179.474801 54.486908 187.414591 58.4638866 192.790095 68.4046043 199.446555 79.0932383 203.54229 85.8002841 204.56563 90.7741002 209.688267 93.2587034 215.830683 91.0230215 219.674738 88.0405757 219.929979 88.0405757 218.393782 89.2817249 218.136166 90.7741002 216.599969 90.0284887 215.064958 87.0471953 213.271145 84.5625921 215.3202 84.311366 219.929979 86.5470479 222.234276 89.778415 223 92.2653231 221.975473 94.7487739 219.157132 95 215.829496 94.0054673 210.964475 89.778415 204.823246 85.3070512 202.517763 74.1228794 198.419653 66.9145338 195.606061 61.6941013 191.760819 56.9738161 186.642931 54.2391392 179.220746 55.4814408 174.355725 58.2161177 172.305483 59.7073406 172.815966 59.209498 174.3581"></polygon>
                <polygon id="Path" stroke="#000000" stroke-width="0.456" fill="#E5DC5E" fill-rule="nonzero" points="150.456646 174.332541 152.468052 175.615385 152.720934 177.665081 150.457812 178.691119 147.443034 178.179883 147.443034 175.104149 149.200392 171.257995 154.230071 171 156.490863 173.821305 158 179.204732 156.490863 184.847343 150.710694 189.718345 142.667402 195.360956 133.87129 199.205921 120.80298 205.614196 117.033051 208.431934 113.764226 214.586969 115.776797 218.179883 118.290471 218.691119 118.290471 217.409464 117.53532 216.383426 118.036424 213.560932 119.54556 212.024848 122.559173 213.820117 123.316655 217.66627 120.550098 220.487576 117.53299 221 112.759689 218.691119 111.250552 216.128998 111 212.534895 113.011406 209.202354 117.031886 205.101771 123.315489 201.508857 132.363319 197.663893 145.683345 190.998811 154.980561 180.740816 154.980561 176.641422 152.969155 174.076923 150.456646 174.332541"></polygon>
                <polygon id="Path" stroke="#000000" stroke-width="0.456" fill="#D7D643" fill-rule="nonzero" points="161.749457 167.434225 161.749457 169.734756 163.499928 169.734756 165.250398 169.479537 166.000435 166.409788 164.501522 164.363288 162.500652 164.103321 159.998986 164.614946 157.251558 166.66382 157 170.761567 158.248515 173.57491 160.749022 177.413878 165.249239 179.719157 169.748297 181 176.500942 180.488375 184.250543 176.649408 191.500507 171.273192 194.500652 163.846915 198.249674 150.278765 202.997971 133.128055 205.999275 126.729776 208.498623 124.423309 207.748587 123.401246 205.499638 123.401246 199.749746 119.049467 193.750616 115.208126 185.998696 105.737724 181.999275 97.7998219 180.749602 86.536952 182.99971 75.5269269 187.749167 67.3349934 195.498768 60.6779345 202.500652 55.5581244 209.500217 55.3052797 210.497174 58.1198101 209.500217 60.4250897 207.998986 59.1430598 205.750036 58.8878409 204.750761 62.7279953 207.24779 64.007651 211.748008 63.4960261 213 60.4250897 212.501522 56.0733105 209.249819 53 203.497609 53.5116249 199.24779 54.0220627 193.996377 57.0965603 188.499203 62.9832142 184.750181 68.6158362 179.997247 76.5513637 178.498334 83.7188604 178.748732 96.2649473 185.00058 109.830723 190.498913 117.000594 201.24866 124.423309 202.999131 125.704152 199.749746 133.128055 194.999131 148.745078 192.000145 161.288791 189.500797 166.665007 181.500797 173.832503 172.498044 177.415065 164.749602 177.16222 160.99942 174.344128 159.997826 171.784817 159.747428 167.945849 161.749457 167.434225"></polygon>
                <g transform="translate(2.000000, 9.000000)" fill-rule="nonzero" stroke="#000000" stroke-width="0.456">
                    <polygon id="Path" fill="#44B3CC" points="90.5212913 36.1831293 90.137692 40.089229 91.2896523 48.6850121 95.5162188 72.3225291 97.6318269 72.3225291 97.8224641 68.611439 90.5212913 36.1831293"></polygon>
                    <polygon id="Path" fill="#50AECE" points="101.278345 70.5650797 93.5947352 36.3781388 99.3556988 71.1512902 101.278345 70.5650797"></polygon>
                    <polygon id="Path" fill="#50AFCE" points="102.62443 70.1738788 105.314274 69.1976494 95.3220943 36.3781388"></polygon>
                    <polygon id="Path" fill="#50ABCE" points="98.2060634 34.424498 109.925602 68.611439 107.620519 69.391477"></polygon>
                    <polygon id="Path" fill="#50B0CE" points="111.655286 67.8278553 100.319347 33.2520772 114.729893 67.4390181 111.655286 67.8278553"></polygon>
                    <polygon id="Path" fill="#50B3CE" points="115.881853 66.0715877 102.43263 33.0558858 119.148259 66.4627886"></polygon>
                    <path d="M10.5675787,5.6340022 L8.75420036,5.91647053 L6.5246749,7.76019686 L5.54824038,10.1700417 L5.69005587,14.5630743 L7.22212812,17.2553875 L9.87245036,20.0918895 L11.1255413,22.2180842 L10.4280881,26.0426344 L6.66649038,28.4524793 L2.62358654,31.4296246 L1.08918945,33.8382876 L0.531226871,36.5306008 L0.671879938,39.3659209 L1.22868009,40.0738646 L4.29631185,39.9296757 L6.10852781,39.3659209 L8.89485343,39.0822707 L11.5428508,39.507746 L15.5845923,42.3430662 L21.3013838,47.5870494 L23.8075657,50.5641947 L21.9976746,46.1687984 L21.0224025,40.9248152 L20.3249493,35.680832 L21.1630556,32.5642254 L22.5567996,30.578674 L24.0900343,31.4296246 L25.3442877,30.7204991 L27.0181754,31.5714497 L28.4130819,30.7204991 L30.6414449,31.4296246 L33.4277705,30.0113736 L37.610165,26.7529418 L40.5371437,26.7529418 L41.37525,27.4608855 L43.0468129,26.7529418 L44.0232474,28.1711929 L47.5093511,25.4765159 L50.2956767,24.0594468 L53.0831648,25.1940476 L56.7087591,26.0449982 L58.1036655,24.7685723 L61.0294818,24.6267472 L65.0712232,24.0594468 L67.0240923,25.4776978 L68.9723116,30.2950238 L70.367218,31.8550999 L72.4595777,32.2782114 L73.5743404,32.8455119 L75.5237222,37.8070267 L76.9186286,41.7757658 L77.6160819,46.5930918 L77.3371006,47.8683358 L78.5901915,47.7276926 L80.5430606,49.7085165 L82.2157859,50.5618309 L83.6095299,52.1195433 L84.0245146,54.6700314 L85.1416021,54.5293882 L86.1180366,53.2541441 L88.0709057,53.6796194 L89.7424686,55.520982 L91.4140314,55.663989 L88.4847279,35.9633004 L85.6972399,34.4044061 L85.5577492,29.8707303 L92.1091598,27.4597036 L92.2486505,25.7601661 L91.2745408,22.9236641 L90.019125,20.3743578 L87.5106182,20.6556443 L89.4611624,14.2794241 L94.3398477,19.3815821 L92.1091598,19.6652323 L94.0585416,27.4597036 L102.424493,26.0426344 L103.95889,28.170011 L103.400927,30.0113736 L104.098381,31.2854357 L104.514528,33.5546374 L107.025359,36.8130691 L113.57677,51.2674108 L119.849199,64.3070471 L122.636687,61.3310837 L125.565991,60.6243219 L128.771951,58.3551203 L130.722495,57.6459948 L132.115077,55.8046322 L135.741833,55.6616252 L141.174994,60.6219582 L142.014263,59.347896 L147.169604,59.0618821 L148.84233,62.4633208 L149.121311,63.8815718 L151.213671,63.0306212 L156.928137,64.3046833 L160.413079,67.1411854 L163.058751,68.2722406 L163.757367,69.6916735 L165.290602,67.8479472 L166.406527,67.992136 L168.219905,68.4176113 L173.933209,67.992136 L176.862513,62.0378455 C176.862513,62.0378455 179.509348,56.5125758 180.767089,55.0943248 C182.02018,53.6772557 187.177846,48.0089791 187.177846,48.0089791 L193.449113,43.754226 L198.188308,41.0630947 L202.648521,40.4957943 L206.83324,40.3539692 L206.69375,36.528237 L205.019862,32.8431481 L200.837468,27.3178785 L200.000524,22.9236641 L200.000524,20.2289871 L203.624956,17.8191423 L207.946841,14.2770603 L208.087494,10.5907895 L206.83324,6.05475 L204.322409,2.23019974 L203.485465,1.52107422 L202.090558,1.23860589 L200.141177,2.51266807 L196.237764,8.03911956 L191.917041,12.4345159 L186.619884,15.6953113 L180.486945,16.403255 L170.730737,14.8431789 L163.901507,12.7158023 L155.396065,9.45737058 L146.474476,5.20616314 L141.596953,4.21102367 L134.207436,0.528298507 L131.421111,0.385291528 L131.280458,1.66171745 L133.508821,3.92737346 L132.954345,7.89847633 L131.001476,10.0223072 L127.378207,10.1653142 C127.378207,10.1653142 127.796679,10.4501463 125.705482,11.0162648 C123.613122,11.5835652 121.803231,11.0162648 121.803231,11.0162648 L118.31829,8.89007017 L114.971676,8.32276976 L108.281938,8.32276976 L100.894746,9.03307715 L92.5299566,9.74220266 L88.3487245,13.4272916 L84.7231302,13.994592 L80.8208794,13.0018163 L76.779138,8.18449029 L76.9186286,5.49217709 L79.8456073,1.8059063 L78.3123727,1.6640812 L69.1118022,5.06670179 L63.3950107,8.32395164 L60.3308662,10.3095031 L58.1001783,10.167678 L55.1708747,12.8599912 L51.5476052,13.1436414 L49.4552456,15.4104793 L48.7577924,15.1268291 L42.9061598,16.6869052 L37.6078402,17.6773171 C37.6078402,17.6773171 30.9169389,18.6700929 30.2206481,18.6700929 C29.5220325,18.6700929 23.1124374,17.8191423 23.1124374,17.8191423 L18.3697555,15.4104793 L16.1413924,12.8599912 L14.0490327,11.4417401 L11.2627071,8.46814049 L11.4021978,6.19893885 L10.5675787,5.6340022 L10.5675787,5.6340022 Z" id="Path" fill="#64B4D1"></path>
                    <path d="M93.8934777,76.3432708 L93.6958659,80.7670321 L96.8599787,79.9657203 L96.4647552,75.741696 L93.8934777,76.3432708 Z M98.047974,75.1377574 L98.047974,78.7566613 L99.4335811,78.7566613 L99.4335811,74.9368385 L98.047974,75.1377574 Z M101.213249,74.3340818 L101.213249,78.3560054 L103.189367,77.7520668 L102.991755,74.1331629 L101.213249,74.3340818 L101.213249,74.3340818 Z M105.365421,73.5280425 L105.565357,76.5441897 L107.341538,76.5441897 L107.541475,72.9252858 L105.365421,73.5280425 L105.365421,73.5280425 Z M109.321143,72.7243669 L109.321143,75.9437967 L112.087707,75.9437967 L111.693646,72.3213473 L109.321143,72.7243669 L109.321143,72.7243669 Z M113.670926,71.7197724 L113.670926,74.7359196 L116.044592,74.1331629 L115.451757,70.9137331 L113.670926,71.7197724 L113.670926,71.7197724 Z" id="Shape" fill="#5DB7D2"></path>
                </g>
                <g transform="translate(16.000000, 66.000000)" fill-rule="nonzero" stroke="#000000" stroke-width="0.456">
                    <polygon id="Path" fill="#FFFCFC" points="172.912658 51.8411758 172.912658 55.0345068 173.642659 55.461867 173.851895 56.5231451 177.077616 57.0573454 176.763762 55.9925061 174.67954 53.9708545 174.159937 52.4810291 172.912658 51.8411758"></polygon>
                    <path d="M107.003329,9.36868696 L106.468615,8.28129248 L108.243633,6.29169297 L111.60652,5.57111605 L114.263817,3.39870131 L117.630191,1.22747368 L121.173253,0.322894431 L125.779932,4.30209345 L124.186251,5.57230317 L122.589083,5.38948794 L119.57841,7.37908745 L117.276815,8.82736394 L115.328595,8.46529482 L113.554739,7.92278469 L112.493448,8.82736394 L110.89628,8.82736394 L109.654813,9.55150219 L107.003329,9.36868696 L107.003329,9.36868696 Z M128.617404,4.30090634 L130.387773,3.58032943 L133.04507,3.58032943 L134.463225,7.55834134 L134.463225,8.82617683 L136.76482,8.10203858 L141.018122,8.10203858 L144.028795,9.55031508 L146.686092,12.2640528 L149.520077,13.8939574 L151.821673,13.8939574 L151.821673,12.626122 L154.124431,12.626122 L154.657983,13.3502602 L157.136266,13.7111422 L158.90896,13.1698192 L159.440187,14.7985367 L159.086811,16.9673901 L158.553259,18.5984818 L159.262336,25.4718596 L162.452022,37.2313899 L168.475693,47.1841359 L166.174098,46.0967414 L161.03503,45.3726032 L159.439024,46.0967414 L157.315279,45.9163004 L154.834671,48.2667819 L153.593204,48.4472229 L152.531913,49.3529893 L150.582531,46.6392516 L143.14303,36.5084388 L141.193648,34.3372111 L136.942671,24.9305366 L131.095688,12.0836118 L130.739987,6.83539021 L129.324157,5.38711371 L128.615079,5.20667271 L128.615079,4.30090634 L128.617404,4.30090634 L128.617404,4.30090634 Z M126.490172,74.3215135 L129.50317,75.76979 L129.326482,74.3215135 L131.451389,75.76979 C131.451389,75.76979 133.399608,76.1318591 134.462062,75.950231 C135.523353,75.7686029 137.828436,73.4181213 137.828436,73.4181213 L138.537514,68.533156 L143.144192,60.3907556 L146.507079,58.4011561 L147.574183,58.2195279 L150.759219,54.6000238 L156.78289,51.344963 L159.618037,50.2587557 L164.224716,51.1633349 L167.59109,52.7920524 L168.300168,55.6874183 L168.832557,63.4665625 L170.957464,65.0976542 L172.730158,64.1907007 L174.323839,62.2011012 L178.220277,60.7516376 L181.056587,61.1113325 L180.877574,64.7320237 L179.638432,71.4273347 L177.690213,78.4823406 L174.501689,89.6981737 L171.491016,97.6613202 L164.04919,103.452052 L158.20337,107.248436 L148.813325,107.248436 L145.97934,104.535885 L149.522402,103.628932 L150.762706,101.461265 L151.117245,97.6613202 L147.929884,95.3096515 L144.74136,95.4900925 L140.48922,98.0245764 L138.892052,100.191056 L138.006287,102.726727 L136.413769,102.726727 L132.868381,102.543911 L130.209922,104.355444 L128.262865,106.883992 L127.730476,110.685125 L128.618567,113.401237 L130.565623,114.666698 L134.108686,114.48507 L134.996776,113.764493 L135.705854,113.764493 L132.515005,117.378061 L128.441878,121.722891 L123.126122,125.341208 L119.58306,126.425041 L113.736077,128.597456 L109.4851,130.588242 L104.700571,130.768683 L99.7405159,135.290393 L96.3741416,138.006505 L94.0713836,141.261565 L93.0077674,146.871856 L93.0077674,151.030309 L95.6627393,154.648626 L95.309363,155.73602 L93.7156824,155.550831 L92.8287544,154.830254 L88.9323157,154.830254 L87.8675372,153.200349 L85.9193178,153.563606 L83.0864953,154.466998 L81.8450286,155.737208 L79.7189587,154.648626 L80.9604254,151.393565 L81.1371136,148.318945 L80.251348,144.154557 L77.5940512,138.725894 L75.2924556,136.196159 L71.2158415,133.661675 L63.4206393,131.308819 L54.9186845,128.05732 L48.7183254,124.977952 L46.4155673,121.359635 L45.5286393,116.837925 L46.9467942,118.286202 L45.7053274,113.219608 L47.4768586,115.568903 L48.7206502,115.749344 L52.2625502,120.275801 L55.0976975,120.819499 L55.8067749,121.179194 L56.6902157,121.179194 L56.8680663,120.819499 L59.525363,122.267775 L62.538361,123.16998 L66.7881759,123.16998 L63.0684254,122.267775 L58.4617469,120.09536 L53.6783802,117.379248 L51.0210834,113.76568 L50.6653823,112.135775 L49.2483898,111.955334 L49.4274028,110.866753 L50.4898565,109.600104 L51.9080114,109.78292 L52.2625502,110.866753 L53.680705,110.321868 L55.9823007,112.134588 L59.8810642,112.493096 L62.7138867,112.856352 L60.2367653,111.409263 L56.3380018,109.238035 L52.4404007,105.618531 L51.198934,105.43809 L47.3001705,99.2888506 L45.175263,93.3176778 L43.4037318,86.9868101 L43.4037318,79.5673609 L45.7053274,73.5997495 L49.0717017,68.1698997 L51.019921,66.3595541 L52.614764,66.9020642 L56.6890533,63.8274445 L59.5230382,62.9240523 L63.2451136,63.1021191 L66.0790985,64.0078855 L70.1545502,65.275721 L72.1016071,67.8066435 L74.0498264,67.9894587 L74.5798909,69.4377352 L73.5185995,69.7986172 L74.9367544,71.7882167 L74.4043651,73.0548651 L75.6458319,74.6835826 L75.4691437,77.0340641 L73.1675481,79.748989 L74.7600663,82.4615397 L74.5810533,83.3684931 L76.530435,85.5397208 L78.3031286,88.2510843 L81.3138017,88.7947815 L88.4010889,88.9775968 L93.5366694,88.4327124 L96.5496674,88.2510843 L95.3082006,86.8028078 L97.4342705,86.2591106 L100.091567,85.7154133 L104.874934,81.9202166 C104.874934,81.9202166 108.595847,75.4041595 109.304924,74.4995803 C110.014002,73.5973752 111.429832,70.5191941 111.429832,70.5191941 L117.45234,64.1871394 L119.753936,63.2825601 L125.069692,60.5700095 L130.563299,60.5700095 L131.983778,62.1999141 L134.285374,62.5619832 L136.410281,65.2745338 L137.472735,72.6939831 L134.106361,75.0444646 L131.274701,75.0444646 L129.326482,73.7778162 L128.79293,74.8628365 L126.490172,74.3215135 L126.490172,74.3215135 Z M40.5220876,100.985233 C40.5220876,100.985233 40.9393971,100.135261 41.357869,100.135261 C41.7751785,100.135261 42.7120907,100.030795 42.7120907,100.030795 L42.8155463,94.4964799 C42.8155463,94.4964799 42.0867076,94.0738681 41.9809272,93.6465078 C41.8774717,93.2227088 41.8774717,91.2010573 41.8774717,91.2010573 L41.1497955,90.4555511 L41.0451775,68.1152926 L38.9609548,62.3720453 L37.190586,59.2879286 L35.7329088,58.1162492 L33.4406125,57.9061304 L30.8367872,59.6084488 L29.2733295,60.458421 L25.9395031,59.716476 L24.6910619,58.8629426 L22.7091323,58.7596639 L20.9387635,55.461867 L17.2945704,54.2901876 L15.6288196,53.7595486 L10.6292425,53.3321883 L9.17156523,53.2253483 L7.29425364,54.5038678 L5.10657536,57.1629984 L3.54544257,60.2459279 L3.33853144,65.2484174 L4.48351715,66.8438958 L4.48351715,69.1825062 L5.00544465,70.1393183 L5.00544465,72.1609699 L3.33853144,70.1393183 L1.67161824,65.9915494 L0.838161642,63.4392589 L0.109323025,64.5029111 L0.316234148,67.907548 L0.420852131,70.6711445 L1.35892672,73.2269963 L2.29583888,76.8405649 L3.8581341,81.414507 L5.10773779,86.3113435 L6.25504834,90.9885643 L8.44156419,95.2443604 L10.3165509,97.903491 L14.5884519,102.26494 L17.2957328,104.178564 L21.4618534,105.670764 L26.1487391,105.566298 L27.6052539,104.497897 L25.7302672,102.6923 C25.7302672,102.6923 25.4199005,101.524182 25.4199005,101.096822 C25.4199005,100.669462 26.0429587,98.5421572 26.0429587,98.5421572 L28.0225634,96.4136656 L33.7509792,95.3512004 L35.7305839,96.8410259 L38.3344093,99.8206767 L40.5220876,100.985233 L40.5220876,100.985233 Z M103.224295,14.0447207 L103.224295,17.0742302 L105.0028,16.6706121 L104.609902,14.0447207 L103.224295,14.0447207 L103.224295,14.0447207 Z M106.190796,13.2374846 L106.190796,15.6603799 L107.378791,15.6603799 L107.378791,13.0356756 L106.190796,13.2374846 Z M108.764398,13.0344884 L108.96201,15.2543877 L110.938127,14.8531438 L110.740516,12.2272524 L108.764398,13.0344884 Z M112.716633,11.4200163 L112.716633,14.4519 L113.904628,14.4519 L114.299852,11.4200163 L112.716633,11.4200163 L112.716633,11.4200163 Z M116.081845,10.8145892 L116.081845,13.4416678 L117.662739,13.6434768 L117.267515,10.8157763 L116.081845,10.8157763 L116.081845,10.8145892 Z M119.24712,10.006166 L119.24712,13.0344884 L120.828014,13.2362975 L120.828014,10.6115931 L119.24712,10.006166 Z M122.41007,8.99474672 L121.816073,12.4278743 L123.596903,12.4278743 L123.398129,9.8019828 L122.41007,8.99474672 Z M124.782574,8.99474672 L124.782574,11.8236343 L127.355014,10.610406 L126.957465,7.57852224 L124.782574,8.99474672 Z" id="Shape" fill="#CCCCCC"></path>
                </g>
                <polygon id="Path" fill="#76401B" fill-rule="nonzero" points="91.7420488 24 90 29 96 28.0734932"></polygon>
                <g transform="translate(85.000000, 36.000000)" fill-rule="nonzero" stroke="#000000" stroke-width="0.456">
                    <path d="M56.1601512,88.7405732 L50.5898248,90.3176597 L46.7468576,93.4658814 L41.7507677,98.7756043 L37.7148384,106.25278 L33.1046726,111.958857 L24.6492147,115.498672 L16.9632801,115.697445 L11.0070296,113.928727 L8.89374636,110.580543 L8.31718503,106.25397 L7.54998649,100.940676 L5.81914007,97.5972528 L3.1304579,94.251449 L0.0558516112,92.0875673 L3.32341996,77.9211649 L4.28358056,74.7729432 L4.28358056,70.6415717 L4.86014189,65.135457 L7.74178612,60.2161374 L10.6234304,57.4618898 L15.6183578,55.1016162 L24.4550902,52.7413426 L33.2953098,49.7907031 L42.5179662,47.6268214 L52.8937453,45.0677754 L57.3121115,44.6749916 L56.9285122,50.5786512 L58.0827973,52.7425329 L57.8886728,68.0872868 L56.9285122,81.6633233 L56.1601512,88.7405732 L56.1601512,88.7405732 Z M58.2757594,88.5441813 L63.6542861,89.7249132 L67.8808527,92.2839592 L69.6093742,94.8406247 L71.9156195,92.8731349 L72.8746177,89.5273311 L76.910547,87.1682478 L83.0597596,81.6597525 L77.8695452,73.5922113 L75.1797006,69.6572317 L71.5296954,65.3318489 L67.1101668,57.069106 L62.1140769,45.853343 L59.4242323,45.853343 L59.0406331,68.083716 L59.2335951,76.1488767 L58.2757594,88.5441813 Z" id="Shape" fill="#784421"></path>
                    <polygon id="Path" fill="#A05A2C" points="3.51405717 2.76734043 3.70818165 6.89990213 20.2320109 1.58779876 20.2320109 0.0130927934 3.51405717 2.76734043"></polygon>
                </g>
                <g transform="translate(28.000000, 134.000000)" id="Shape" stroke="#000000" stroke-width="0.456">
                    <path d="M13.3980764,0.42106516 L14.1420265,4.25001463 L16.6296097,8.84475399 L21.3536928,13.0530199 L17.3747222,10.1186848 L20.3586596,14.2028976 L15.2626014,10.8868604 L20.2342804,14.2028976 L15.0115182,6.54499867 L13.3980764,0.42106516 L13.3980764,0.42106516 Z M7.30582251,17.3877247 L5.44129756,19.4286383 L2.20743945,18.9193045 L2.33181861,23.1299561 L6.80714345,29.8932407 L2.33181861,23.5152367 L2.45736019,19.1793391 L5.56683914,19.4298311 L7.30582251,17.3877247 L7.30582251,17.3877247 Z M1.95984356,29.1274508 L0.964810291,26.1919229 L0.964810291,22.8758856 L1.95984356,29.1274508 Z"></path>
                </g>
                <g transform="translate(73.000000, 131.000000)" fill-rule="nonzero" stroke="#000000">
                    <path d="M15.4311525,16.1531375 L13.9397651,17.6616109 L11.4545068,18.2922987 C11.4545068,18.2922987 8.96808602,18.0404942 8.47056939,17.6616109 C7.97421518,17.2850809 5.23671128,15.6495286 5.23671128,15.6495286 L8.47056939,17.4098064 L14.1885234,17.4098064 L15.4311525,16.1531375 L15.4311525,16.1531375 Z M19.4101232,22.0693653 L20.0308565,25.7193531 L22.5161149,30.1200477 L24.1318815,32.2615621 L19.4101232,22.0693653 Z" id="Shape" stroke-width="0.456" fill="#666666"></path>
                    <polygon id="Path" stroke-width="0.456" fill="#808080" points="27.9887978 32.3874643 25.6244314 31.6367576 23.5111481 29.6187921 20.5272108 24.2108798 23.6355273 28.2373976 27.9887978 32.3874643"></polygon>
                    <polygon id="Path" stroke-width="0.137" fill="#666666" points="7.22677781 17.6627875 7.6010777 28.3597698 8.59494854 32.5133665 10.0828488 35.5338432 12.0752401 38.6813988 12.5715943 37.4235532 14.6848776 38.9332033 15.3090982 38.3013388 13.1934901 36.164531 11.0790444 33.2676032 9.83409044 30.2483032 8.46824454 25.0886654 7.97189033 19.5524975 9.70971128 19.5524975 9.21335707 18.5452798 7.22677781 17.6627875"></polygon>
                    <polygon id="Path" stroke-width="0.137" fill="#808080" points="54.2200135 34.5278021 58.1978217 34.1512721 61.9291965 31.0037165 62.5499298 28.8622021 64.2900756 27.6020032 64.0413173 31.2531677 64.910809 33.1428777 67.2716881 33.898291 68.7630756 35.2808621 71.3762004 35.5326666 75.1040878 33.1440543 77.8404293 30.2483032 80.2024709 28.1067887 81.9426167 27.3525521 82.5645125 23.8296431 83.6827625 23.8296431 83.9315208 22.1917376 83.4351666 19.047712 82.3157542 16.0260586 80.8255291 14.0139764 78.3379459 11.7477364 77.2208584 12.2525219 79.954875 14.8941153 82.1925374 17.7886898 82.3157542 22.3188165 81.6950208 24.0802709 78.3379459 27.9832398 73.9870003 32.7639943 71.873717 33.7712121 67.3983922 33.1440543 65.7814631 31.0025399 65.409488 29.4940665 64.9096466 27.9844165 64.9096466 26.222962 65.5327048 24.9639398 60.9341632 30.2471265 59.0684758 30.3718521 54.2200135 34.5278021"></polygon>
                    <polygon id="Path" stroke-width="0.228" fill="#808080" points="114.019653 1.55671627 115.014686 0.675400709 116.132936 2.31330626 116.384019 6.84225631 116.507236 6.96933519 116.507236 9.98863523 114.768253 13.262093 111.036878 17.2886108 106.687095 19.1736142 102.706962 19.6772231 99.9717825 19.051242 98.9767492 17.4133364 98.3560159 15.7777842 98.3560159 12.0042474 99.1022908 10.4934208 99.3510491 11.2464808 99.22667 15.4012542 100.592516 17.0368064 103.452074 17.9157686 106.061712 17.037983 109.17119 16.1554908 111.780828 14.6458408 111.90637 13.7645253 110.911336 13.638623 111.160095 13.262093 112.651482 13.262093 114.516007 9.48502634 115.13674 6.33747077 115.13674 3.82177962 114.39279 3.06754294 114.01849 2.43920848 114.01849 1.55671627"></polygon>
                    <polygon id="Path" stroke-width="0.456" fill="#666666" points="15.5543693 59.823559 9.33773623 62.8440357 3.6186198 64.6043135 0.510303274 64.1018812 6.60139475 66.3669446 8.96459875 64.4807646 12.6936486 62.5910546 15.5543693 59.823559"></polygon>
                    <path d="M20.403994,72.5326236 L23.7599064,73.5398413 L25.3756731,74.1705291 L28.8571271,74.6729613 L26.2463272,76.3073369 L29.6010772,77.0603969 C29.6010772,77.0603969 26.3718688,77.4404569 25.8731897,77.4404569 C25.3745107,77.4404569 23.6343649,78.5712236 23.6343649,78.5712236 C23.6343649,78.5712236 23.2623898,80.5891892 24.3806398,80.4609336 C25.5023771,80.3338547 27.1146564,80.0808736 27.7365522,80.0808736 C28.358448,80.0808736 30.3485146,80.4609336 30.3485146,80.4609336 L31.5923061,81.4681514 L30.8460312,82.6024481 L25.623269,82.7271736 L26.3718688,83.3578614 L30.5984353,83.3578614 L26.4974103,86.125357 L31.4667646,85.9971015 L35.4457352,87.635007 L35.4457352,88.6422248 L31.5923061,89.524717 L30.721652,88.0103604 L25.7488106,89.3964615 L24.7549397,90.6554837 L22.8892523,89.3964615 L24.3806398,86.125357 L24.2562607,82.7271736 L23.5099857,80.0820503 L21.7710023,76.183788 L20.403994,72.5326236 L20.403994,72.5326236 Z" id="Path" stroke-width="0.183" fill="#999999"></path>
                </g>
                <g transform="translate(23.000000, 34.000000)" fill-rule="nonzero" stroke="#000000">
                    <path d="M44.0430086,0.263671308 L40.0384647,0.755019243 L37.2068046,1.10699445 L35.3411172,2.2314253 L33.822994,1.31723467 L32.9244418,1.87826897 L29.5406312,0.0534310857 L25.6023454,2.2314253 L23.7378204,3.91334707 L22.566099,3.91334707 L21.6663844,2.72041098 L19.8704423,3.98657681 L18.8347243,2.93301345 L17.7304233,2.30229279 L10.2711611,7.77562531 L7.57782926,6.86261581 L6.403783,7.91617917 L5.91789059,8.33665961 L5.64355899,9.52959571 L4.53693321,6.57914585 L3.57212292,7.280734 L1.9145091,6.7196997 L0.740462838,8.40516485 L0.463806393,12.8261151 L1.15428508,18.369134 L2.95138955,24.4755495 L4.60784096,27.0007944 L5.98879834,27.280721 L6.403783,25.5267506 L7.16400702,28.8244511 L8.26830795,29.9465198 L8.61470972,35.9112002 L13.1039836,46.1574582 L13.5178059,51.4205505 L13.724717,60.5423777 L12.0671032,62.5798181 L9.92824662,65.8786997 L9.9956671,66.8578522 L7.78706523,71.1394298 L7.92306861,77.6663257 L8.40896102,78.22736 L8.54845166,84.4731482 L10.273486,84.6125209 L11.6544433,86.1562511 L14.694177,85.8775056 L14.694177,83.9818002 L15.1079992,86.1562511 L17.5246746,89.3866275 L19.5972731,91.0685493 L21.045651,91.1394168 L21.805875,90.0173482 L21.7361297,83.0002855 L22.2196972,90.7189363 L23.7389828,90.6480688 L25.6744155,88.8952796 L28.2305816,88.5433044 L29.0593885,88.6141719 C29.0593885,88.6141719 29.7498672,89.0346523 30.0951065,89.665373 C30.4403459,90.2960936 31.6841375,90.8606713 31.6841375,90.8606713 L32.5826897,92.7551956 L33.6869906,93.1768571 L34.2391411,91.9815588 L33.4812419,77.0344239 L32.7210179,64.8251364 L31.892211,49.3181483 L31.0622417,29.5260393 L30.9239135,23.2117459 L29.9567783,22.3696039 L30.0265236,20.3345258 L32.3757786,19.6329376 L33.7555735,19.2124572 L33.1336778,17.319114 L32.4443615,11.0024584 L32.4443615,8.6165862 L33.2743308,7.91617917 L34.9319446,7.8464928 L36.1059909,9.24966912 L38.3843381,18.8616631 L39.5595468,19.2833247 L43.7024189,19.2124572 L53.0959514,34.301327 L56.4100166,39.3541791 L60.9690359,47.9846584 L66.9090125,56.6163187 L68.7746998,59.1415636 L70.0184914,59.2844797 L70.4323137,50.090604 L73.0593875,47.7755993 L70.8472983,31.9154549 L69.0525187,31.5658419 L66.566098,29.2508372 L65.1851406,29.4598963 L63.8041832,31.774901 L62.0791489,29.8106904 L61.8699129,27.5641909 L60.280882,26.514171 L59.1091606,26.514171 L57.5875502,24.4094065 L56.7599057,24.196804 L55.793933,25.1098135 L55.5858594,17.9533781 L54.0665738,14.5859912 L53.7910798,12.5509131 L50.9594197,8.47957572 L47.9905938,7.77798756 C47.9905938,7.77798756 46.6793818,4.75903246 46.6793818,4.33855202 C46.6793818,3.91807157 46.123744,2.44402777 46.123744,2.44402777 L44.0430086,0.263671308 L44.0430086,0.263671308 Z" id="Path" stroke-width="0.228" fill="#E4CB5E"></path>
                    <polygon id="Path" stroke-width="0.456" fill="#DCC56A" points="46.5282669 96.2607741 44.5265761 93.6658428 43.8360975 90.9291765 43.559441 85.0341825 42.9387076 79.4179338 41.8332443 70.7177682 40.0373022 59.9813434 38.5889244 51.2799967 38.0344491 46.1574582 36.8615652 40.1219103 36.3779977 35.9808866 35.8932677 32.5426322 35.4794454 27.6315151 36.8604028 32.0524653 39.1410748 42.3672286 41.6937536 49.5248452 42.7294717 54.367457 42.7294717 57.1041233 44.5265761 61.0313634 45.7006224 66.0157102 48.1172978 76.5407137 50.6723015 85.1747363 51.9835135 91.4181622 52.1904246 93.8040344 49.4970928 94.718225 48.1858807 95.3477646 46.5282669 96.2607741"></polygon>
                    <polygon id="Path" stroke-width="0.456" fill="#E2CC75" points="59.9960886 94.1583719 61.4491162 87.0704417 63.1753129 81.6667955 63.9343745 78.0171198 64.4865249 75.0713944 64.3470343 70.6504441 63.172988 68.0531506 57.7874867 57.0367992 54.540842 50.3705305 53.2273051 46.931095 50.8117921 42.6495174 47.5663098 35.7718275 44.6649044 30.6516513 42.248229 26.4397601 39.9698818 23.3499375 39.2805655 23.9842015 41.3496767 31.8434063 43.0758734 38.5781801 44.7346497 46.0169044 47.4965644 55.7706333 49.0855954 62.5089506 50.6734639 66.6487931 52.1927495 72.4729197 56.4053669 86.3688535 57.2353363 90.0173482 59.3079348 94.2292394 59.9960886 94.1583719"></polygon>
                    <path d="M38.3587648,97.9545071 L36.1815483,100.163211 L36.3791601,100.968738 L38.9504376,100.968738 L39.7443719,99.1592545 L38.3587648,97.9545071 L38.3587648,97.9545071 Z M35.7851624,94.9379143 L36.1803859,97.3497712 L37.9612165,97.14898 L38.9492752,95.341859 L38.7516635,93.9339582 L36.9731577,94.3367217 L35.7851624,94.9379143 L35.7851624,94.9379143 Z M40.1361081,93.9339582 L40.7301058,95.5402879 L44.0929927,95.5402879 L44.0929927,94.3355406 L42.7097105,93.7331669 L40.1361081,93.9339582 L40.1361081,93.9339582 Z M39.7432095,90.9209087 L39.9384964,92.7280297 L42.314487,92.7280297 L43.5001575,91.1181565 L42.1168753,89.9134092 L39.7432095,90.9209087 L39.7432095,90.9209087 Z M34.993553,91.5221012 L34.5983295,92.7292108 L35.7863248,93.3315845 L38.3599272,92.7292108 L38.3599272,91.7228924 L34.993553,91.5221012 L34.993553,91.5221012 Z M34.993553,88.5078706 L34.993553,89.9157714 L37.565993,90.1165627 L38.3576024,88.9106342 L37.3672188,88.1074693 L34.993553,88.5078706 Z M40.1361081,87.3031233 L39.7443719,88.5078706 L42.1157128,89.1114254 L43.3013833,88.1074693 L41.52404,86.8991786 L40.1361081,87.3031233 L40.1361081,87.3031233 Z M35.1934896,84.0869203 L34.7982661,85.8952225 L36.3791601,86.0960137 L37.7647672,85.0920576 L37.9623789,83.686519 L36.3791601,83.4833655 L35.1934896,84.0869203 Z M39.5444353,83.2825743 L39.5444353,85.0896953 L42.1168753,85.6908879 L42.1168753,83.0782397 L40.9300424,82.6790195 L39.5444353,83.2825743 Z M37.1696071,80.2671626 L34.7971037,80.2671626 L34.5960047,83.0782397 L37.3660564,81.8734924 L37.1696071,80.2671626 Z M39.146887,79.4628166 L38.1588282,81.4730911 L40.9277175,81.4730911 L42.1157128,78.8628051 L40.532494,78.4588605 L39.146887,79.4628166 L39.146887,79.4628166 Z M38.5540517,76.0470035 L38.7551507,77.6556956 L41.3275907,77.2541131 L40.3348823,75.2450198 L38.5540517,76.0470035 L38.5540517,76.0470035 Z M35.9827742,76.6517394 L34.2042685,76.250157 L34.404205,78.4612227 L36.9743202,78.0596403 L35.9827742,76.6517394 L35.9827742,76.6517394 Z M34.2042685,73.0327729 L34.0066567,75.0442285 L37.1707695,75.0442285 L36.5779343,73.0327729 L34.2042685,73.0327729 Z M37.9623789,72.0276357 L37.9623789,74.4394926 L40.9288799,74.4394926 L40.3337199,72.0276357 L37.9623789,72.0276357 L37.9623789,72.0276357 Z M36.3791601,70.2193335 L34.4030426,72.6288282 L33.6102708,70.620916 L34.993553,68.2078779 L36.3791601,70.2193335 Z M38.1588282,68.4098503 L37.7636047,70.4213059 L40.3325574,70.4213059 L40.3325574,68.4098503 L39.3468235,67.8074766 L38.1588282,68.4098503 Z M34.993553,66.0003556 L33.6102708,66.0003556 L33.412659,67.6090476 L35.784,67.6090476 L34.993553,66.0003556 Z" id="Shape" stroke-width="0.456" fill="#DDD690"></path>
                    <path d="M37.7647672,65.3956197 L37.3695437,67.2039218 L39.347986,67.2039218 L39.347986,65.3956197 L37.7647672,65.3956197 Z M37.1696071,61.7778343 L36.7743836,63.5849553 L39.5421104,63.5849553 L39.7432095,61.9786255 L37.1696071,61.7778343 L37.1696071,61.7778343 Z M34.0066567,62.5821803 L33.6114332,65.1948285 L35.9827742,64.1920535 L35.9827742,62.7853338 L34.0066567,62.5821803 L34.0066567,62.5821803 Z M33.8078825,58.965576 L33.0174356,60.5719058 L34.203106,61.1766417 L35.194652,59.7687409 L34.7982661,58.5639936 L33.8078825,58.965576 Z M37.0742885,57.6108258 L36.4489054,58.9431347 L37.4741616,60.7384444 L38.9004535,60.3900126 L38.959737,58.3620212 L37.3602443,57.5494073 L37.0742885,57.6108258 Z M33.7102391,55.57811 L33.1941237,57.0285313 L34.2217048,57.9545332 C34.2217048,57.9545332 35.076085,57.6096447 35.076085,57.3167258 C35.076085,57.0285313 35.3620408,56.1001672 35.3620408,56.1001672 L34.2228672,55.4033035 L33.7102391,55.57811 L33.7102391,55.57811 Z M36.4489054,54.8257335 L36.1059909,56.4497801 L36.9045748,56.9718373 L38.3308667,57.0875875 C38.3308667,57.0875875 38.3878254,55.9855981 38.3878254,55.5792911 C38.3878254,55.1753464 37.3602443,54.7111643 37.3602443,54.7111643 L36.4489054,54.8257335 Z M33.4242833,52.6217545 L33.3080411,54.24462 L34.5076606,54.5351767 C34.5076606,54.5351767 35.1353685,53.8997316 35.1353685,53.6682311 C35.1353685,53.4367306 34.5634569,52.3926163 34.5634569,52.3926163 L33.4242833,52.6217545 L33.4242833,52.6217545 Z M36.1059909,52.1575724 L35.8769938,53.4922435 C35.8769938,53.4922435 36.334988,54.1276887 36.9057373,54.1276887 C37.4753241,54.1276887 37.7031588,53.5489375 37.7031588,53.3186182 C37.7031588,53.0847554 37.4741616,52.0996973 37.4741616,52.0996973 L36.1059909,52.1575724 Z M33.3092035,50.3610815 L32.9116551,51.6957526 L34.0508287,52.2154476 L34.9075338,51.0579452 L33.9938701,50.4225 L33.3092035,50.3610815 L33.3092035,50.3610815 Z M35.9909111,49.5496488 L35.8211975,50.7662074 C35.8211975,50.7662074 36.6174566,51.3449585 36.9045748,51.1713332 C37.1905307,50.9977078 37.5311203,50.2453313 37.5311203,50.2453313 L36.5023768,49.5496488 L35.9909111,49.5496488 Z M32.5106195,46.940544 L32.2258261,48.4476593 C32.2258261,48.4476593 33.0802063,49.2590921 33.3080411,49.144523 C33.5382006,49.0264105 34.7354953,48.6791598 34.7354953,48.6791598 L34.1077874,47.1732256 C34.1077874,47.1732256 33.3673246,46.9984191 33.1394899,46.9984191 C32.9104927,46.9984191 32.4536609,46.9984191 32.5106195,46.940544 Z M35.478283,46.1869864 L35.1376933,47.6350454 L37.0754509,47.9846584 C37.0754509,47.9846584 37.3614067,46.3594306 36.9638584,46.3594306 C36.5604979,46.3606117 35.5922004,46.2448615 35.478283,46.1869864 Z M32.682658,44.2168701 L32.3409059,45.0873591 L33.3092035,45.8397356 L34.1077874,45.3779158 L33.5939969,44.2747452 L32.682658,44.2168701 Z M35.5910379,43.6369378 L34.8517375,44.7979835 L36.0490322,45.3164973 L37.0742885,44.5074268 L35.5910379,43.6369378 Z M32.7396167,41.0868893 L32.2258261,41.9573783 L32.7965754,42.882199 L33.7102391,42.1286414 L32.7396167,41.0868893 L32.7396167,41.0868893 Z M34.7936164,40.506957 L34.337947,41.1447644 L35.0226136,42.0707663 L36.1617872,41.4329589 L36.2768669,40.9132639 L35.7630764,40.2754565 L34.7936164,40.506957 L34.7936164,40.506957 Z M32.4536609,38.709285 L31.9398703,39.9258436 L33.0790439,40.563651 L33.7102391,39.7533993 L33.3092035,38.8250352 L32.4536609,38.709285 Z M34.621578,37.5494204 L33.9938701,38.3632154 L34.8505751,39.2313421 L35.93279,38.5935347 L35.1934896,37.6651706 L34.621578,37.5494204 L34.621578,37.5494204 Z M32.4536609,36.6789314 L31.9979914,36.6789314 L31.9979914,37.6639895 L33.3092035,37.5482392 L33.0802063,36.5631811 L32.4536609,36.6789314 Z M34.2228672,35.5202479 L34.1647461,36.6210562 L35.3620408,36.4474309 L35.3050821,35.4635539 L34.2228672,35.5202479 Z M32.1688675,34.6521211 L31.7713191,35.2308723 L32.4536609,36.1592364 L33.1394899,35.5190668 C33.1394899,35.5190668 33.3673246,34.6521211 33.1394899,34.6521211 L32.1688675,34.6521211 L32.1688675,34.6521211 Z M32.2827848,32.7386989 L31.7713191,33.2016998 L32.3967022,33.8395072 L33.1952861,33.4343814 L32.2827848,32.7386989 Z M32.4536609,31.2906398 L31.825953,32.2166417 L32.9116551,32.2166417 L32.4536609,31.2906398 Z M33.8799527,31.8103348 L33.9938701,32.7386989 L34.9075338,32.7386989 L33.8799527,31.8103348 L33.8799527,31.8103348 Z M33.9369114,33.3186312 C33.9369114,33.3186312 33.7114015,34.5351898 33.9369114,34.5351898 C34.1659085,34.5351898 34.7936164,34.3603833 34.7936164,34.3603833 L33.9369114,33.3186312 L33.9369114,33.3186312 Z" id="Shape" stroke-width="0.456" fill="#E2D67E"></path>
                    <polygon id="Path" stroke-width="0.456" fill="#D3C55F" points="64.2900756 61.3183767 63.0369847 63.0569925 63.150902 64.8558456 64.806191 66.420836 66.3464002 64.2168571"></polygon>
                    <path d="M66.5161138,58.8238411 L64.9759046,61.0868763 L66.4591551,63.4644806 L67.9993643,62.4806036 C67.9993643,62.4806036 68.2271991,60.5057628 67.9412432,60.157331 C67.6552874,59.8112614 66.4591551,58.7659659 66.5161138,58.8238411 L66.5161138,58.8238411 Z" id="Path" stroke-width="0.456" fill="#D3C75F"></path>
                    <path d="M63.6623677,55.6359851 C63.6623677,55.6359851 62.9788636,56.6789183 62.9788636,56.9127811 C62.9788636,57.1442815 63.3787367,58.8238411 63.3787367,58.8238411 L64.3481967,60.100637 C64.3481967,60.100637 65.4292492,59.7522052 65.544329,59.4037733 C65.6582464,59.0588849 66.059282,57.7218516 66.059282,57.7218516 L64.7480699,55.9820547 L63.6623677,55.6359851 L63.6623677,55.6359851 Z" id="Path" stroke-width="0.456" fill="#E2D67E"></path>
                    <path d="M61.2666159,58.1293396 L60.9806601,58.7080908 C60.9806601,58.7080908 60.8121089,60.1018181 61.1526985,60.3321375 C61.4944506,60.5648191 62.5208693,61.6668085 62.5208693,61.6668085 C62.5208693,61.6668085 63.4310457,61.0880574 63.4310457,60.7963195 C63.4310457,60.5045817 62.7475416,58.7080908 62.7475416,58.7080908 L61.9512825,57.8978392 L61.2666159,58.1293396 L61.2666159,58.1293396 Z" id="Path" stroke-width="0.456" fill="#D3C95F"></path>
                    <path d="M58.9266603,54.1300509 L58.4721533,55.2296782 L59.0417401,56.7379746 L60.1262799,57.8387829 C60.1262799,57.8387829 61.3235746,57.6096447 61.3235746,57.3746009 L61.3235746,55.7517353 L60.5796245,54.4773016 L59.3253711,53.8985505 L58.9266603,54.1300509 L58.9266603,54.1300509 Z M61.4944506,53.0859366 L61.2096572,53.9552444 C61.2096572,53.9552444 61.324737,55.1741653 61.5514093,55.2875533 L62.6929077,55.8686667 L63.4891668,54.5339956 L62.6929077,52.853255 L61.4944506,53.0859366 Z M60.2413597,50.3055687 L59.669448,51.5800024 L60.0123625,52.5048231 L60.8121089,52.9123112 C60.8121089,52.9123112 61.7222853,52.4481291 61.7222853,52.2154476 L61.7222853,51.0000701 L60.6970291,50.3610815 L60.2413597,50.3055687 L60.2413597,50.3055687 Z M57.6154483,51.2315706 L56.8749854,52.2166287 L57.1609413,53.4355495 L58.4151946,53.8406753 L59.2695748,52.796561 L58.5837458,51.406377 L57.6154483,51.2315706 L57.6154483,51.2315706 Z M56.642501,48.6212847 L56.017118,49.2000358 L56.017118,49.9559557 L56.986578,50.7106945 L57.8979168,50.2453313 L57.6700821,49.201217 L57.2167375,48.5043533 L56.642501,48.6212847 L56.642501,48.6212847 Z M59.1556575,47.8689081 L58.7557843,48.7960911 L59.3253711,50.0126497 L60.2413597,49.4917737 L60.0669964,48.4476593 L59.1556575,47.8689081 Z M57.4434098,45.3779158 L57.2178999,47.4637823 L58.6418669,47.2322818 L58.9847814,46.1314735 L58.4733157,45.3188596 L57.4434098,45.3779158 Z M55.9589969,45.8397356 C55.7311622,45.8964296 54.9337406,45.9554859 54.9337406,45.9554859 L55.1627378,48.0413524 L56.0729142,47.9279644 L56.4169912,47.1732256 L56.3019114,46.2460426 L55.9589969,45.8397356 L55.9589969,45.8397356 Z M54.2490741,43.752688 L53.5655699,44.6231771 L54.2490741,45.7806794 L54.876782,45.6649292 L55.2743303,44.7968024 L54.2490741,43.752688 Z M56.471625,43.1703935 L55.9020382,43.809382 L56.3600325,44.5062457 L56.9296193,44.5641208 L57.4992061,43.8672572 L56.9877404,43.231812 L56.471625,43.1703935 L56.471625,43.1703935 Z M52.8227822,41.6668216 L52.422909,42.7664488 L53.5074488,43.0570055 L53.7910798,42.361323 L53.4504901,41.7223344 L52.8227822,41.6668216 L52.8227822,41.6668216 Z M54.7059059,41.0868893 L54.593151,42.361323 L55.7904457,42.2443916 L55.6753659,41.2026395 L54.7059059,41.0868893 Z M51.4534491,39.6376491 L51.5115702,40.7372763 L52.7077024,40.7372763 C52.7077024,40.7372763 53.1075756,39.4628426 52.5926227,39.5207177 C52.0799945,39.579774 51.5673664,39.693162 51.4534491,39.6376491 L51.4534491,39.6376491 Z M53.7364459,39.1144108 L53.7364459,40.2152191 L54.9906993,40.0415938 L54.7059059,39.0577168 L53.7364459,39.1144108 Z M52.0799945,37.9557273 L50.8257412,37.9557273 L50.9977796,39.0565357 L52.1369532,38.9407854 L52.0799945,37.9557273 L52.0799945,37.9557273 Z M52.8797409,37.2009885 L52.7077024,38.2451029 L54.0212393,38.1872278 L54.0212393,37.2009885 L52.8797409,37.2009885 L52.8797409,37.2009885 Z M51.6254875,35.5202479 L51.5673664,36.7368065 C51.5673664,36.7368065 52.9936583,36.9683069 52.9936583,36.7368065 C52.9936583,36.505306 52.7077024,35.6950544 52.7077024,35.6950544 L51.6254875,35.5202479 L51.6254875,35.5202479 Z M50.8257412,35.6359981 L49.6842427,35.6359981 L49.8004849,36.9683069 L51.1686557,36.9683069 L51.3395317,36.0423051 L50.8257412,35.6359981 L50.8257412,35.6359981 Z M48.1451959,31.6945845 L47.5732843,32.2733357 L49.3436531,35.1151221 L50.425868,35.1151221 L49.4006117,33.6658819 C49.4006117,33.6658819 49.5703254,32.9713805 49.2866944,32.8568114 C49.0030634,32.7410611 48.7752287,32.7410611 48.7752287,32.7410611 L48.1451959,31.6945845 L48.1451959,31.6945845 Z" id="Shape" stroke-width="0.456" fill="#E2D67E"></path>
                    <path d="M48.3707058,30.592595 L47.9731575,31.1146522 L50.0852783,32.5627113 L50.0852783,33.7792699 L51.0547383,34.707634 L51.8509974,34.9367722 L51.5673664,33.9528952 L51.1686557,32.853268 L50.3677469,32.2142795 L49.8004849,31.1725273 C49.8004849,31.1725273 49.5145291,31.1134711 49.285532,31.055596 C49.0600221,30.9977209 48.8310249,30.649289 48.8310249,30.649289 L48.3707058,30.592595 Z" id="Path" stroke-width="0.456" fill="#E2D67E"></path>
                </g>
                <g transform="translate(28.000000, 38.000000)" stroke="#000000" stroke-width="0.456">
                    <polyline id="Path" fill="#000000" fill-rule="nonzero" points="19.4090161 6.35258272 19.2079171 15.802862 19.8019148 18.8190092 19.8019148 24.0499918 19.9995265 32.0938388 19.9995265 37.5233765 15.4498067 31.8893743 20.1971383 37.9240324 20.9875852 43.754226 22.176743 45.9690613 21.386296 48.9852085 21.5839077 54.0117265 21.5839077 68.2887868 17.0330255 57.0278737 17.4294114 80.3557393 17.8257973 66.8835365 19.4090161 64.4677822 21.9802937 71.1075608 22.3755172 74.1237079 21.7803571 62.860431"></polyline>
                    <path d="M0.814913202,5.54772526 L0.0244662162,11.5823834 L1.60768503,15.802862 L1.8064592,21.6366013 L1.60768503,15.2012872 L0.0244662162,11.9842212 L0.814913202,5.54772526 Z M6.55146596,9.167811 L6.55146596,16.8098203 L7.93474818,18.6180903 L7.54184953,26.6631193 L8.72752001,29.0753279 L8.72752001,42.3477937 M14.6593597,0.119369461 L13.0784657,3.13433476 L13.6713009,8.56505431 L14.0665244,12.3860589 L13.4736892,18.4159896 M50.6595702,14.7970857 L50.4584712,24.0488099 L51.4476923,29.074146 L52.2404641,34.5036837 M59.1615249,28.2716523 L60.9411931,48.3824518 M8.32997167,58.2369327 L8.72519517,69.9008655 L9.51680457,74.9297473 L9.71441632,80.3569212" id="Shape"></path>
                </g>
                <g transform="translate(90.000000, 90.000000)" fill="#D38D5F" fill-rule="nonzero" id="Shape" stroke="#000000" stroke-width="0.456">
                    <path d="M6.1189896,27.5516895 L6.1189896,25.4984758 L14.8220434,23.4452621 L13.4364363,24.4724718 L13.6340481,30.6272903 M29.8533228,22.4216694 L29.8533228,19.7535766 L38.5563766,18.1138992 L36.5767718,18.5238185 L36.9719953,24.8823911 M11.063933,42.3208427 L11.063933,40.267629 L18.3825421,38.8341169 L18.1837679,46.4236532 M28.4688781,39.4502016 L28.4688781,36.1660242 L36.3791601,34.7313065 L36.775546,41.9085121 M2.75726507,12.5751653 L2.75726507,17.7039798 L0.977596933,18.1138992 L0.977596933,15.6519718 L2.75726507,12.5751653 Z M6.91176143,11.7529153 L7.10937318,16.8829355 L5.72376611,16.8829355 L5.32854262,12.369 L6.91176143,11.7529153 L6.91176143,11.7529153 Z M10.072387,10.7293226 L8.68910473,11.5491613 L8.68910473,15.6507661 L10.6698719,15.2408468 L10.072387,10.7293226 L10.072387,10.7293226 Z M13.8328222,9.29339919 L12.4472152,10.5243629 L12.4472152,14.217254 L14.6221068,14.0122944 L13.8328222,9.29339919 Z M18.1837679,8.26618952 L16.2041632,9.08602823 L16.2041632,13.1900444 L18.3837045,12.780125 L18.1837679,8.26618952 Z M22.3382643,7.03522581 L20.5585962,7.24259677 L20.5585962,12.3714113 L22.7358126,11.9602863 L22.3382643,7.03522581 L22.3382643,7.03522581 Z M27.6772687,6.01042742 L25.7011512,6.83026613 L25.898763,10.3157863 L27.8748805,9.7021129 L27.6772687,6.01042742 Z M32.6222121,4.57570968 L30.6460946,5.60050806 L30.6460946,9.08843952 L32.4246003,9.08843952 L32.6222121,4.57570968 L32.6222121,4.57570968 Z M36.5790967,3.34354032 L34.9958779,4.16337903 L34.9958779,8.06122984 L36.9754826,8.06122984 L36.5790967,3.34354032 Z M40.9288799,2.93482661 L39.3456611,3.959625 L39.3456611,7.03402016 L41.52404,7.03402016 L40.9288799,2.93482661 L40.9288799,2.93482661 Z M45.677374,1.29153226 L43.8965434,2.11378226 L44.0953176,5.18817742 L45.8749857,4.77946371 L45.677374,1.29153226 L45.677374,1.29153226 Z M50.8187666,0.0605685484 L48.8403243,1.08536694 L48.8403243,4.36954435 L51.216315,4.16458468 L50.8187666,0.0605685484 Z"></path>
                </g>
                <g transform="translate(86.000000, 96.000000)" id="Path" stroke="#000000">
                    <line x1="7.63013825" y1="50.2907314" x2="38.2843698" y2="43.1886862" stroke-width="0.913" fill="#FFFCFC" fill-rule="nonzero"></line>
                    <polyline stroke-width="0.913" fill="#C87137" fill-rule="nonzero" points="0.111592516 30.6032513 3.27919257 31.0088098 55.4940281 18.8313191"></polyline>
                    <polyline stroke-width="0.867" fill="#C87137" fill-rule="nonzero" points="3.0804184 16.8047194 11.1894745 15.5832726 56.2844751 3.40697473"></polyline>
                    <line x1="58.2629174" y1="1.58196144" x2="65.9755876" y2="0.160121011" stroke-width="1.187"></line>
                    <line x1="58.2629174" y1="18.2229814" x2="75.272639" y2="13.5566729" stroke-width="1.324" fill="#FFFCFC" fill-rule="nonzero"></line>
                </g>
            </g>
            <path d="M891,304 L891,604.999932 C894.496165,648.097064 982.638661,675.227988 1044.09291,721 C1124.69803,665.909817 1202.87611,654.766463 1206.0194,593.002134 L1207,304 L891.005823,304 L891,304 Z" id="Path" stroke="#000000" stroke-width="8.216"></path>
        </g>
    </g>
</svg>