<?xml version="1.0" encoding="UTF-8"?>
<svg width="1001px" height="688px" viewBox="0 0 1001 688" version="1.1" xmlns="http://www.w3.org/2000/svg" xmlns:xlink="http://www.w3.org/1999/xlink">
    <!-- Generator: Sketch 63.1 (92452) - https://sketch.com -->
    <title>Artboard</title>
    <desc>Created with Sketch.</desc>
    <g id="Artboard" stroke="none" stroke-width="1" fill="none" fill-rule="evenodd">
        <g id="CAN" transform="translate(1.000000, 0.000000)" fill-rule="nonzero">
            <rect id="Rectangle" fill="#FF0000" x="0" y="0" width="1000" height="688"></rect>
            <rect id="Rectangle" fill="#FFFFFF" x="250" y="0" width="500" height="688"></rect>
            <path d="M499.99228,140.875 L465.87916,204.50029 C462.0083,211.4153 455.07289,210.77392 448.13747,206.91167 L423.44048,194.12309 L441.84753,291.8502 C445.71839,309.70439 433.29894,309.70439 427.16988,301.98455 L384.06883,253.73356 L377.07145,278.23656 C376.26453,281.45433 372.71664,284.834 367.39397,284.02917 L312.8922,272.57005 L327.20744,324.6148 C330.27195,336.19534 332.66234,340.99008 324.11369,344.04439 L304.6875,353.17464 L398.50877,429.38302 C402.22227,432.26453 404.09848,437.45002 402.77645,442.14512 L394.56509,469.09219 C426.86914,465.36848 455.81407,459.76625 488.13448,456.316 C490.98771,456.01141 495.76436,460.72008 495.74477,464.02658 L491.46453,562.75 L507.17092,562.75 L504.69855,464.2383 C504.67885,460.9318 509.01227,456.01141 511.8655,456.316 C544.18591,459.76626 573.13088,465.36848 605.43492,469.09219 L597.22358,442.14512 C595.90155,437.45002 597.77775,432.26453 601.49125,429.38302 L695.3125,353.17464 L675.88633,344.04439 C667.33766,340.99008 669.72805,336.19534 672.79256,324.6148 L687.10783,272.57005 L632.60603,284.02917 C627.28336,284.834 623.73547,281.45433 622.92853,278.23656 L615.93116,253.73356 L572.83013,301.98455 C566.70105,309.70439 554.28159,309.70439 558.15245,291.8502 L576.55947,194.12309 L551.86253,206.91167 C544.92694,210.77392 537.9917,211.4153 534.12083,204.50029" id="Path" fill="#FF0000"></path>
        </g>
    </g>
</svg>