<?xml version="1.0" encoding="UTF-8"?>
<svg width="800px" height="550px" viewBox="0 0 800 550" version="1.1" xmlns="http://www.w3.org/2000/svg" xmlns:xlink="http://www.w3.org/1999/xlink">
    <!-- Generator: Sketch 63.1 (92452) - https://sketch.com -->
    <title>Artboard</title>
    <desc>Created with Sketch.</desc>
    <g id="Artboard" stroke="none" stroke-width="1" fill="none" fill-rule="evenodd">
        <g id="ARG" fill-rule="nonzero">
            <rect id="Rectangle" fill="#74ACDF" x="0" y="0" width="800" height="550"></rect>
            <rect id="Rectangle" fill="#FFFFFF" x="0" y="191.67" width="800" height="166.67"></rect>
            <g id="rays" transform="translate(334.000000, 270.000000)">
                <path d="M62.84,6.31 L91.294,68.302 C91.294,68.302 91.7836,69.487 92.574,69.1606 C93.3642,68.8339 92.8728,67.649 92.8728,67.649 L69.1578,3.693 M68.4778,27.813 C68.1313,37.2408 73.9304,42.426 73.1721,50.845 C72.4152,59.265 77.0394,64.025 78.1117,67.299 C79.185,70.5734 76.9517,72.5313 77.9137,72.9972 C78.87706,73.4634 80.9837,70.8765 80.297,66.2216 C79.61025,61.5667 76.0766,60.1848 76.9072,49.9016 C77.7372,39.6186 72.7012,37.2236 73.9272,27.8436" id="ray1" stroke="#85340A" stroke-width="1.1116" fill="#F6B40E"></path>
                <g id="ray1-link" transform="translate(64.266659, 40.542166) rotate(22.500000) translate(-64.266659, -40.542166) translate(48.266659, 5.042166)" fill="#F6B40E" stroke="#85340A" stroke-width="1.1116">
                    <path d="M0.84,3.31 L29.294,65.302 C29.294,65.302 29.7836,66.487 30.574,66.1606 C31.3642,65.8339 30.8728,64.649 30.8728,64.649 L7.1578,0.693 M6.4778,24.813 C6.1313,34.2408 11.9304,39.426 11.1721,47.845 C10.4152,56.265 15.0394,61.025 16.1117,64.299 C17.185,67.5734 14.9517,69.5313 15.9137,69.9972 C16.87706,70.4634 18.9837,67.8765 18.297,63.2216 C17.61025,58.5667 14.0766,57.1848 14.9072,46.9016 C15.7372,36.6186 10.7012,34.2236 11.9272,24.8436" id="ray1"></path>
                </g>
                <g id="ray1-link" transform="translate(50.797204, 37.173359) rotate(45.000000) translate(-50.797204, -37.173359) translate(34.797204, 1.673359)" fill="#F6B40E" stroke="#85340A" stroke-width="1.1116">
                    <path d="M0.84,3.31 L29.294,65.302 C29.294,65.302 29.7836,66.487 30.574,66.1606 C31.3642,65.8339 30.8728,64.649 30.8728,64.649 L7.1578,0.693 M6.4778,24.813 C6.1313,34.2408 11.9304,39.426 11.1721,47.845 C10.4152,56.265 15.0394,61.025 16.1117,64.299 C17.185,67.5734 14.9517,69.5313 15.9137,69.9972 C16.87706,70.4634 18.9837,67.8765 18.297,63.2216 C17.61025,58.5667 14.0766,57.1848 14.9072,46.9016 C15.7372,36.6186 10.7012,34.2236 11.9272,24.8436" id="ray1"></path>
                </g>
                <g id="ray1-link" transform="translate(39.642237, 28.906449) rotate(67.500000) translate(-39.642237, -28.906449) translate(23.642237, -6.593551)" fill="#F6B40E" stroke="#85340A" stroke-width="1.1116">
                    <path d="M0.84,3.31 L29.294,65.302 C29.294,65.302 29.7836,66.487 30.574,66.1606 C31.3642,65.8339 30.8728,64.649 30.8728,64.649 L7.1578,0.693 M6.4778,24.813 C6.1313,34.2408 11.9304,39.426 11.1721,47.845 C10.4152,56.265 15.0394,61.025 16.1117,64.299 C17.185,67.5734 14.9517,69.5313 15.9137,69.9972 C16.87706,70.4634 18.9837,67.8765 18.297,63.2216 C17.61025,58.5667 14.0766,57.1848 14.9072,46.9016 C15.7372,36.6186 10.7012,34.2236 11.9272,24.8436" id="ray1"></path>
                </g>
                <path d="M70.31,29.41 C70.76334,38.4638 75.8967,42.473 74.8887,50.724 C77.102,44.1991 71.7654,39.141 72.0687,29.504 M64.42,5.747 L83.907,48.324 L67.578,4.437" id="ray2" fill="#85340A"></path>
                <g id="ray2-link" transform="translate(64.780659, 28.848757) rotate(22.500000) translate(-64.780659, -28.848757) translate(54.780659, 5.348757)" fill="#85340A">
                    <path d="M6.31,25.41 C6.76334,34.4638 11.8967,38.473 10.8887,46.724 C13.102,40.1991 7.7654,35.141 8.0687,25.504 M0.42,1.747 L19.907,44.324 L3.578,0.437" id="ray2"></path>
                </g>
                <g id="ray2-link" transform="translate(55.746952, 26.566757) rotate(45.000000) translate(-55.746952, -26.566757) translate(45.746952, 3.066757)" fill="#85340A">
                    <path d="M6.31,25.41 C6.76334,34.4638 11.8967,38.473 10.8887,46.724 C13.102,40.1991 7.7654,35.141 8.0687,25.504 M0.42,1.747 L19.907,44.324 L3.578,0.437" id="ray2"></path>
                </g>
                <g id="ray2-link" transform="translate(48.274178, 21.001413) rotate(67.500000) translate(-48.274178, -21.001413) translate(38.274178, -2.498587)" fill="#85340A">
                    <path d="M6.31,25.41 C6.76334,34.4638 11.8967,38.473 10.8887,46.724 C13.102,40.1991 7.7654,35.141 8.0687,25.504 M0.42,1.747 L19.907,44.324 L3.578,0.437" id="ray2"></path>
                </g>
            </g>
            <g id="rays-link" transform="translate(365.000000, 256.000000) rotate(90.000000) translate(-365.000000, -256.000000) translate(318.000000, 216.000000)">
                <g id="rays">
                    <path d="M62.84,6.31 L91.294,68.302 C91.294,68.302 91.7836,69.487 92.574,69.1606 C93.3642,68.8339 92.8728,67.649 92.8728,67.649 L69.1578,3.693 M68.4778,27.813 C68.1313,37.2408 73.9304,42.426 73.1721,50.845 C72.4152,59.265 77.0394,64.025 78.1117,67.299 C79.185,70.5734 76.9517,72.5313 77.9137,72.9972 C78.87706,73.4634 80.9837,70.8765 80.297,66.2216 C79.61025,61.5667 76.0766,60.1848 76.9072,49.9016 C77.7372,39.6186 72.7012,37.2236 73.9272,27.8436" id="ray1" stroke="#85340A" stroke-width="1.1116" fill="#F6B40E"></path>
                    <g id="ray1-link" transform="translate(64.266659, 40.542166) rotate(22.500000) translate(-64.266659, -40.542166) translate(48.266659, 5.042166)" fill="#F6B40E" stroke="#85340A" stroke-width="1.1116">
                        <path d="M0.84,3.31 L29.294,65.302 C29.294,65.302 29.7836,66.487 30.574,66.1606 C31.3642,65.8339 30.8728,64.649 30.8728,64.649 L7.1578,0.693 M6.4778,24.813 C6.1313,34.2408 11.9304,39.426 11.1721,47.845 C10.4152,56.265 15.0394,61.025 16.1117,64.299 C17.185,67.5734 14.9517,69.5313 15.9137,69.9972 C16.87706,70.4634 18.9837,67.8765 18.297,63.2216 C17.61025,58.5667 14.0766,57.1848 14.9072,46.9016 C15.7372,36.6186 10.7012,34.2236 11.9272,24.8436" id="ray1"></path>
                    </g>
                    <g id="ray1-link" transform="translate(50.797204, 37.173359) rotate(45.000000) translate(-50.797204, -37.173359) translate(34.797204, 1.673359)" fill="#F6B40E" stroke="#85340A" stroke-width="1.1116">
                        <path d="M0.84,3.31 L29.294,65.302 C29.294,65.302 29.7836,66.487 30.574,66.1606 C31.3642,65.8339 30.8728,64.649 30.8728,64.649 L7.1578,0.693 M6.4778,24.813 C6.1313,34.2408 11.9304,39.426 11.1721,47.845 C10.4152,56.265 15.0394,61.025 16.1117,64.299 C17.185,67.5734 14.9517,69.5313 15.9137,69.9972 C16.87706,70.4634 18.9837,67.8765 18.297,63.2216 C17.61025,58.5667 14.0766,57.1848 14.9072,46.9016 C15.7372,36.6186 10.7012,34.2236 11.9272,24.8436" id="ray1"></path>
                    </g>
                    <g id="ray1-link" transform="translate(39.642237, 28.906449) rotate(67.500000) translate(-39.642237, -28.906449) translate(23.642237, -6.593551)" fill="#F6B40E" stroke="#85340A" stroke-width="1.1116">
                        <path d="M0.84,3.31 L29.294,65.302 C29.294,65.302 29.7836,66.487 30.574,66.1606 C31.3642,65.8339 30.8728,64.649 30.8728,64.649 L7.1578,0.693 M6.4778,24.813 C6.1313,34.2408 11.9304,39.426 11.1721,47.845 C10.4152,56.265 15.0394,61.025 16.1117,64.299 C17.185,67.5734 14.9517,69.5313 15.9137,69.9972 C16.87706,70.4634 18.9837,67.8765 18.297,63.2216 C17.61025,58.5667 14.0766,57.1848 14.9072,46.9016 C15.7372,36.6186 10.7012,34.2236 11.9272,24.8436" id="ray1"></path>
                    </g>
                    <path d="M70.31,29.41 C70.76334,38.4638 75.8967,42.473 74.8887,50.724 C77.102,44.1991 71.7654,39.141 72.0687,29.504 M64.42,5.747 L83.907,48.324 L67.578,4.437" id="ray2" fill="#85340A"></path>
                    <g id="ray2-link" transform="translate(64.780659, 28.848757) rotate(22.500000) translate(-64.780659, -28.848757) translate(54.780659, 5.348757)" fill="#85340A">
                        <path d="M6.31,25.41 C6.76334,34.4638 11.8967,38.473 10.8887,46.724 C13.102,40.1991 7.7654,35.141 8.0687,25.504 M0.42,1.747 L19.907,44.324 L3.578,0.437" id="ray2"></path>
                    </g>
                    <g id="ray2-link" transform="translate(55.746952, 26.566757) rotate(45.000000) translate(-55.746952, -26.566757) translate(45.746952, 3.066757)" fill="#85340A">
                        <path d="M6.31,25.41 C6.76334,34.4638 11.8967,38.473 10.8887,46.724 C13.102,40.1991 7.7654,35.141 8.0687,25.504 M0.42,1.747 L19.907,44.324 L3.578,0.437" id="ray2"></path>
                    </g>
                    <g id="ray2-link" transform="translate(48.274178, 21.001413) rotate(67.500000) translate(-48.274178, -21.001413) translate(38.274178, -2.498587)" fill="#85340A">
                        <path d="M6.31,25.41 C6.76334,34.4638 11.8967,38.473 10.8887,46.724 C13.102,40.1991 7.7654,35.141 8.0687,25.504 M0.42,1.747 L19.907,44.324 L3.578,0.437" id="ray2"></path>
                    </g>
                </g>
            </g>
            <g id="rays-link" transform="translate(419.000000, 240.000000) rotate(180.000000) translate(-419.000000, -240.000000) translate(372.000000, 200.000000)">
                <g id="rays">
                    <path d="M62.84,6.31 L91.294,68.302 C91.294,68.302 91.7836,69.487 92.574,69.1606 C93.3642,68.8339 92.8728,67.649 92.8728,67.649 L69.1578,3.693 M68.4778,27.813 C68.1313,37.2408 73.9304,42.426 73.1721,50.845 C72.4152,59.265 77.0394,64.025 78.1117,67.299 C79.185,70.5734 76.9517,72.5313 77.9137,72.9972 C78.87706,73.4634 80.9837,70.8765 80.297,66.2216 C79.61025,61.5667 76.0766,60.1848 76.9072,49.9016 C77.7372,39.6186 72.7012,37.2236 73.9272,27.8436" id="ray1" stroke="#85340A" stroke-width="1.1116" fill="#F6B40E"></path>
                    <g id="ray1-link" transform="translate(64.266659, 40.542166) rotate(22.500000) translate(-64.266659, -40.542166) translate(48.266659, 5.042166)" fill="#F6B40E" stroke="#85340A" stroke-width="1.1116">
                        <path d="M0.84,3.31 L29.294,65.302 C29.294,65.302 29.7836,66.487 30.574,66.1606 C31.3642,65.8339 30.8728,64.649 30.8728,64.649 L7.1578,0.693 M6.4778,24.813 C6.1313,34.2408 11.9304,39.426 11.1721,47.845 C10.4152,56.265 15.0394,61.025 16.1117,64.299 C17.185,67.5734 14.9517,69.5313 15.9137,69.9972 C16.87706,70.4634 18.9837,67.8765 18.297,63.2216 C17.61025,58.5667 14.0766,57.1848 14.9072,46.9016 C15.7372,36.6186 10.7012,34.2236 11.9272,24.8436" id="ray1"></path>
                    </g>
                    <g id="ray1-link" transform="translate(50.797204, 37.173359) rotate(45.000000) translate(-50.797204, -37.173359) translate(34.797204, 1.673359)" fill="#F6B40E" stroke="#85340A" stroke-width="1.1116">
                        <path d="M0.84,3.31 L29.294,65.302 C29.294,65.302 29.7836,66.487 30.574,66.1606 C31.3642,65.8339 30.8728,64.649 30.8728,64.649 L7.1578,0.693 M6.4778,24.813 C6.1313,34.2408 11.9304,39.426 11.1721,47.845 C10.4152,56.265 15.0394,61.025 16.1117,64.299 C17.185,67.5734 14.9517,69.5313 15.9137,69.9972 C16.87706,70.4634 18.9837,67.8765 18.297,63.2216 C17.61025,58.5667 14.0766,57.1848 14.9072,46.9016 C15.7372,36.6186 10.7012,34.2236 11.9272,24.8436" id="ray1"></path>
                    </g>
                    <g id="ray1-link" transform="translate(39.642237, 28.906449) rotate(67.500000) translate(-39.642237, -28.906449) translate(23.642237, -6.593551)" fill="#F6B40E" stroke="#85340A" stroke-width="1.1116">
                        <path d="M0.84,3.31 L29.294,65.302 C29.294,65.302 29.7836,66.487 30.574,66.1606 C31.3642,65.8339 30.8728,64.649 30.8728,64.649 L7.1578,0.693 M6.4778,24.813 C6.1313,34.2408 11.9304,39.426 11.1721,47.845 C10.4152,56.265 15.0394,61.025 16.1117,64.299 C17.185,67.5734 14.9517,69.5313 15.9137,69.9972 C16.87706,70.4634 18.9837,67.8765 18.297,63.2216 C17.61025,58.5667 14.0766,57.1848 14.9072,46.9016 C15.7372,36.6186 10.7012,34.2236 11.9272,24.8436" id="ray1"></path>
                    </g>
                    <path d="M70.31,29.41 C70.76334,38.4638 75.8967,42.473 74.8887,50.724 C77.102,44.1991 71.7654,39.141 72.0687,29.504 M64.42,5.747 L83.907,48.324 L67.578,4.437" id="ray2" fill="#85340A"></path>
                    <g id="ray2-link" transform="translate(64.780659, 28.848757) rotate(22.500000) translate(-64.780659, -28.848757) translate(54.780659, 5.348757)" fill="#85340A">
                        <path d="M6.31,25.41 C6.76334,34.4638 11.8967,38.473 10.8887,46.724 C13.102,40.1991 7.7654,35.141 8.0687,25.504 M0.42,1.747 L19.907,44.324 L3.578,0.437" id="ray2"></path>
                    </g>
                    <g id="ray2-link" transform="translate(55.746952, 26.566757) rotate(45.000000) translate(-55.746952, -26.566757) translate(45.746952, 3.066757)" fill="#85340A">
                        <path d="M6.31,25.41 C6.76334,34.4638 11.8967,38.473 10.8887,46.724 C13.102,40.1991 7.7654,35.141 8.0687,25.504 M0.42,1.747 L19.907,44.324 L3.578,0.437" id="ray2"></path>
                    </g>
                    <g id="ray2-link" transform="translate(48.274178, 21.001413) rotate(67.500000) translate(-48.274178, -21.001413) translate(38.274178, -2.498587)" fill="#85340A">
                        <path d="M6.31,25.41 C6.76334,34.4638 11.8967,38.473 10.8887,46.724 C13.102,40.1991 7.7654,35.141 8.0687,25.504 M0.42,1.747 L19.907,44.324 L3.578,0.437" id="ray2"></path>
                    </g>
                </g>
            </g>
            <g id="rays-link" transform="translate(435.000000, 294.000000) rotate(-90.000000) translate(-435.000000, -294.000000) translate(388.000000, 254.000000)">
                <g id="rays">
                    <path d="M62.84,6.31 L91.294,68.302 C91.294,68.302 91.7836,69.487 92.574,69.1606 C93.3642,68.8339 92.8728,67.649 92.8728,67.649 L69.1578,3.693 M68.4778,27.813 C68.1313,37.2408 73.9304,42.426 73.1721,50.845 C72.4152,59.265 77.0394,64.025 78.1117,67.299 C79.185,70.5734 76.9517,72.5313 77.9137,72.9972 C78.87706,73.4634 80.9837,70.8765 80.297,66.2216 C79.61025,61.5667 76.0766,60.1848 76.9072,49.9016 C77.7372,39.6186 72.7012,37.2236 73.9272,27.8436" id="ray1" stroke="#85340A" stroke-width="1.1116" fill="#F6B40E"></path>
                    <g id="ray1-link" transform="translate(64.266659, 40.542166) rotate(22.500000) translate(-64.266659, -40.542166) translate(48.266659, 5.042166)" fill="#F6B40E" stroke="#85340A" stroke-width="1.1116">
                        <path d="M0.84,3.31 L29.294,65.302 C29.294,65.302 29.7836,66.487 30.574,66.1606 C31.3642,65.8339 30.8728,64.649 30.8728,64.649 L7.1578,0.693 M6.4778,24.813 C6.1313,34.2408 11.9304,39.426 11.1721,47.845 C10.4152,56.265 15.0394,61.025 16.1117,64.299 C17.185,67.5734 14.9517,69.5313 15.9137,69.9972 C16.87706,70.4634 18.9837,67.8765 18.297,63.2216 C17.61025,58.5667 14.0766,57.1848 14.9072,46.9016 C15.7372,36.6186 10.7012,34.2236 11.9272,24.8436" id="ray1"></path>
                    </g>
                    <g id="ray1-link" transform="translate(50.797204, 37.173359) rotate(45.000000) translate(-50.797204, -37.173359) translate(34.797204, 1.673359)" fill="#F6B40E" stroke="#85340A" stroke-width="1.1116">
                        <path d="M0.84,3.31 L29.294,65.302 C29.294,65.302 29.7836,66.487 30.574,66.1606 C31.3642,65.8339 30.8728,64.649 30.8728,64.649 L7.1578,0.693 M6.4778,24.813 C6.1313,34.2408 11.9304,39.426 11.1721,47.845 C10.4152,56.265 15.0394,61.025 16.1117,64.299 C17.185,67.5734 14.9517,69.5313 15.9137,69.9972 C16.87706,70.4634 18.9837,67.8765 18.297,63.2216 C17.61025,58.5667 14.0766,57.1848 14.9072,46.9016 C15.7372,36.6186 10.7012,34.2236 11.9272,24.8436" id="ray1"></path>
                    </g>
                    <g id="ray1-link" transform="translate(39.642237, 28.906449) rotate(67.500000) translate(-39.642237, -28.906449) translate(23.642237, -6.593551)" fill="#F6B40E" stroke="#85340A" stroke-width="1.1116">
                        <path d="M0.84,3.31 L29.294,65.302 C29.294,65.302 29.7836,66.487 30.574,66.1606 C31.3642,65.8339 30.8728,64.649 30.8728,64.649 L7.1578,0.693 M6.4778,24.813 C6.1313,34.2408 11.9304,39.426 11.1721,47.845 C10.4152,56.265 15.0394,61.025 16.1117,64.299 C17.185,67.5734 14.9517,69.5313 15.9137,69.9972 C16.87706,70.4634 18.9837,67.8765 18.297,63.2216 C17.61025,58.5667 14.0766,57.1848 14.9072,46.9016 C15.7372,36.6186 10.7012,34.2236 11.9272,24.8436" id="ray1"></path>
                    </g>
                    <path d="M70.31,29.41 C70.76334,38.4638 75.8967,42.473 74.8887,50.724 C77.102,44.1991 71.7654,39.141 72.0687,29.504 M64.42,5.747 L83.907,48.324 L67.578,4.437" id="ray2" fill="#85340A"></path>
                    <g id="ray2-link" transform="translate(64.780659, 28.848757) rotate(22.500000) translate(-64.780659, -28.848757) translate(54.780659, 5.348757)" fill="#85340A">
                        <path d="M6.31,25.41 C6.76334,34.4638 11.8967,38.473 10.8887,46.724 C13.102,40.1991 7.7654,35.141 8.0687,25.504 M0.42,1.747 L19.907,44.324 L3.578,0.437" id="ray2"></path>
                    </g>
                    <g id="ray2-link" transform="translate(55.746952, 26.566757) rotate(45.000000) translate(-55.746952, -26.566757) translate(45.746952, 3.066757)" fill="#85340A">
                        <path d="M6.31,25.41 C6.76334,34.4638 11.8967,38.473 10.8887,46.724 C13.102,40.1991 7.7654,35.141 8.0687,25.504 M0.42,1.747 L19.907,44.324 L3.578,0.437" id="ray2"></path>
                    </g>
                    <g id="ray2-link" transform="translate(48.274178, 21.001413) rotate(67.500000) translate(-48.274178, -21.001413) translate(38.274178, -2.498587)" fill="#85340A">
                        <path d="M6.31,25.41 C6.76334,34.4638 11.8967,38.473 10.8887,46.724 C13.102,40.1991 7.7654,35.141 8.0687,25.504 M0.42,1.747 L19.907,44.324 L3.578,0.437" id="ray2"></path>
                    </g>
                </g>
            </g>
            <circle id="Oval" stroke="#85340A" stroke-width="1.5" fill="#F6B40E" cx="400" cy="275" r="27.778"></circle>
            <path d="M409.47,269.06 C407.5733,269.06003 405.7569,269.88183 404.6888,271.5912 C406.8255,273.5139 411.5453,273.723 414.7508,271.37245 C413.3625,269.87705 411.3663,269.05995 409.4696,269.05995 L409.47,269.06 Z M409.4388,269.4975 C411.285,269.464 413.0105,270.31196 413.2513,271.1537 C411.1146,273.5041 407.7005,273.3 405.5638,271.5912 C406.4986,270.0955 408.0029,269.5235 409.4388,269.4974 L409.4388,269.4975 Z" id="loweyecontour" fill="#843511"></path>
            <g id="uppalpebra-link" transform="translate(409.750000, 269.500000) scale(-1, 1) translate(-409.750000, -269.500000) translate(402.250000, 267.000000)" fill="#85340A">
                <path d="M7.42,0.74 C10.1967,0.74 10.8386,1.3817 12.1207,2.45 C13.404,3.5183 14.044,3.3041 14.2574,3.5183 C14.4698,3.7325 14.2574,4.3724 13.8308,4.1582 C13.4042,3.944 12.5475,3.5183 11.2675,2.4496 C9.9842,1.38 8.7042,1.3813 7.4212,1.3813 C3.5749,1.3813 1.4382,4.5859 1.0118,4.372 C0.5852,4.1578 3.1485,0.7395 7.4212,0.7395 L7.42,0.74 Z" id="uppalpebra"></path>
            </g>
            <g id="eyebrow_nose-link" transform="translate(409.250000, 272.000000) scale(-1, 1) translate(-409.250000, -272.000000) translate(400.250000, 264.000000)" fill="#85340A">
                <path d="M0.73,5.02 C5.6446,0.7471 11.84,0.1053 15.26,3.3114 C16.097,4.4321 16.6333,5.6304 16.8534,6.881 C17.2836,9.314 16.5231,11.9427 14.6167,14.6369 C14.8318,14.6359 15.2602,14.8493 15.4735,15.0635 C17.1702,11.8195 17.7702,8.4874 17.2135,5.3181 C17.0677,4.4901 16.84,3.6751 16.5439,2.8824 C11.8432,-0.9628 5.4339,-1.3905 0.7329,5.0201 L0.73,5.02 Z" id="eyebrow_nose"></path>
            </g>
            <g id="pupil-link" transform="translate(406.862000, 269.000000)" fill="#85340A">
                <circle id="pupil" cx="2.54" cy="2.15" r="1.923"></circle>
            </g>
            <g id="lowpalpebra-link" transform="translate(409.250000, 273.500000) scale(-1, 1) translate(-409.250000, -273.500000) translate(403.250000, 272.000000)" fill="#85340A">
                <path d="M0.29,0.44 C3.9227,3.2183 7.555,3.0044 9.6917,1.722 C11.8284,0.44 11.8284,0.0134 11.4017,0.0134 C10.9751,0.0134 10.5485,0.44 8.8384,1.2944 C7.1284,2.1503 4.5654,2.1503 0.2924,0.4403 L0.29,0.44 Z" id="lowpalpebra"></path>
            </g>
            <path d="M395.75,278.84 C394.83659,279.00668 394.1875,279.81727 394.1875,280.7462 C394.1875,281.8076 395.06498,282.6524 396.125,282.6524 C396.75167,282.6524 397.3275,282.3556 397.6875,281.8399 C398.42702,282.39604 399.4521,282.45501 400,282.4649 C400.0843,282.4669 400.19312,282.4649 400.25,282.4649 C400.79791,282.4549 401.823,282.396 402.5625,281.8399 C402.9225,282.3556 403.49833,282.6524 404.125,282.6524 C405.185,282.6524 406.0625,281.80752 406.0625,280.7462 C406.0625,279.81722 405.41332,279.0066 404.5,278.84 C405.013,279.0209 405.34375,279.5165 405.34375,280.0588 C405.34375,280.7662 404.77251,281.34 404.06255,281.34 C403.38215,281.34 402.82125,280.79985 402.78135,280.1212 C402.57273,280.53757 401.74725,281.7763 400.12515,281.84 C398.50295,281.7764 397.67755,280.5376 397.46895,280.1212 C397.42895,280.7998 396.8681,281.34 396.18775,281.34 C395.47774,281.34 394.90655,280.76615 394.90655,280.0588 C394.90655,279.51655 395.2373,279.021 395.7503,278.84 L395.75,278.84 Z" id="Path" fill="#85340A"></path>
            <path d="M397.84,284.53 C395.702,284.53 394.8571,286.4668 392.9338,287.7488 C394.0025,287.32247 394.8434,286.4795 396.34,285.6238 C397.836,284.76938 399.1117,285.8113 399.965,285.8113 L399.9962,285.8113 C400.8494,285.8113 402.1252,284.7697 403.6212,285.6238 C405.1179,286.4797 405.99,287.3225 407.0587,287.7488 C405.1354,286.4668 404.2591,284.53 402.1212,284.53 C401.6946,284.53 400.8496,284.76055 399.9962,285.18625 L399.965,285.18625 C399.11166,284.75983 398.2667,284.53 397.84,284.53 Z" id="Path" fill="#85340A"></path>
            <path d="M397.12,287.06 C396.2761,287.0974 395.1604,287.26675 393.5575,287.7475 C397.4048,286.89316 398.2537,288.185 399.9637,288.185 L399.9949,288.185 C401.7049,288.185 402.5537,286.893 406.4011,287.7475 C402.1267,286.4655 401.2769,287.31 399.9949,287.31 L399.9637,287.31 C399.16245,287.31 398.5265,286.9976 397.1199,287.06 L397.12,287.06 Z" id="Path" fill="#85340A"></path>
            <path d="M393.75,287.72 C393.50181,287.723 393.23129,287.725 392.9375,287.7512 C397.4255,288.17886 395.2681,290.7512 399.9687,290.7512 L399.9999,290.7512 C404.7006,290.7512 402.5744,288.1788 407.0624,287.7512 C402.3617,287.3246 403.8478,290.095 399.9999,290.095 L399.9687,290.095 C396.3612,290.095 397.4728,287.6735 393.7499,287.72 L393.75,287.72 Z" id="Path" fill="#85340A"></path>
            <path d="M403.85,294.66 C403.85,292.5366 402.1267,290.8135 400.0037,290.8135 C397.8804,290.8135 396.1574,292.5365 396.1574,294.66 C396.5804,292.879 398.174,291.6207 400.0037,291.6207 C401.837,291.6207 403.4277,292.8793 403.85,294.66 L403.85,294.66 L403.85,294.66 Z" id="Path" fill="#85340A"></path>
            <path d="M382.73,269.02 C387.6446,264.7471 393.84,264.1053 397.26,267.3114 C398.097,268.4321 398.6333,269.6304 398.8534,270.881 C399.2836,273.314 398.5231,275.9427 396.6167,278.6369 C396.8318,278.6359 397.2602,278.8493 397.4735,279.0635 C399.1702,275.8195 399.7702,272.4874 399.2135,269.3181 C399.0677,268.4901 398.84,267.6751 398.5439,266.8824 C393.8432,263.0372 387.4339,262.6095 382.7329,269.0201 L382.73,269.02 Z" id="eyebrow_nose" fill="#85340A"></path>
            <path d="M390.42,267.74 C393.1967,267.74 393.8386,268.3817 395.1207,269.45 C396.404,270.5183 397.044,270.3041 397.2574,270.5183 C397.4698,270.7325 397.2574,271.3724 396.8308,271.1582 C396.4042,270.944 395.5475,270.5183 394.2675,269.4496 C392.9842,268.38 391.7042,268.3813 390.4212,268.3813 C386.5749,268.3813 384.4382,271.5859 384.0118,271.372 C383.5852,271.1578 386.1485,267.7395 390.4212,267.7395 L390.42,267.74 Z" id="uppalpebra" fill="#85340A"></path>
            <g id="loweyecontour-link" transform="translate(384.819000, 269.000000)" fill="#843511">
                <path d="M5.47,0.06 C3.5733,0.06003 1.7569,0.88183 0.6888,2.5912 C2.8255,4.5139 7.5453,4.723 10.7508,2.37245 C9.3625,0.87705 7.3663,0.05995 5.4696,0.05995 L5.47,0.06 Z M5.4388,0.4975 C7.285,0.464 9.0105,1.31196 9.2513,2.1537 C7.1146,4.5041 3.7005,4.3 1.5638,2.5912 C2.4986,1.0955 4.0029,0.5235 5.4388,0.4974 L5.4388,0.4975 Z" id="loweyecontour"></path>
            </g>
            <circle id="pupil" fill="#85340A" cx="390.54" cy="271.15" r="1.923"></circle>
            <path d="M385.29,272.44 C388.9227,275.2183 392.555,275.0044 394.6917,273.722 C396.8284,272.44 396.8284,272.0134 396.4017,272.0134 C395.9751,272.0134 395.5485,272.44 393.8384,273.2944 C392.1284,274.1503 389.5654,274.1503 385.2924,272.4403 L385.29,272.44 Z" id="lowpalpebra" fill="#85340A"></path>
        </g>
    </g>
</svg>