<?xml version="1.0" encoding="UTF-8"?>
<svg width="32px" height="22px" viewBox="0 0 32 22" version="1.1" xmlns="http://www.w3.org/2000/svg" xmlns:xlink="http://www.w3.org/1999/xlink">
    <!-- Generator: Sketch 63.1 (92452) - https://sketch.com -->
    <title>CHI</title>
    <desc>Created with Sketch.</desc>
    <g id="Page-1" stroke="none" stroke-width="1" fill="none" fill-rule="evenodd">
        <g id="CHI" fill-rule="nonzero">
            <polygon id="Path" fill="#D52B1E" points="32 22 0 22 0 0 32 0"></polygon>
            <polygon id="Path" fill="#FFFFFF" points="10.6666667 11 32 11 32 0 0 0"></polygon>
            <polygon id="Path" fill="#0039A6" points="10.6666667 11 0 11 0 0 10.6666667 0"></polygon>
            <g id="f" transform="translate(2.666667, 2.750000)" fill="#FFFFFF">
                <g id="t" transform="translate(1.333333, 0.000000)">
                    <polygon id="o" transform="translate(1.555348, 1.520152) rotate(18.000000) translate(-1.555348, -1.520152) " points="0.874446753 0.143007943 0.898937805 2.88505032 2.23624995 2.89729584"></polygon>
                    <g id="o-link" transform="translate(1.333333, 2.062500) scale(-1, 1) translate(-1.333333, -2.062500) ">
                        <polygon id="o" transform="translate(1.555348, 1.520152) rotate(18.000000) translate(-1.555348, -1.520152) " points="0.874446753 0.143007943 0.898937805 2.88505032 2.23624995 2.89729584"></polygon>
                    </g>
                </g>
                <g id="t-link" transform="translate(3.300704, 2.537551) rotate(72.000000) translate(-3.300704, -2.537551) translate(1.967371, 0.475051)">
                    <g id="t">
                        <polygon id="o" transform="translate(1.555348, 1.520152) rotate(18.000000) translate(-1.555348, -1.520152) " points="0.874446753 0.143007943 0.898937805 2.88505032 2.23624995 2.89729584"></polygon>
                        <g id="o-link" transform="translate(1.333333, 2.062500) scale(-1, 1) translate(-1.333333, -2.062500) ">
                            <polygon id="o" transform="translate(1.555348, 1.520152) rotate(18.000000) translate(-1.555348, -1.520152) " points="0.874446753 0.143007943 0.898937805 2.88505032 2.23624995 2.89729584"></polygon>
                        </g>
                    </g>
                </g>
            </g>
            <g id="t-link" transform="translate(4.699296, 5.287551) rotate(-72.000000) translate(-4.699296, -5.287551) translate(3.365962, 3.225051)" fill="#FFFFFF">
                <g id="t">
                    <polygon id="o" transform="translate(1.555348, 1.520152) rotate(18.000000) translate(-1.555348, -1.520152) " points="0.874446753 0.143007943 0.898937805 2.88505032 2.23624995 2.89729584"></polygon>
                    <g id="o-link" transform="translate(1.333333, 2.062500) scale(-1, 1) translate(-1.333333, -2.062500) ">
                        <polygon id="o" transform="translate(1.555348, 1.520152) rotate(18.000000) translate(-1.555348, -1.520152) " points="0.874446753 0.143007943 0.898937805 2.88505032 2.23624995 2.89729584"></polygon>
                    </g>
                </g>
            </g>
            <g id="f-link" transform="translate(4.793989, 5.904102) rotate(144.000000) translate(-4.793989, -5.904102) translate(1.460655, 3.154102)" fill="#FFFFFF">
                <g id="f">
                    <g id="t" transform="translate(1.333333, 0.000000)">
                        <polygon id="o" transform="translate(1.555348, 1.520152) rotate(18.000000) translate(-1.555348, -1.520152) " points="0.874446753 0.143007943 0.898937805 2.88505032 2.23624995 2.89729584"></polygon>
                        <g id="o-link" transform="translate(1.333333, 2.062500) scale(-1, 1) translate(-1.333333, -2.062500) ">
                            <polygon id="o" transform="translate(1.555348, 1.520152) rotate(18.000000) translate(-1.555348, -1.520152) " points="0.874446753 0.143007943 0.898937805 2.88505032 2.23624995 2.89729584"></polygon>
                        </g>
                    </g>
                    <g id="t-link" transform="translate(3.300704, 2.537551) rotate(72.000000) translate(-3.300704, -2.537551) translate(1.967371, 0.475051)">
                        <g id="t">
                            <polygon id="o" transform="translate(1.555348, 1.520152) rotate(18.000000) translate(-1.555348, -1.520152) " points="0.874446753 0.143007943 0.898937805 2.88505032 2.23624995 2.89729584"></polygon>
                            <g id="o-link" transform="translate(1.333333, 2.062500) scale(-1, 1) translate(-1.333333, -2.062500) ">
                                <polygon id="o" transform="translate(1.555348, 1.520152) rotate(18.000000) translate(-1.555348, -1.520152) " points="0.874446753 0.143007943 0.898937805 2.88505032 2.23624995 2.89729584"></polygon>
                            </g>
                        </g>
                    </g>
                </g>
            </g>
        </g>
    </g>
</svg>