<?xml version="1.0" encoding="UTF-8"?>
<svg width="500px" height="344px" viewBox="0 0 500 344" version="1.1" xmlns="http://www.w3.org/2000/svg" xmlns:xlink="http://www.w3.org/1999/xlink">
    <!-- Generator: Sketch 63.1 (92452) - https://sketch.com -->
    <title>HAI</title>
    <desc>Created with Sketch.</desc>
    <g id="Page-1" stroke="none" stroke-width="1" fill="none" fill-rule="evenodd">
        <g id="Artboard">
            <g id="HAI">
                <rect id="Rectangle" fill="#D21034" fill-rule="nonzero" x="0" y="0" width="500" height="344"></rect>
                <rect id="Rectangle" fill="#00209F" fill-rule="nonzero" x="0" y="0" width="500" height="172"></rect>
                <g id="coa" transform="translate(202.000000, 134.000000)">
                    <rect id="Rectangle" fill="#FFFFFF" fill-rule="nonzero" x="0.679" y="0.284" width="94.6416" height="75.3413"></rect>
                    <path d="M67.047,54.76598 L47.7329,55.32658 L28.5059,55.5452 C28.5059,55.5452 18.6278,59.19872 14.5897,60.0186 C10.56352,60.83606 11.08707,62.15885 7.97152,62.85511 C5.47605,63.41279 5.18824,63.58864 3.72404,63.68476 C2.838,63.74296 1.74669,64.42463 0.67933,65.17589 L0.67933,75.62499 L95.32093,75.62499 L95.32093,65.68599 C94.29505,65.12697 93.31743,64.7424 92.31689,64.40227 C90.92658,63.92964 89.98964,63.41277 87.49417,62.85509 C84.37862,62.15883 84.90217,60.83604 80.87599,60.01858 C76.83792,59.1987 67.04699,54.76598 67.04699,54.76598 L67.047,54.76598 Z" id="Path" stroke="#016A16" stroke-width="0.1826" fill="#016A16" fill-rule="nonzero"></path>
                    <g id="flags" transform="translate(9.000000, 21.000000)" fill-rule="nonzero" stroke-width="0.1826">
                        <g id="flags_half">
                            <g id="Group" transform="translate(25.000000, 3.000000)" stroke="#000000">
                                <polygon id="Path" fill="#F1B517" points="8.529 7.512 9.92596 7.4791 12.48137 18.2281 11.93621 21.61386 8.529 7.51206"></polygon>
                                <polygon id="Path" fill="#FFFFFF" points="7.064 0.346 8.01802 8.6296 9.04018 8.5639 7.064 0.34604"></polygon>
                                <polygon id="Path" fill="#F1B517" points="9.722 18.589 5.42892 7.0511 7.03031 6.9525 12.03891 21.0543 9.722 18.58894"></polygon>
                                <polygon id="Path" fill="#FFFFFF" points="3.419 0.477 5.19075 8.49763 6.62178 8.49763"></polygon>
                                <polygon id="Path" fill="#F1B517" points="5.906 14.546 3.38466 9.12221 4.47497 8.89211 9.0747 17.89888 5.906 14.546"></polygon>
                                <polygon id="Path" fill="#FFFFFF" points="0.08 2.778 2.87391 10.40418 4.30494 10.40418"></polygon>
                            </g>
                            <g id="Group" transform="translate(14.000000, 0.000000)">
                                <path d="M17.249,18.364 L5.8134,5.8799 C2.24176,8.70804 2.90533,13.90106 2.90533,13.90106 L15.86233,24.06716 L17.249,18.36398 L17.249,18.364 Z" id="Path" stroke="#000000" fill="#0A328C"></path>
                                <path d="M23.861,25.235 L15.3776,16.64144 C11.791,16.7659 14.63693,22.12046 14.81755,22.79258 L23.861,30.52691 L23.861,25.235 L23.861,25.235 Z" id="Path" stroke="#000000" fill="#D20014"></path>
                                <polygon id="Path" stroke="#000000" fill="#F1B517" points="23.139 23.757 5.5996 4.9764 4.9151 5.45995 23.4763 26.08155 23.139 23.75696"></polygon>
                                <polygon id="Path" stroke="#000000" fill="#F1B517" points="4.586 3.772 4.20097 3.32625 4.23947 2.43474 0.62022 0.1317 2.23733 3.772 3.46942 3.99487 3.85445 4.44062 4.586 3.772"></polygon>
                                <path d="M2.738,5.11 C3.35404,4.36708 4.08559,3.62416 5.39468,2.91839 L6.39575,4.36708 L4.2396,6.18723 L2.738,5.11 L2.738,5.11 Z" id="Path" stroke="#000000" fill="#F1B517"></path>
                                <path d="M0.811,8.278 C0.811,8.278 1.3989,9.30432 1.3989,9.30432 C1.76283,9.16928 5.43018,5.84723 5.43018,5.84723 L8.06172,5.76623 L8.81759,4.92897 C6.88593,2.84931 5.06625,5.22606 5.06625,5.22606 L0.811,8.27802 L0.811,8.278 Z" id="Path" stroke="#0A328C" fill="#0A328C"></path>
                                <path d="M2.911,10.00701 C3.05098,9.08871 4.78667,6.79298 5.03862,6.71196 C6.34179,7.10313 7.55399,7.85312 8.87395,4.87538 C7.72615,6.33384 5.40256,4.84838 5.40256,4.84838 L4.39474,5.68564 L4.42274,6.09077 L1.37128,8.92667 L2.91101,10.00701 L2.911,10.00701 Z" id="Path" stroke="#D20014" fill="#D20014"></path>
                            </g>
                            <g id="Group" transform="translate(6.000000, 5.000000)">
                                <path d="M20.252,16.672 L5.885,5.2607 C3.42528,7.76377 5.47033,15.4924 5.47033,15.4924 L19.51253,23.0996 L20.252,16.67207 L20.252,16.672 Z" id="Path" stroke="#000000" fill="#0A328C"></path>
                                <path d="M32.166,25.917 L20.3477,16.45004 C16.31162,17.01643 19.48448,22.95622 19.72513,23.6106 L32.20613,30.37907 L32.16593,25.917 L32.166,25.917 Z" id="Path" stroke="#000000" fill="#D20014"></path>
                                <polygon id="Path" stroke="#000000" fill="#F1B517" points="31.697 24.005 6.1431 4.8234 5.55603 5.41428 32.39313 26.36918 31.697 24.00509"></polygon>
                                <polygon id="Path" stroke="#000000" fill="#F1B517" points="4.928 3.807 4.46859 3.43253 4.34605 2.54812 0.36726 0.88639 2.61502 4.20047 3.8685 4.21357 4.32791 4.58804 4.928 3.80702"></polygon>
                                <path d="M3.349,5.433 C3.82197,4.59817 4.40869,3.74398 5.57086,2.82962 L6.81747,4.08859 L5.02169,6.2423 L3.349,5.433 Z" id="Path" stroke="#000000" fill="#F1B517"></path>
                                <path d="M1.925,8.641 C1.925,8.641 2.08419,9.701 2.08419,9.701 C2.42175,9.5127 5.64526,5.97516 5.64526,5.97516 L8.23125,5.49797 L8.75807,4.66498 C6.9609,2.55134 5.0451,5.36252 5.0451,5.36252 L1.925,8.641 L1.925,8.641 Z" id="Path" stroke="#0A328C" fill="#0A328C"></path>
                                <path d="M3.971,10.545 C3.84837,9.56288 5.19045,6.68235 5.42616,6.5643 C6.97268,7.02407 8.31956,7.71691 8.88847,4.4956 C7.99129,6.10933 5.42745,4.85779 5.42745,4.85779 L4.56779,5.83685 L4.68913,6.36781 L2.07909,9.73735 L3.971,10.545 L3.971,10.545 Z" id="Path" stroke="#D20014" fill="#D20014"></path>
                            </g>
                            <g id="Group" transform="translate(0.000000, 14.000000)">
                                <path d="M25.2241,14.651 C25.03339,14.605 6.7068,4.2088 6.7068,4.2088 C5.37256,6.46144 6.57922,9.72944 7.16412,10.23771 C7.19802,11.73761 6.56159,12.54423 7.87072,15.67674 C8.25681,17.71345 9.19916,19.58986 10.57087,20.70439 C12.24201,27.12113 18.79321,27.55212 21.31667,22.32843 L25.2241,14.65105 L25.2241,14.651 Z" id="Path" stroke="#000000" fill="#0A328C"></path>
                                <path d="M37.352,21.512 L24.8039,14.15733 C20.76782,14.72371 24.8894,22.21252 25.13009,22.8669 L37.24619,27.17103 L37.352,21.512 L37.352,21.512 Z" id="Path" stroke="#000000" fill="#D20014"></path>
                                <polygon id="Path" stroke="#000000" fill="#F1B517" points="35.243 18.846 6.8934 3.7571 6.40937 4.42931 36.31387 21.07591 35.24298 18.84599"></polygon>
                                <polygon id="Path" stroke="#000000" fill="#F1B517" points="5.528 2.937 5.01353 2.63647 4.74909 1.78145 0.54983 0.74067 3.3073 3.67471 4.54747 3.49845 5.06194 3.79898"></polygon>
                                <path d="M4.232,4.782 C4.56378,3.88606 5.00477,2.95384 6.00437,1.87534 L7.43977,2.93067 L6.01532,5.32889 L4.232,4.782 L4.232,4.782 Z" id="Path" stroke="#000000" fill="#F1B517"></path>
                                <path d="M3.1,8.181 C3.1,8.181 3.69329,9.34776 3.69329,9.34776 C4.00039,9.11596 6.69671,4.76959 6.69671,4.76959 L9.18871,3.94983 L9.65781,2.93594 C7.65623,1.08689 6.16043,4.27819 6.16043,4.27819 L3.1,8.181 Z" id="Path" stroke="#0A328C" fill="#0A328C"></path>
                                <path d="M5.772,9.836 C5.57158,8.83733 6.25576,5.63917 6.47215,5.49062 C8.03289,5.95626 9.33542,6.08848 9.69529,2.86853 C8.78768,4.39796 6.3674,3.82187 6.3674,3.82187 L5.65735,4.90683 L5.8069,5.28636 L3.74819,9.23718 L5.772,9.836 L5.772,9.836 Z" id="Path" stroke="#D20014" fill="#D20014"></path>
                            </g>
                        </g>
                        <g id="flags_half-link" transform="translate(58.358520, 21.000000) scale(-1, 1) translate(-58.358520, -21.000000) translate(38.858520, 0.000000)">
                            <g id="flags_half">
                                <g id="Group" transform="translate(25.000000, 3.000000)" stroke="#000000">
                                    <polygon id="Path" fill="#F1B517" points="8.529 7.512 9.92596 7.4791 12.48137 18.2281 11.93621 21.61386 8.529 7.51206"></polygon>
                                    <polygon id="Path" fill="#FFFFFF" points="7.064 0.346 8.01802 8.6296 9.04018 8.5639 7.064 0.34604"></polygon>
                                    <polygon id="Path" fill="#F1B517" points="9.722 18.589 5.42892 7.0511 7.03031 6.9525 12.03891 21.0543 9.722 18.58894"></polygon>
                                    <polygon id="Path" fill="#FFFFFF" points="3.419 0.477 5.19075 8.49763 6.62178 8.49763"></polygon>
                                    <polygon id="Path" fill="#F1B517" points="5.906 14.546 3.38466 9.12221 4.47497 8.89211 9.0747 17.89888 5.906 14.546"></polygon>
                                    <polygon id="Path" fill="#FFFFFF" points="0.08 2.778 2.87391 10.40418 4.30494 10.40418"></polygon>
                                </g>
                                <g id="Group" transform="translate(14.000000, 0.000000)">
                                    <path d="M17.249,18.364 L5.8134,5.8799 C2.24176,8.70804 2.90533,13.90106 2.90533,13.90106 L15.86233,24.06716 L17.249,18.36398 L17.249,18.364 Z" id="Path" stroke="#000000" fill="#0A328C"></path>
                                    <path d="M23.861,25.235 L15.3776,16.64144 C11.791,16.7659 14.63693,22.12046 14.81755,22.79258 L23.861,30.52691 L23.861,25.235 L23.861,25.235 Z" id="Path" stroke="#000000" fill="#D20014"></path>
                                    <polygon id="Path" stroke="#000000" fill="#F1B517" points="23.139 23.757 5.5996 4.9764 4.9151 5.45995 23.4763 26.08155 23.139 23.75696"></polygon>
                                    <polygon id="Path" stroke="#000000" fill="#F1B517" points="4.586 3.772 4.20097 3.32625 4.23947 2.43474 0.62022 0.1317 2.23733 3.772 3.46942 3.99487 3.85445 4.44062 4.586 3.772"></polygon>
                                    <path d="M2.738,5.11 C3.35404,4.36708 4.08559,3.62416 5.39468,2.91839 L6.39575,4.36708 L4.2396,6.18723 L2.738,5.11 L2.738,5.11 Z" id="Path" stroke="#000000" fill="#F1B517"></path>
                                    <path d="M0.811,8.278 C0.811,8.278 1.3989,9.30432 1.3989,9.30432 C1.76283,9.16928 5.43018,5.84723 5.43018,5.84723 L8.06172,5.76623 L8.81759,4.92897 C6.88593,2.84931 5.06625,5.22606 5.06625,5.22606 L0.811,8.27802 L0.811,8.278 Z" id="Path" stroke="#0A328C" fill="#0A328C"></path>
                                    <path d="M2.911,10.00701 C3.05098,9.08871 4.78667,6.79298 5.03862,6.71196 C6.34179,7.10313 7.55399,7.85312 8.87395,4.87538 C7.72615,6.33384 5.40256,4.84838 5.40256,4.84838 L4.39474,5.68564 L4.42274,6.09077 L1.37128,8.92667 L2.91101,10.00701 L2.911,10.00701 Z" id="Path" stroke="#D20014" fill="#D20014"></path>
                                </g>
                                <g id="Group" transform="translate(6.000000, 5.000000)">
                                    <path d="M20.252,16.672 L5.885,5.2607 C3.42528,7.76377 5.47033,15.4924 5.47033,15.4924 L19.51253,23.0996 L20.252,16.67207 L20.252,16.672 Z" id="Path" stroke="#000000" fill="#0A328C"></path>
                                    <path d="M32.166,25.917 L20.3477,16.45004 C16.31162,17.01643 19.48448,22.95622 19.72513,23.6106 L32.20613,30.37907 L32.16593,25.917 L32.166,25.917 Z" id="Path" stroke="#000000" fill="#D20014"></path>
                                    <polygon id="Path" stroke="#000000" fill="#F1B517" points="31.697 24.005 6.1431 4.8234 5.55603 5.41428 32.39313 26.36918 31.697 24.00509"></polygon>
                                    <polygon id="Path" stroke="#000000" fill="#F1B517" points="4.928 3.807 4.46859 3.43253 4.34605 2.54812 0.36726 0.88639 2.61502 4.20047 3.8685 4.21357 4.32791 4.58804 4.928 3.80702"></polygon>
                                    <path d="M3.349,5.433 C3.82197,4.59817 4.40869,3.74398 5.57086,2.82962 L6.81747,4.08859 L5.02169,6.2423 L3.349,5.433 Z" id="Path" stroke="#000000" fill="#F1B517"></path>
                                    <path d="M1.925,8.641 C1.925,8.641 2.08419,9.701 2.08419,9.701 C2.42175,9.5127 5.64526,5.97516 5.64526,5.97516 L8.23125,5.49797 L8.75807,4.66498 C6.9609,2.55134 5.0451,5.36252 5.0451,5.36252 L1.925,8.641 L1.925,8.641 Z" id="Path" stroke="#0A328C" fill="#0A328C"></path>
                                    <path d="M3.971,10.545 C3.84837,9.56288 5.19045,6.68235 5.42616,6.5643 C6.97268,7.02407 8.31956,7.71691 8.88847,4.4956 C7.99129,6.10933 5.42745,4.85779 5.42745,4.85779 L4.56779,5.83685 L4.68913,6.36781 L2.07909,9.73735 L3.971,10.545 L3.971,10.545 Z" id="Path" stroke="#D20014" fill="#D20014"></path>
                                </g>
                                <g id="Group" transform="translate(0.000000, 14.000000)">
                                    <path d="M25.2241,14.651 C25.03339,14.605 6.7068,4.2088 6.7068,4.2088 C5.37256,6.46144 6.57922,9.72944 7.16412,10.23771 C7.19802,11.73761 6.56159,12.54423 7.87072,15.67674 C8.25681,17.71345 9.19916,19.58986 10.57087,20.70439 C12.24201,27.12113 18.79321,27.55212 21.31667,22.32843 L25.2241,14.65105 L25.2241,14.651 Z" id="Path" stroke="#000000" fill="#0A328C"></path>
                                    <path d="M37.352,21.512 L24.8039,14.15733 C20.76782,14.72371 24.8894,22.21252 25.13009,22.8669 L37.24619,27.17103 L37.352,21.512 L37.352,21.512 Z" id="Path" stroke="#000000" fill="#D20014"></path>
                                    <polygon id="Path" stroke="#000000" fill="#F1B517" points="35.243 18.846 6.8934 3.7571 6.40937 4.42931 36.31387 21.07591 35.24298 18.84599"></polygon>
                                    <polygon id="Path" stroke="#000000" fill="#F1B517" points="5.528 2.937 5.01353 2.63647 4.74909 1.78145 0.54983 0.74067 3.3073 3.67471 4.54747 3.49845 5.06194 3.79898"></polygon>
                                    <path d="M4.232,4.782 C4.56378,3.88606 5.00477,2.95384 6.00437,1.87534 L7.43977,2.93067 L6.01532,5.32889 L4.232,4.782 L4.232,4.782 Z" id="Path" stroke="#000000" fill="#F1B517"></path>
                                    <path d="M3.1,8.181 C3.1,8.181 3.69329,9.34776 3.69329,9.34776 C4.00039,9.11596 6.69671,4.76959 6.69671,4.76959 L9.18871,3.94983 L9.65781,2.93594 C7.65623,1.08689 6.16043,4.27819 6.16043,4.27819 L3.1,8.181 Z" id="Path" stroke="#0A328C" fill="#0A328C"></path>
                                    <path d="M5.772,9.836 C5.57158,8.83733 6.25576,5.63917 6.47215,5.49062 C8.03289,5.95626 9.33542,6.08848 9.69529,2.86853 C8.78768,4.39796 6.3674,3.82187 6.3674,3.82187 L5.65735,4.90683 L5.8069,5.28636 L3.74819,9.23718 L5.772,9.836 L5.772,9.836 Z" id="Path" stroke="#D20014" fill="#D20014"></path>
                                </g>
                            </g>
                        </g>
                    </g>
                    <g id="tree" transform="translate(27.000000, 1.000000)" fill-rule="nonzero" stroke-width="0.1826">
                        <polygon id="Path" stroke="#016A16" fill="#016A16" points="19.757 12.603 19.29216 21.67311 22.19161 21.67311 21.76744 12.68148 24.78977 12.25701 24.45501 8.67473 16.94445 8.96466 16.98645 12.21777 19.75699 12.603"></polygon>
                        <g id="tree_half" transform="translate(0.000000, 4.000000)" fill="#016A16" stroke="#000000">
                            <path d="M20.817,4.898 C13.05316,-2.87313 6.9391,0.91881 5.4834,1.99553 C6.44568,2.18346 7.30939,1.58408 7.75638,1.51508 C7.47625,1.86867 6.89059,2.74456 6.89059,2.74456 C6.89059,2.74456 9.29122,1.61115 9.55941,1.71465 C9.21339,1.99064 8.83155,2.65093 8.83155,2.65093 C9.01035,2.71993 10.3604,1.59379 10.62694,1.57421 C10.21571,2.03994 10.08806,3.10182 10.08806,3.10182 L11.25775,2.5573 C11.56171,2.77292 11.17325,3.18751 11.43755,3.16582 C13.38169,3.00623 16.11529,4.94308 16.49077,5.53819" id="Path"></path>
                            <path d="M18.895,6.321 C18.08586,4.46701 3.3072,1.31586 0.3354,6.56495 C1.49853,6.85768 2.6111,5.58916 2.6111,5.58916 L2.50996,6.7601 L4.48224,5.24764 L3.77424,6.80889 L5.34195,5.54037 L5.29135,6.80889 L7.21306,4.71096 L6.96021,5.93069 L8.67963,5.19885 L8.47734,6.22342" id="Path"></path>
                            <path d="M18.238,6.614 C14.44516,4.07696 8.5789,5.78458 8.5789,5.78458 C4.83663,7.88251 2.84191,7.50404 2.35863,11.39533 C2.71263,11.24896 3.72406,10.02923 3.72406,10.02923 L4.48263,11.5417 L4.73548,9.39497 L5.34234,11.0538 L6.25262,8.32161 L6.4549,10.1756 L7.8709,8.32161 L8.52832,8.85829 L9.13518,7.44341 L9.69146,8.3704 C9.69146,8.3704 10.65231,7.78493 11.2086,8.12646 L12.27059,6.90673 L12.52345,7.78493 L13.43373,6.71157 L13.78773,7.4922 L14.69801,6.66278 L14.64741,7.24825 L17.78282,7.29705" id="Path"></path>
                            <path d="M17.38,7.053 C14.73672,7.0036 7.1535,9.86455 5.1923,12.8589 C5.97324,12.42273 6.45481,12.22407 6.45481,12.22407 L6.84174,13.42735 L7.31453,12.22407 L7.41567,13.15107 C7.70558,12.42716 8.0331,12.34546 8.57881,13.10227 C8.57881,13.10227 8.78109,11.98012 8.78109,11.98012 L9.08452,13.05348 L9.59023,11.88254 C9.59023,11.88254 9.90835,13.15162 10.09594,13.10227 C10.09594,13.10227 10.93448,10.90789 11.30965,10.80918 L11.41079,12.17527 L11.9165,10.80918 L12.37165,11.83375 L12.47279,10.37008 L12.9785,11.49223 C12.9785,11.49223 13.2437,10.3888 13.63593,10.17492 L14.39449,10.85797 L17.77192,8.43123" id="Path"></path>
                            <path d="M17.888,7.678 C14.36689,9.02751 11.21769,13.85671 11.45886,15.90423 C13.02348,13.9626 12.6865,14.22996 13.3859,16.46362 C13.3859,16.46362 13.65048,14.50928 13.91577,14.27661 L14.375,15.72326 L14.54553,13.83122 L15.01525,13.85292 L14.89467,12.66629 L15.59406,13.20144 C15.43071,12.52294 15.25642,12.29401 15.97994,11.71233 C15.97994,11.71233 15.06349,11.82867 15.787,10.17669 L16.46228,10.82817 C16.46228,10.82817 16.3417,10.10689 16.58287,9.82768 L19.06694,8.96679" id="Path"></path>
                            <path d="M18.229,8.04 L16.89883,10.57368 L17.58097,10.77111 L16.04616,11.92278 L17.34222,11.79116 C17.34222,11.79116 15.36402,12.51507 15.12528,14.45646 L17.13758,13.56802 C17.13758,13.56802 15.43224,15.31199 15.19349,16.36494 L16.35312,15.34489 C16.35312,15.34489 15.2276,16.56237 15.39813,18.40505 L16.2508,17.45081 C16.04616,19.68834 16.11438,19.88577 17.13758,21.59683 C17.13758,21.59683 16.86473,18.96443 17.17168,18.63538 L19.42273,20.97163 L18.16078,17.64824 C18.16078,17.64824 19.55915,19.75415 20.41183,19.55672 L18.63827,16.85852 L20.37772,18.27343 L18.39952,15.31199 L20.24129,15.87137 C20.24129,15.87137 18.91113,14.19322 19.01345,13.14026 L20.2754,14.52227 C20.2754,14.52227 19.7979,12.94283 19.93433,12.48216 L20.58236,12.61378 L19.32041,11.16596 L20.17308,11.00144 L20.07076,10.0472 L20.68468,9.84977 L20.65058,8.79681" id="Path"></path>
                            <path d="M19.559,8.797 C17.37617,11.75844 18.50169,16.33223 17.20563,18.66848" id="Path"></path>
                        </g>
                        <g id="tree_half-link" transform="translate(31.358670, 15.000000) scale(-1, 1) translate(-31.358670, -15.000000) translate(20.858670, 4.000000)" fill="#016A16" stroke="#000000">
                            <g id="tree_half">
                                <path d="M20.817,4.898 C13.05316,-2.87313 6.9391,0.91881 5.4834,1.99553 C6.44568,2.18346 7.30939,1.58408 7.75638,1.51508 C7.47625,1.86867 6.89059,2.74456 6.89059,2.74456 C6.89059,2.74456 9.29122,1.61115 9.55941,1.71465 C9.21339,1.99064 8.83155,2.65093 8.83155,2.65093 C9.01035,2.71993 10.3604,1.59379 10.62694,1.57421 C10.21571,2.03994 10.08806,3.10182 10.08806,3.10182 L11.25775,2.5573 C11.56171,2.77292 11.17325,3.18751 11.43755,3.16582 C13.38169,3.00623 16.11529,4.94308 16.49077,5.53819" id="Path"></path>
                                <path d="M18.895,6.321 C18.08586,4.46701 3.3072,1.31586 0.3354,6.56495 C1.49853,6.85768 2.6111,5.58916 2.6111,5.58916 L2.50996,6.7601 L4.48224,5.24764 L3.77424,6.80889 L5.34195,5.54037 L5.29135,6.80889 L7.21306,4.71096 L6.96021,5.93069 L8.67963,5.19885 L8.47734,6.22342" id="Path"></path>
                                <path d="M18.238,6.614 C14.44516,4.07696 8.5789,5.78458 8.5789,5.78458 C4.83663,7.88251 2.84191,7.50404 2.35863,11.39533 C2.71263,11.24896 3.72406,10.02923 3.72406,10.02923 L4.48263,11.5417 L4.73548,9.39497 L5.34234,11.0538 L6.25262,8.32161 L6.4549,10.1756 L7.8709,8.32161 L8.52832,8.85829 L9.13518,7.44341 L9.69146,8.3704 C9.69146,8.3704 10.65231,7.78493 11.2086,8.12646 L12.27059,6.90673 L12.52345,7.78493 L13.43373,6.71157 L13.78773,7.4922 L14.69801,6.66278 L14.64741,7.24825 L17.78282,7.29705" id="Path"></path>
                                <path d="M17.38,7.053 C14.73672,7.0036 7.1535,9.86455 5.1923,12.8589 C5.97324,12.42273 6.45481,12.22407 6.45481,12.22407 L6.84174,13.42735 L7.31453,12.22407 L7.41567,13.15107 C7.70558,12.42716 8.0331,12.34546 8.57881,13.10227 C8.57881,13.10227 8.78109,11.98012 8.78109,11.98012 L9.08452,13.05348 L9.59023,11.88254 C9.59023,11.88254 9.90835,13.15162 10.09594,13.10227 C10.09594,13.10227 10.93448,10.90789 11.30965,10.80918 L11.41079,12.17527 L11.9165,10.80918 L12.37165,11.83375 L12.47279,10.37008 L12.9785,11.49223 C12.9785,11.49223 13.2437,10.3888 13.63593,10.17492 L14.39449,10.85797 L17.77192,8.43123" id="Path"></path>
                                <path d="M17.888,7.678 C14.36689,9.02751 11.21769,13.85671 11.45886,15.90423 C13.02348,13.9626 12.6865,14.22996 13.3859,16.46362 C13.3859,16.46362 13.65048,14.50928 13.91577,14.27661 L14.375,15.72326 L14.54553,13.83122 L15.01525,13.85292 L14.89467,12.66629 L15.59406,13.20144 C15.43071,12.52294 15.25642,12.29401 15.97994,11.71233 C15.97994,11.71233 15.06349,11.82867 15.787,10.17669 L16.46228,10.82817 C16.46228,10.82817 16.3417,10.10689 16.58287,9.82768 L19.06694,8.96679" id="Path"></path>
                                <path d="M18.229,8.04 L16.89883,10.57368 L17.58097,10.77111 L16.04616,11.92278 L17.34222,11.79116 C17.34222,11.79116 15.36402,12.51507 15.12528,14.45646 L17.13758,13.56802 C17.13758,13.56802 15.43224,15.31199 15.19349,16.36494 L16.35312,15.34489 C16.35312,15.34489 15.2276,16.56237 15.39813,18.40505 L16.2508,17.45081 C16.04616,19.68834 16.11438,19.88577 17.13758,21.59683 C17.13758,21.59683 16.86473,18.96443 17.17168,18.63538 L19.42273,20.97163 L18.16078,17.64824 C18.16078,17.64824 19.55915,19.75415 20.41183,19.55672 L18.63827,16.85852 L20.37772,18.27343 L18.39952,15.31199 L20.24129,15.87137 C20.24129,15.87137 18.91113,14.19322 19.01345,13.14026 L20.2754,14.52227 C20.2754,14.52227 19.7979,12.94283 19.93433,12.48216 L20.58236,12.61378 L19.32041,11.16596 L20.17308,11.00144 L20.07076,10.0472 L20.68468,9.84977 L20.65058,8.79681" id="Path"></path>
                                <path d="M19.559,8.797 C17.37617,11.75844 18.50169,16.33223 17.20563,18.66848" id="Path"></path>
                            </g>
                        </g>
                        <g id="trunk" transform="translate(18.000000, 21.000000)" fill="#F1B517" stroke="#000000">
                            <path d="M3.945,32.535 C3.945,32.535 5.13365,22.59022 5.13079515,18.3096 C5.12879,14.94095 4.31687,7.4747 4.31687,7.4747 L0.89985,7.4747 C0.89985,7.4747 0.37984,14.90373 0.45781,18.2636 C0.55721,22.54539 1.64359,32.535 1.64359,32.535 L3.945,32.535 L3.945,32.535 Z" id="Path"></path>
                            <polygon id="Path" points="0.674 7.953 4.63363 7.953 4.16876 5.2871 1.29864 5.2871 0.674 7.953"></polygon>
                            <polygon id="Path" points="0.927 5.816 4.46553 5.816 3.79853 3.1501 1.61902 3.1501"></polygon>
                            <polygon id="Path" points="1.155 3.655 4.10397 3.655 3.60541 0.9891 1.7291 0.9891 1.155 3.655"></polygon>
                            <polygon id="Path" points="3.709 0.673 1.64626 0.673 1.43709 1.63719 3.8775 1.63719"></polygon>
                            <line x1="4.132" y1="30.367" x2="1.51165" y2="30.367" id="Path"></line>
                            <line x1="4.275" y1="28.42" x2="1.3346" y2="28.42" id="Path"></line>
                            <line x1="4.664" y1="26.444" x2="0.93717" y2="26.444" id="Path"></line>
                            <line x1="4.856" y1="24.291" x2="0.95543" y2="24.291" id="Path"></line>
                            <line x1="4.883" y1="22.139" x2="0.78125" y2="22.139" id="Path"></line>
                            <line x1="5.043" y1="20.171" x2="0.59377" y2="20.171" id="Path"></line>
                            <line x1="5.053" y1="18.38" x2="0.40259" y2="18.38" id="Path"></line>
                            <line x1="5.025" y1="16.219" x2="0.37458" y2="16.219" id="Path"></line>
                            <line x1="4.87" y1="14.084" x2="0.37504" y2="14.084" id="Path"></line>
                            <line x1="4.664" y1="11.914" x2="0.59883" y2="11.914" id="Path"></line>
                            <line x1="4.467" y1="9.955" x2="0.79503" y2="9.955" id="Path"></line>
                        </g>
                        <g id="cap" transform="translate(19.000000, 0.000000)">
                            <path d="M1.909,6.044 C1.22073,5.72009 -0.33639,4.7314 0.12555,4.14121 C0.12555,4.14121 0.83893,2.92667 0.83893,2.92667 C1.84955,0.65003 0.82053,1.53208 0.71304,0.82146 C0.6098,0.13908 4.57755,0.67196 4.63663,2.21819 C4.65293,2.64411 4.34233,2.39415 4.38485,4.82945 C4.38485,4.82945 3.62951,6.28691 3.62951,6.28691 C3.06455,6.33951 2.39556,6.27301 1.909,6.044 L1.909,6.044 Z" id="Path" stroke="#0A328C" fill="#0A328C"></path>
                            <polygon id="Path" stroke="#000000" fill="#F1B517" points="2.392 11.934 1.40586 11.10406 1.67862 3.99899 2.64378 4.28238"></polygon>
                            <path d="M3.672,6.246 C4.29115,5.88364 4.69643,4.80299 4.32243,4.16104 C3.30636,2.8736 2.64873,3.40484 0.94437,2.82504 C0.60447,3.18707 -0.11124,3.8837 0.04215,4.40394 C2.28437,5.45956 1.41377,4.56048 2.15565,4.69198 C2.55559,4.76288 2.81402,5.23706 3.672,6.246 L3.672,6.246 Z" id="Path" stroke="#D20014" fill="#D20014"></path>
                        </g>
                    </g>
                    <g id="items" transform="translate(1.000000, 44.000000)">
                        <g id="i1" transform="translate(31.000000, 1.000000)" fill-rule="nonzero">
                            <g id="ip-link" transform="translate(2.497739, 2.369680) scale(-1, 1) rotate(-180.000000) translate(-2.497739, -2.369680) translate(-0.002261, 1.369680)" fill="#016A16" stroke="#FFFFFF" stroke-linecap="round" stroke-width="0.2373">
                                <path d="M4.538,0.118 C4.27302,0.61119 3.47739,0.97008 2.53919,0.97008 C1.60099,0.97007 0.81117,0.61119 0.54618,0.118 C0.48508,0.23181 0.44738,0.35135 0.44738,0.47677 C0.44738,1.14569 1.38446,1.68761 2.53917,1.68761 C3.69388,1.68761 4.63095,1.14569 4.63095,0.47677 C4.63095,0.35135 4.59915,0.23181 4.53795,0.118 L4.538,0.118 Z" id="ip"></path>
                            </g>
                            <path d="M4.358,4.75 C4.358,6.04873 3.54342,7.10278 2.53973,7.10278 C1.53604,7.10278 0.72146,6.04873 0.72146,4.75 L0.72146,3.47353 L4.358,3.47353 L4.358,4.75 L4.358,4.75 Z" id="Path" stroke="#FFFFFF" stroke-width="0.1811" fill="#016A16" stroke-linecap="round"></path>
                            <ellipse id="Oval" fill="#FFFFFF" cx="2.539" cy="3.063" rx="1.806" ry="1"></ellipse>
                            <polygon id="Path" stroke="#F1B517" stroke-width="0.1826" fill="#016A16" points="2.126 4.075 1.81578 0.77778 3.19766 0.77778 2.97205 4.075 2.126 4.075"></polygon>
                            <path d="M4.538,3.118 C4.27302,3.61119 3.47739,3.97008 2.53919,3.97008 C1.60099,3.97007 0.81117,3.61119 0.54618,3.118 C0.48508,3.23181 0.44738,3.35135 0.44738,3.47677 C0.44738,4.14569 1.38446,4.68761 2.53917,4.68761 C3.69388,4.68761 4.63095,4.14569 4.63095,3.47677 C4.63095,3.35135 4.59915,3.23181 4.53795,3.118 L4.538,3.118 Z" id="ip" stroke="#FFFFFF" stroke-width="0.2373" fill="#016A16" stroke-linecap="round"></path>
                        </g>
                        <g id="items_half" fill-rule="nonzero" stroke-width="0.1826">
                            <polygon id="cannon_base" stroke="#000000" fill="#F1B517" points="43.035 16.786 35.97487 14.59664 32.89867 9.34218 22.00587 8.80701 22.38417 12.7477 31.6632 14.52389 32.54563 16.10516 43.21153 19.07311 43.03495 16.786"></polygon>
                            <g id="i2" transform="translate(22.000000, 0.000000)" stroke="#000000">
                                <polygon id="Path" fill="#503200" points="13.662 18.254 2.5135 1.8558 1.96634 2.26736 13.02674 18.73406 13.66199 18.25391"></polygon>
                                <path d="M3.551,2.5 L2.36078,0.50819 C2.13797,0.14007 1.7996,0.01786 1.30241,0.27987 C0.8183,0.53499 0.86536,1.03915 1.06254,1.40282 L2.16296,3.25489 L3.551,2.5 L3.551,2.5 Z" id="Path" fill="#FFFFFF"></path>
                            </g>
                            <g id="cannon" transform="translate(13.000000, 5.000000)" fill="#F1B517" stroke="#000000">
                                <polygon id="Path" points="23.986 3.127 1.4896 0.84056 0.94269 4.11193 23.32969 6.3632 23.98599 3.127"></polygon>
                                <polygon id="Path" points="1.089 -0.003 0.50563 4.5347 1.45361 4.5347 2.10991 0.38393"></polygon>
                                <polygon id="Path" points="4.844 0.735 4.58878 4.81542 5.17215 4.88582 5.64614 1.26268 4.844 0.73504"></polygon>
                                <polygon id="Path" points="20.085 2.494 19.53809 6.32819 20.63191 6.29299 21.06944 2.49398 20.085 2.49398"></polygon>
                                <path d="M23.436,2.59898 L22.65739,7.03315 L23.89503,7.21254 L24.24947,4.88055 C24.34897,5.34911 24.78042,5.70459 25.29536,5.70459 C25.88387,5.70459 26.3645,5.2409 26.3645,4.67313 C26.3645,4.10536 25.88387,3.64728 25.29536,3.64728 C24.88617,3.64728 24.51493,3.88723 24.35406,4.33425 L24.58648,2.67188 L23.436,2.59898 L23.436,2.59898 Z" id="Path"></path>
                                <polygon id="Path" points="15.317 3.319 12.22319 6.80124 12.58414 7.22409 16.55452 4.51291 15.317 3.319"></polygon>
                                <polygon id="Path" points="8.124 12 11.21781 8.51775 10.85687 8.09491 6.88648 10.80609 8.124 12"></polygon>
                                <polygon id="Path" points="16.22 11.129 12.45587 8.21884 12.06914 8.49244 15.03404 12.24829"></polygon>
                                <polygon id="Path" points="6.938 4.413 10.7537 7.22367 11.21777 6.87544 8.22709 3.11959 6.938 4.413"></polygon>
                                <polygon id="Path" points="11.09 2.094 11.45461 6.66688 11.96818 6.64498 13.17528 2.19345 11.09 2.09395"></polygon>
                                <polygon id="Path" points="12.341 13.189 11.9764 8.61611 11.41125 8.56331 10.71979 13.18896 12.341 13.18896"></polygon>
                                <polygon id="Path" points="17.401 7.026 12.60639 7.53605 12.53349 7.99334 17.38278 8.62651 17.40098 7.026"></polygon>
                                <polygon id="Path" points="5.993 8.609 10.6738 7.86906 10.7725 7.50522 5.93075 6.96426 5.99295 8.609"></polygon>
                                <ellipse id="Oval" cx="11.693" cy="7.548" rx="1.27" ry="1.225"></ellipse>
                                <path d="M18.438,7.548 C18.438,11.14002 15.41625,14.05527 11.69305,14.05527 C7.96984,14.05527 4.94809,11.14002 4.94809,7.548 C4.94809,3.956 7.96984,1.04074 11.69305,1.04074 C15.41625,1.04074 18.438,3.956 18.438,7.548 Z M17.09058,7.54801 C17.09058,10.42247 14.67247,12.75535 11.69303,12.75535 C8.71359,12.75535 6.29549,10.42247 6.29549,7.54801 C6.29549,4.67356 8.71359,2.34067 11.69303,2.34067 C14.67247,2.34067 17.09058,4.67356 17.09058,7.54801 Z" id="Shape" stroke-linecap="round"></path>
                                <line x1="7.48" y1="4.264" x2="6.42295" y2="3.46805" id="Path"></line>
                                <line x1="15.034" y1="3.493" x2="15.93636" y2="2.57269" id="Path"></line>
                                <line x1="16.967" y1="11.701" x2="15.85838" y2="10.83044" id="Path"></line>
                                <line x1="7.48" y1="12.696" x2="8.43392" y2="11.6762" id="Path"></line>
                            </g>
                            <g id="axe" transform="translate(39.000000, 4.000000)" stroke="#000000">
                                <polygon id="Path" fill="#F1B517" points="4.196 2.122 5.35096 8.0084 4.40888 8.5046 3.3954 2.20619 4.196 2.12199"></polygon>
                                <path d="M3.592,1.364 C3.05652,1.14013 2.3604,1.51898 1.21804,0.07247 C-0.66027,1.7945 1.11095,2.05281 1.39653,3.75762 C1.92768,3.9759 2.25489,2.43479 3.69909,2.27667 C3.87759,2.25947 5.99694,2.07356 5.99694,2.07356 C5.99694,2.07356 5.46493,1.34843 5.46493,1.34843 C5.46493,1.34843 3.99094,1.38713 3.592,1.36403 L3.592,1.364 Z" id="Path" fill="#FFFFFF"></path>
                                <path d="M4.359,2.518 L4.14481,0.76153 C3.91277,0.1416 3.14525,0.67543 3.14525,1.03705 L3.34159,2.65576 L4.359,2.518 Z" id="Path" fill="#FFFFFF"></path>
                            </g>
                            <path d="M37.765,11.372 L37.7838,13.00886 C37.24807,13.19225 37.3298,13.59384 37.34708,14.17738 L37.36588,18.94851 C37.17578,19.26529 36.58821,19.28004 36.3117,19.52821 C36.0352,19.77638 36.06976,20.25796 37.33131,20.57474 L38.30688,20.60964 C39.7931,20.28452 40.09985,19.79233 39.35458,19.51479 C38.95813,19.36715 38.43649,19.19105 38.23776,18.95763 L38.27076,17.82093 L39.23532,17.85583 C39.49455,17.85583 39.98782,17.20415 40.0051,16.67063 L40.0101,14.20019 C39.9755,12.79969 38.92459,12.64216 38.6308,12.65883 L38.6512,11.36905 L37.76518,11.37205 L37.765,11.372 Z M39.39559,14.10212 C39.41289,13.70198 38.83999,13.34518 38.60928,13.33518 C38.37857,13.32518 37.87481,13.80201 37.85753,14.20215 L37.85753,15.20251 C37.89213,15.56931 38.18508,16.81175 38.77345,16.90311 C39.05217,16.94641 39.41287,16.50297 39.41287,16.13617 L39.39557,14.10212 L39.39559,14.10212 Z" id="bugle" stroke="#000000" fill="#F1B517"></path>
                            <g id="i3" transform="translate(29.000000, 16.000000)" fill="#FFFFFF" stroke="#000000">
                                <path d="M2.275,0.328 C1.63857,0.07078 1.64472,1.49986 1.64472,1.49986 L2.6475,1.51036 C3.08612,1.70949 3.43896,2.353 3.15928,2.66886 C2.92804,2.93001 0.98197,2.2278 0.85136,2.63166 C1.19537,4.57325 3.76814,5.32033 4.69909,4.47097 C5.6096,3.64025 5.84017,1.42316 2.88161,0.84235 L2.275,0.32802 L2.275,0.328 Z" id="Path"></path>
                                <line x1="2.87" y1="0.856" x2="2.57759" y2="1.49489" id="Path"></line>
                            </g>
                            <g id="small_flag" transform="translate(0.000000, 7.000000)">
                                <line x1="11.943" y1="10.055" x2="10.97975" y2="6.00588" id="Path" stroke="#000000" fill="#F1B517"></line>
                                <line x1="13.112" y1="9.822" x2="11.63272" y2="6.66899" id="Path" stroke="#000000" fill="#F1B517"></line>
                                <line x1="15.658" y1="8.993" x2="12.32102" y2="7.20077" id="Path" stroke="#000000" fill="#F1B517"></line>
                                <line x1="17.103" y1="8.628" x2="10.91068" y2="5.93964" id="Path" stroke="#000000" fill="#F1B517"></line>
                                <path d="M7.215,3.013 C7.215,3.013 4.96123,2.9774 4.55929,3.135 C4.39711,3.1986 5.12617,3.95956 4.97481,4.25049 C4.41173,5.33275 0.58051,5.18445 0.27763,4.94766 C-0.24054,4.54256 3.84596,4.19501 3.87278,3.91933 C3.90358,3.60288 3.26845,2.77261 3.36693,2.26353 C3.4947,1.60302 5.15547,1.3572 5.15547,1.3572 L7.215,3.013 L7.215,3.013 Z" id="Path" stroke="#D20014" fill="#D20014"></path>
                                <path d="M10.233,5.05 L5.13077,0.82789 C5.13077,0.82789 4.90599,0.58969 4.71795,0.79469 C4.53382,0.99543 4.78675,1.22615 4.78675,1.22615 L10.05023,5.57398 L10.233,5.04999 L10.233,5.05 Z" id="Path" stroke="#000000" fill="#503200"></path>
                                <path d="M15.146,9.217 C15.0557,9.1299 10.9908,5.60911 10.9908,5.60911 L10.71981,4.58078 C10.71981,4.58078 10.09201,5.00605 9.86167,5.22566 C9.63133,5.44527 9.27452,6.04485 9.27452,6.04485 L10.41269,6.09715 L14.00784,9.39131 L15.146,9.21701 L15.146,9.217 Z" id="Path" stroke="#000000" fill="#F1B517"></path>
                            </g>
                            <g id="cannonballs" transform="translate(15.000000, 18.000000)" fill="#F1B517" stroke="#000000">
                                <ellipse id="Oval" cx="14.534" cy="3.056" rx="1" ry="1"></ellipse>
                                <ellipse id="Oval" cx="12.641" cy="1.716" rx="1" ry="1"></ellipse>
                                <ellipse id="Oval" cx="10.091" cy="2.593" rx="1" ry="1"></ellipse>
                                <ellipse id="Oval" cx="6.153" cy="3.445" rx="1" ry="1"></ellipse>
                                <ellipse id="Oval" cx="4.487" cy="3.64" rx="1" ry="1"></ellipse>
                                <ellipse id="Oval" cx="2.846" cy="3.64" rx="1" ry="1"></ellipse>
                                <ellipse id="Oval" cx="1.18" cy="3.591" rx="1" ry="1"></ellipse>
                                <ellipse id="Oval" cx="1.988" cy="2.325" rx="1" ry="1"></ellipse>
                                <ellipse id="Oval" cx="3.604" cy="2.398" rx="1" ry="1"></ellipse>
                                <ellipse id="Oval" cx="5.144" cy="2.203" rx="1" ry="1"></ellipse>
                                <ellipse id="Oval" cx="4.361" cy="0.961" rx="1" ry="1"></ellipse>
                                <ellipse id="Oval" cx="2.846" cy="0.937" rx="1" ry="1"></ellipse>
                            </g>
                            <path d="M33.47,21.991 C33.47,21.67451 32.70141,21.81064 32.70141,21.44028 C32.70141,21.02874 33.87358,21.33125 34.03552,21.69331 C34.69516,21.09724 34.97954,21.53294 35.38364,21.71301 C35.9591,20.85762 36.67062,20.88958 37.36497,21.51595 C37.76643,21.07308 38.77463,21.21948 39.12161,21.71301 C39.78627,21.05391 40.37652,21.2163 40.8374,21.69331 C41.02278,21.34679 41.29485,21.42261 41.49103,21.67361 C41.84517,21.04533 42.73312,21.23394 43.10686,21.64871 C43.43917,21.28345 43.77957,21.56871 44.22062,21.83853 C44.51846,21.55983 44.99889,21.61237 44.99889,21.88943 C44.99889,22.17832 44.3711,22.07662 44.3711,22.36333 C44.3711,22.61912 44.82906,22.48979 44.82906,22.81333 C44.82906,23.06802 44.14933,23.1635 44.04429,22.75743 C43.81408,23.19714 42.98243,23.02831 42.90043,22.61949 C42.62374,22.95352 42.00339,23.05517 41.65444,22.56039 C41.36787,22.79354 41.02494,22.82691 40.86749,22.59149 C40.3504,23.14743 39.47879,23.03319 39.17854,22.42032 C39.17854,22.42032 38.88508,22.43282 38.88508,22.43282 C38.37714,23.12253 37.58329,22.80389 37.36497,22.42242 C36.51227,23.03761 36.00286,22.84387 35.52662,22.44212 C34.97949,23.10877 34.14581,23.06224 33.95381,22.44212 C33.58562,22.71041 32.81745,22.77356 32.81745,22.45972 C32.81745,22.15904 33.47,22.26835 33.47,21.99096 L33.47,21.991 Z M35.12458,22.140765 C35.12458,22.28397 34.92966,22.40019 34.689495,22.40019 C34.44932,22.40019 34.25441,22.28397 34.25441,22.140765 C34.25441,21.99757 34.44932,21.88134 34.689495,21.88134 C34.92966,21.88134 35.12458,21.99757 35.12458,22.140765 Z M36.94491,21.922855 C36.94491,22.09523 36.71029,22.23512 36.4212,22.23512 C36.13212,22.23512 35.89749,22.09523 35.89749,21.922855 C35.89749,21.75049 36.13212,21.61059 36.4212,21.61059 C36.71029,21.61059 36.94491,21.75049 36.94491,21.922855 Z M40.51988,22.12001 C40.51988,22.29451 40.30756,22.43612 40.04596,22.43612 C39.78436,22.43612 39.57204,22.29451 39.57204,22.12001 C39.57204,21.94552 39.78436,21.8039 40.04596,21.8039 C40.30756,21.8039 40.51988,21.94552 40.51988,22.12001 Z M38.61644,22.03701 C38.61644,22.25752 38.40878,22.43649 38.15291,22.43649 C37.89704,22.43649 37.68938,22.25752 37.68938,22.03701 C37.68938,21.8165 37.89704,21.63753 38.15291,21.63753 C38.40878,21.63753 38.61644,21.8165 38.61644,22.03701 Z M42.67605,22.04741 C42.67605,22.24453 42.49041,22.40452 42.261685,22.40452 C42.03295,22.40452 41.84732,22.24453 41.84732,22.04741 C41.84732,21.85028 42.03295,21.6903 42.261685,21.6903 C42.49041,21.6903 42.67605,21.85028 42.67605,22.04741 Z M41.43236,22.13041 C41.43236,22.2578 41.31239,22.36119 41.16458,22.36119 C41.01676,22.36119 40.8968,22.2578 40.8968,22.13041 C40.8968,22.00302 41.01676,21.89963 41.16458,21.89963 C41.31239,21.89963 41.43236,22.00302 41.43236,22.13041 Z M43.85421,22.223805 C43.85421,22.40681 43.719,22.55534 43.5524,22.55534 C43.3858,22.55534 43.25059,22.40681 43.25059,22.223805 C43.25059,22.0408 43.3858,21.89227 43.5524,21.89227 C43.719,21.89227 43.85421,22.0408 43.85421,22.223805 Z" id="chain" stroke="#000000" fill="#F1B517"></path>
                        </g>
                        <g id="items_half-link" transform="translate(71.358530, 12.000000) scale(-1, 1) translate(-71.358530, -12.000000) translate(48.858530, 0.000000)" fill-rule="nonzero" stroke-width="0.1826">
                            <g id="items_half">
                                <polygon id="cannon_base" stroke="#000000" fill="#F1B517" points="43.035 16.786 35.97487 14.59664 32.89867 9.34218 22.00587 8.80701 22.38417 12.7477 31.6632 14.52389 32.54563 16.10516 43.21153 19.07311 43.03495 16.786"></polygon>
                                <g id="i2" transform="translate(22.000000, 0.000000)" stroke="#000000">
                                    <polygon id="Path" fill="#503200" points="13.662 18.254 2.5135 1.8558 1.96634 2.26736 13.02674 18.73406 13.66199 18.25391"></polygon>
                                    <path d="M3.551,2.5 L2.36078,0.50819 C2.13797,0.14007 1.7996,0.01786 1.30241,0.27987 C0.8183,0.53499 0.86536,1.03915 1.06254,1.40282 L2.16296,3.25489 L3.551,2.5 L3.551,2.5 Z" id="Path" fill="#FFFFFF"></path>
                                </g>
                                <g id="cannon" transform="translate(13.000000, 5.000000)" fill="#F1B517" stroke="#000000">
                                    <polygon id="Path" points="23.986 3.127 1.4896 0.84056 0.94269 4.11193 23.32969 6.3632 23.98599 3.127"></polygon>
                                    <polygon id="Path" points="1.089 -0.003 0.50563 4.5347 1.45361 4.5347 2.10991 0.38393"></polygon>
                                    <polygon id="Path" points="4.844 0.735 4.58878 4.81542 5.17215 4.88582 5.64614 1.26268 4.844 0.73504"></polygon>
                                    <polygon id="Path" points="20.085 2.494 19.53809 6.32819 20.63191 6.29299 21.06944 2.49398 20.085 2.49398"></polygon>
                                    <path d="M23.436,2.59898 L22.65739,7.03315 L23.89503,7.21254 L24.24947,4.88055 C24.34897,5.34911 24.78042,5.70459 25.29536,5.70459 C25.88387,5.70459 26.3645,5.2409 26.3645,4.67313 C26.3645,4.10536 25.88387,3.64728 25.29536,3.64728 C24.88617,3.64728 24.51493,3.88723 24.35406,4.33425 L24.58648,2.67188 L23.436,2.59898 L23.436,2.59898 Z" id="Path"></path>
                                    <polygon id="Path" points="15.317 3.319 12.22319 6.80124 12.58414 7.22409 16.55452 4.51291 15.317 3.319"></polygon>
                                    <polygon id="Path" points="8.124 12 11.21781 8.51775 10.85687 8.09491 6.88648 10.80609 8.124 12"></polygon>
                                    <polygon id="Path" points="16.22 11.129 12.45587 8.21884 12.06914 8.49244 15.03404 12.24829"></polygon>
                                    <polygon id="Path" points="6.938 4.413 10.7537 7.22367 11.21777 6.87544 8.22709 3.11959 6.938 4.413"></polygon>
                                    <polygon id="Path" points="11.09 2.094 11.45461 6.66688 11.96818 6.64498 13.17528 2.19345 11.09 2.09395"></polygon>
                                    <polygon id="Path" points="12.341 13.189 11.9764 8.61611 11.41125 8.56331 10.71979 13.18896 12.341 13.18896"></polygon>
                                    <polygon id="Path" points="17.401 7.026 12.60639 7.53605 12.53349 7.99334 17.38278 8.62651 17.40098 7.026"></polygon>
                                    <polygon id="Path" points="5.993 8.609 10.6738 7.86906 10.7725 7.50522 5.93075 6.96426 5.99295 8.609"></polygon>
                                    <ellipse id="Oval" cx="11.693" cy="7.548" rx="1.27" ry="1.225"></ellipse>
                                    <path d="M18.438,7.548 C18.438,11.14002 15.41625,14.05527 11.69305,14.05527 C7.96984,14.05527 4.94809,11.14002 4.94809,7.548 C4.94809,3.956 7.96984,1.04074 11.69305,1.04074 C15.41625,1.04074 18.438,3.956 18.438,7.548 Z M17.09058,7.54801 C17.09058,10.42247 14.67247,12.75535 11.69303,12.75535 C8.71359,12.75535 6.29549,10.42247 6.29549,7.54801 C6.29549,4.67356 8.71359,2.34067 11.69303,2.34067 C14.67247,2.34067 17.09058,4.67356 17.09058,7.54801 Z" id="Shape" stroke-linecap="round"></path>
                                    <line x1="7.48" y1="4.264" x2="6.42295" y2="3.46805" id="Path"></line>
                                    <line x1="15.034" y1="3.493" x2="15.93636" y2="2.57269" id="Path"></line>
                                    <line x1="16.967" y1="11.701" x2="15.85838" y2="10.83044" id="Path"></line>
                                    <line x1="7.48" y1="12.696" x2="8.43392" y2="11.6762" id="Path"></line>
                                </g>
                                <g id="axe" transform="translate(39.000000, 4.000000)" stroke="#000000">
                                    <polygon id="Path" fill="#F1B517" points="4.196 2.122 5.35096 8.0084 4.40888 8.5046 3.3954 2.20619 4.196 2.12199"></polygon>
                                    <path d="M3.592,1.364 C3.05652,1.14013 2.3604,1.51898 1.21804,0.07247 C-0.66027,1.7945 1.11095,2.05281 1.39653,3.75762 C1.92768,3.9759 2.25489,2.43479 3.69909,2.27667 C3.87759,2.25947 5.99694,2.07356 5.99694,2.07356 C5.99694,2.07356 5.46493,1.34843 5.46493,1.34843 C5.46493,1.34843 3.99094,1.38713 3.592,1.36403 L3.592,1.364 Z" id="Path" fill="#FFFFFF"></path>
                                    <path d="M4.359,2.518 L4.14481,0.76153 C3.91277,0.1416 3.14525,0.67543 3.14525,1.03705 L3.34159,2.65576 L4.359,2.518 Z" id="Path" fill="#FFFFFF"></path>
                                </g>
                                <path d="M37.765,11.372 L37.7838,13.00886 C37.24807,13.19225 37.3298,13.59384 37.34708,14.17738 L37.36588,18.94851 C37.17578,19.26529 36.58821,19.28004 36.3117,19.52821 C36.0352,19.77638 36.06976,20.25796 37.33131,20.57474 L38.30688,20.60964 C39.7931,20.28452 40.09985,19.79233 39.35458,19.51479 C38.95813,19.36715 38.43649,19.19105 38.23776,18.95763 L38.27076,17.82093 L39.23532,17.85583 C39.49455,17.85583 39.98782,17.20415 40.0051,16.67063 L40.0101,14.20019 C39.9755,12.79969 38.92459,12.64216 38.6308,12.65883 L38.6512,11.36905 L37.76518,11.37205 L37.765,11.372 Z M39.39559,14.10212 C39.41289,13.70198 38.83999,13.34518 38.60928,13.33518 C38.37857,13.32518 37.87481,13.80201 37.85753,14.20215 L37.85753,15.20251 C37.89213,15.56931 38.18508,16.81175 38.77345,16.90311 C39.05217,16.94641 39.41287,16.50297 39.41287,16.13617 L39.39557,14.10212 L39.39559,14.10212 Z" id="bugle" stroke="#000000" fill="#F1B517"></path>
                                <g id="i3" transform="translate(29.000000, 16.000000)" fill="#FFFFFF" stroke="#000000">
                                    <path d="M2.275,0.328 C1.63857,0.07078 1.64472,1.49986 1.64472,1.49986 L2.6475,1.51036 C3.08612,1.70949 3.43896,2.353 3.15928,2.66886 C2.92804,2.93001 0.98197,2.2278 0.85136,2.63166 C1.19537,4.57325 3.76814,5.32033 4.69909,4.47097 C5.6096,3.64025 5.84017,1.42316 2.88161,0.84235 L2.275,0.32802 L2.275,0.328 Z" id="Path"></path>
                                    <line x1="2.87" y1="0.856" x2="2.57759" y2="1.49489" id="Path"></line>
                                </g>
                                <g id="small_flag" transform="translate(0.000000, 7.000000)">
                                    <line x1="11.943" y1="10.055" x2="10.97975" y2="6.00588" id="Path" stroke="#000000" fill="#F1B517"></line>
                                    <line x1="13.112" y1="9.822" x2="11.63272" y2="6.66899" id="Path" stroke="#000000" fill="#F1B517"></line>
                                    <line x1="15.658" y1="8.993" x2="12.32102" y2="7.20077" id="Path" stroke="#000000" fill="#F1B517"></line>
                                    <line x1="17.103" y1="8.628" x2="10.91068" y2="5.93964" id="Path" stroke="#000000" fill="#F1B517"></line>
                                    <path d="M7.215,3.013 C7.215,3.013 4.96123,2.9774 4.55929,3.135 C4.39711,3.1986 5.12617,3.95956 4.97481,4.25049 C4.41173,5.33275 0.58051,5.18445 0.27763,4.94766 C-0.24054,4.54256 3.84596,4.19501 3.87278,3.91933 C3.90358,3.60288 3.26845,2.77261 3.36693,2.26353 C3.4947,1.60302 5.15547,1.3572 5.15547,1.3572 L7.215,3.013 L7.215,3.013 Z" id="Path" stroke="#D20014" fill="#D20014"></path>
                                    <path d="M10.233,5.05 L5.13077,0.82789 C5.13077,0.82789 4.90599,0.58969 4.71795,0.79469 C4.53382,0.99543 4.78675,1.22615 4.78675,1.22615 L10.05023,5.57398 L10.233,5.04999 L10.233,5.05 Z" id="Path" stroke="#000000" fill="#503200"></path>
                                    <path d="M15.146,9.217 C15.0557,9.1299 10.9908,5.60911 10.9908,5.60911 L10.71981,4.58078 C10.71981,4.58078 10.09201,5.00605 9.86167,5.22566 C9.63133,5.44527 9.27452,6.04485 9.27452,6.04485 L10.41269,6.09715 L14.00784,9.39131 L15.146,9.21701 L15.146,9.217 Z" id="Path" stroke="#000000" fill="#F1B517"></path>
                                </g>
                                <g id="cannonballs" transform="translate(15.000000, 18.000000)" fill="#F1B517" stroke="#000000">
                                    <ellipse id="Oval" cx="14.534" cy="3.056" rx="1" ry="1"></ellipse>
                                    <ellipse id="Oval" cx="12.641" cy="1.716" rx="1" ry="1"></ellipse>
                                    <ellipse id="Oval" cx="10.091" cy="2.593" rx="1" ry="1"></ellipse>
                                    <ellipse id="Oval" cx="6.153" cy="3.445" rx="1" ry="1"></ellipse>
                                    <ellipse id="Oval" cx="4.487" cy="3.64" rx="1" ry="1"></ellipse>
                                    <ellipse id="Oval" cx="2.846" cy="3.64" rx="1" ry="1"></ellipse>
                                    <ellipse id="Oval" cx="1.18" cy="3.591" rx="1" ry="1"></ellipse>
                                    <ellipse id="Oval" cx="1.988" cy="2.325" rx="1" ry="1"></ellipse>
                                    <ellipse id="Oval" cx="3.604" cy="2.398" rx="1" ry="1"></ellipse>
                                    <ellipse id="Oval" cx="5.144" cy="2.203" rx="1" ry="1"></ellipse>
                                    <ellipse id="Oval" cx="4.361" cy="0.961" rx="1" ry="1"></ellipse>
                                    <ellipse id="Oval" cx="2.846" cy="0.937" rx="1" ry="1"></ellipse>
                                </g>
                                <path d="M33.47,21.991 C33.47,21.67451 32.70141,21.81064 32.70141,21.44028 C32.70141,21.02874 33.87358,21.33125 34.03552,21.69331 C34.69516,21.09724 34.97954,21.53294 35.38364,21.71301 C35.9591,20.85762 36.67062,20.88958 37.36497,21.51595 C37.76643,21.07308 38.77463,21.21948 39.12161,21.71301 C39.78627,21.05391 40.37652,21.2163 40.8374,21.69331 C41.02278,21.34679 41.29485,21.42261 41.49103,21.67361 C41.84517,21.04533 42.73312,21.23394 43.10686,21.64871 C43.43917,21.28345 43.77957,21.56871 44.22062,21.83853 C44.51846,21.55983 44.99889,21.61237 44.99889,21.88943 C44.99889,22.17832 44.3711,22.07662 44.3711,22.36333 C44.3711,22.61912 44.82906,22.48979 44.82906,22.81333 C44.82906,23.06802 44.14933,23.1635 44.04429,22.75743 C43.81408,23.19714 42.98243,23.02831 42.90043,22.61949 C42.62374,22.95352 42.00339,23.05517 41.65444,22.56039 C41.36787,22.79354 41.02494,22.82691 40.86749,22.59149 C40.3504,23.14743 39.47879,23.03319 39.17854,22.42032 C39.17854,22.42032 38.88508,22.43282 38.88508,22.43282 C38.37714,23.12253 37.58329,22.80389 37.36497,22.42242 C36.51227,23.03761 36.00286,22.84387 35.52662,22.44212 C34.97949,23.10877 34.14581,23.06224 33.95381,22.44212 C33.58562,22.71041 32.81745,22.77356 32.81745,22.45972 C32.81745,22.15904 33.47,22.26835 33.47,21.99096 L33.47,21.991 Z M35.12458,22.140765 C35.12458,22.28397 34.92966,22.40019 34.689495,22.40019 C34.44932,22.40019 34.25441,22.28397 34.25441,22.140765 C34.25441,21.99757 34.44932,21.88134 34.689495,21.88134 C34.92966,21.88134 35.12458,21.99757 35.12458,22.140765 Z M36.94491,21.922855 C36.94491,22.09523 36.71029,22.23512 36.4212,22.23512 C36.13212,22.23512 35.89749,22.09523 35.89749,21.922855 C35.89749,21.75049 36.13212,21.61059 36.4212,21.61059 C36.71029,21.61059 36.94491,21.75049 36.94491,21.922855 Z M40.51988,22.12001 C40.51988,22.29451 40.30756,22.43612 40.04596,22.43612 C39.78436,22.43612 39.57204,22.29451 39.57204,22.12001 C39.57204,21.94552 39.78436,21.8039 40.04596,21.8039 C40.30756,21.8039 40.51988,21.94552 40.51988,22.12001 Z M38.61644,22.03701 C38.61644,22.25752 38.40878,22.43649 38.15291,22.43649 C37.89704,22.43649 37.68938,22.25752 37.68938,22.03701 C37.68938,21.8165 37.89704,21.63753 38.15291,21.63753 C38.40878,21.63753 38.61644,21.8165 38.61644,22.03701 Z M42.67605,22.04741 C42.67605,22.24453 42.49041,22.40452 42.261685,22.40452 C42.03295,22.40452 41.84732,22.24453 41.84732,22.04741 C41.84732,21.85028 42.03295,21.6903 42.261685,21.6903 C42.49041,21.6903 42.67605,21.85028 42.67605,22.04741 Z M41.43236,22.13041 C41.43236,22.2578 41.31239,22.36119 41.16458,22.36119 C41.01676,22.36119 40.8968,22.2578 40.8968,22.13041 C40.8968,22.00302 41.01676,21.89963 41.16458,21.89963 C41.31239,21.89963 41.43236,22.00302 41.43236,22.13041 Z M43.85421,22.223805 C43.85421,22.40681 43.719,22.55534 43.5524,22.55534 C43.3858,22.55534 43.25059,22.40681 43.25059,22.223805 C43.25059,22.0408 43.3858,21.89227 43.5524,21.89227 C43.719,21.89227 43.85421,22.0408 43.85421,22.223805 Z" id="chain" stroke="#000000" fill="#F1B517"></path>
                            </g>
                        </g>
                        <g id="drum" transform="translate(42.000000, 9.000000)">
                            <path d="M4.837,0.718 C2.3254,0.718 0.28737,1.66201 0.28737,2.82016 C0.28737,3.01877 0.34387,3.20981 0.45587,3.39194 C0.99903,4.02103 2.76262,4.47946 4.85443,4.47946 C6.81115,4.47946 8.47873,4.07671 9.13097,3.50966 C9.29536,3.29291 9.38663,3.06268 9.38663,2.82016 C9.38663,1.662 7.34859,0.718 4.837,0.718 Z" id="Path" stroke="#0A328C" stroke-width="0.231" fill="#0A328C" fill-rule="nonzero"></path>
                            <path d="M9.427,2.981 L9.427,10.03911 C9.427,10.86668 7.37855,11.53833 4.85457,11.53833 C2.33058,11.53833 0.28213,10.86668 0.28213,10.03911 L0.28213,2.981 C0.28213,3.80857 2.33058,4.48022 4.85457,4.48022 C7.37855,4.48022 9.427,3.80857 9.427,2.981 Z" id="Path" stroke="#000000" stroke-width="0.1869" fill="#F1B517" fill-rule="nonzero"></path>
                            <path d="M0.282,2.982 L0.282,4.06391 L2.50161,10.90854 L4.27382,5.64474 L6.22034,11.11035 L7.64463,5.9515 L9.42774,9.41957 L9.42774,7.50024 L7.77175,4.13679 C7.58599,4.18739 7.38791,4.23079 7.17907,4.27133 L6.15061,8.08324 L4.7038,4.47874 C4.46151,4.47574 4.22046,4.47074 3.9891,4.45634 L2.53647,8.08326 L0.87467,3.71638 C0.49909,3.49874 0.282,3.24977 0.282,2.982 L0.282,2.982 Z" id="Path" stroke="#D20014" stroke-width="0.1826" fill="#D20014" fill-rule="nonzero"></path>
                            <path d="M9.427,8.721 L9.427,10.03882 C9.427,10.86639 7.37855,11.53804 4.85457,11.53804 C2.33058,11.53804 0.28213,10.86639 0.28213,10.03882 L0.28213,8.721 C0.28213,9.54857 2.33058,10.22022 4.85457,10.22022 C7.37855,10.22022 9.427,9.54857 9.427,8.721 Z" id="Path" stroke="#0A328C" stroke-width="0.1869" fill="#0A328C" fill-rule="nonzero"></path>
                            <path d="M6.737,10.085 C6.36524,10.1403 5.96841,10.1817 5.55165,10.20272 L5.56325,11.52008 C5.98013,11.49868 6.37698,11.45808 6.7486,11.40235 L6.737,10.085 Z" id="Path" stroke="#000000" stroke-width="0.1869" fill="#F1B517" fill-rule="nonzero"></path>
                            <path d="M1.868,9.855 L1.8564,11.16674 C2.20926,11.26768 2.60615,11.35151 3.04174,11.4134 L3.04174,10.09604 C2.61127,10.03494 2.21783,9.95434 1.86802,9.855 L1.868,9.855 Z" id="Path" stroke="#000000" stroke-width="0.1869" fill="#F1B517" fill-rule="nonzero"></path>
                            <path d="M0.282,8.723 L0.282,10.04036 C0.282,10.28612 0.46739,10.5139 0.78751,10.71865 L0.81071,9.41812 C0.47477,9.20948 0.28196,8.97519 0.28196,8.723 L0.282,8.723 Z" id="Path" stroke="#000000" stroke-width="0.1869" fill="#F1B517" fill-rule="nonzero"></path>
                            <path d="M9.428,8.863 L9.4048,8.869 C9.3247,9.13649 9.02606,9.38456 8.5739,9.59215 L8.5799,10.90389 C9.11025,10.65909 9.42824,10.36353 9.42824,10.04061 L9.42824,8.8634 L9.428,8.863 Z" id="Path" stroke="#000000" stroke-width="0.1869" fill="#F1B517" fill-rule="nonzero"></path>
                            <path d="M9.427,3.027 L9.427,10.03903 C9.427,10.8666 7.37855,11.53825 4.85457,11.53825 C2.33058,11.53825 0.28213,10.8666 0.28213,10.03903 L0.28213,3.027" id="Path" stroke="#000000" stroke-width="0.1869"></path>
                            <path d="M8.392,2.52 C8.392,3.02111 6.80824,3.42734 4.85459,3.42734 C2.90093,3.42734 1.31718,3.02111 1.31718,2.52 C1.31718,2.01889 2.90093,1.61266 4.85459,1.61266 C6.80824,1.61266 8.392,2.01889 8.392,2.52 Z" id="Path" stroke="#FFFFFF" stroke-width="0.1916" fill="#FFFFFF" fill-rule="nonzero"></path>
                            <path d="M3.698,3.19 L3.85488,4.44008 C4.16189,4.46238 4.48094,4.47828 4.80781,4.47928 L5.04023,3.18996 L3.698,3.18996 L3.698,3.19 Z" id="Path" stroke="#000000" stroke-width="0.231" fill="#F1B517" fill-rule="nonzero"></path>
                            <path d="M7.801,2.887 L6.88875,3.13365 L6.94685,4.31086 C7.25705,4.25836 7.54893,4.19378 7.81261,4.12026 L7.80101,2.887 L7.801,2.887 Z" id="Path" stroke="#000000" stroke-width="0.231" fill="#F1B517" fill-rule="nonzero"></path>
                            <path d="M2.397,0.979 C2.13822,1.0554 1.89618,1.14425 1.6765,1.24247 L1.80433,2.18664 L2.38538,2.00165 L2.39698,0.979 L2.397,0.979 Z" id="Path" stroke="#000000" stroke-width="0.231" fill="#F1B517" fill-rule="nonzero"></path>
                            <path d="M4.837,0.606 C4.71532,0.606 4.59602,0.613 4.47675,0.6172 L4.67431,1.79969 L5.2786,1.78849 L5.51683,0.63402 C5.29464,0.61852 5.06846,0.60602 4.837,0.60602 L4.837,0.606 Z" id="Path" stroke="#000000" stroke-width="0.231" fill="#F1B517" fill-rule="nonzero"></path>
                            <path d="M7.51,1.024 L7.38797,2.0577 L8.07943,2.30211 L8.15493,1.28747 C7.95857,1.19067 7.74257,1.10236 7.50997,1.024 L7.51,1.024 Z" id="Path" stroke="#000000" stroke-width="0.231" fill="#F1B517" fill-rule="nonzero"></path>
                            <polygon id="Path" stroke="#000000" stroke-width="0.1826" fill="#F1B517" fill-rule="nonzero" points="0.993 3.8 1.17721 2.51237 0.24225 2.00603 0.27005 3.47139 0.99299 3.8"></polygon>
                            <polygon id="Path" stroke="#000000" stroke-width="0.1826" fill="#F1B517" fill-rule="nonzero" points="9.396 3.522 9.4377 2.23441 8.56186 2.49595 9.39599 3.522"></polygon>
                        </g>
                        <g id="helmet" transform="translate(58.000000, 3.000000)" fill-rule="nonzero" stroke-width="0.1826">
                            <path d="M2.686,1.029 C3.51683,0.91449 4.74845,2.05346 4.82243,3.4623 C4.88113,4.58021 3.13109,4.5215 3.13109,4.5215 C3.04209,4.97953 2.07699,5.40336 1.29138,5.43756 C0.52922,5.47076 1.49909,4.00621 1.49909,4.00621 C1.02433,2.74662 1.64745,1.25802 1.64745,1.25802 L2.686,1.029 Z" id="Path" stroke="#000000" fill="#F1B517"></path>
                            <path d="M1.499,3.948 L2.30016,3.9194 C2.30016,3.9194 2.36146,4.33254 2.50787,4.34881 C2.66532,4.36631 2.83427,3.94803 2.83427,3.94803 L4.05085,3.91943" id="Path" stroke="#000000" fill="#F1B517"></path>
                            <path d="M3.131,1.859 C3.81074,1.36756 3.215,0.37874 2.74525,0.3704 C2.74525,0.3704 1.64736,0.399 1.64736,0.399 C1.12995,0.4097 0.25521,0.97167 0.37144,1.45821 C0.47278,1.88246 0.75752,2.07593 1.20227,2.00212 C1.40424,1.96862 1.82839,1.43876 2.03311,1.42958 C2.30776,1.41728 2.91098,2.01806 3.131,1.85898 L3.131,1.859 Z" id="Path" stroke="#F1B517" fill="#D20014"></path>
                        </g>
                        <path d="M11.242,18.855 C10.62528,18.933 10.51102,19.64346 10.7423,20.29567 C8.05594,21.05087 5.65603,22.03512 3.28741,22.70054 C3.19211,22.22704 4.46113,20.85625 4.46113,20.85625 C4.79684,21.01819 5.04799,21.78681 5.04799,21.78681 C5.13189,20.2079 6.68656,19.15771 6.68656,19.15771 C5.76336,19.03625 2.95491,20.12503 2.6192,20.57036 C2.6192,20.57036 3.70642,20.4489 3.87427,20.57036 C3.87427,20.57036 1.73333,22.88204 1.63722,23.56943 C1.97025,24.32057 5.66391,24.88118 5.66391,24.88118 C5.60561,25.07563 4.57734,25.81174 4.57734,25.81174 C6.04644,26.13442 8.26207,25.09377 8.92361,24.46075 C8.92361,24.46075 7.19553,24.31827 5.84984,23.22748 C5.84984,23.22748 6.12734,23.90667 5.96024,24.23091 C5.96024,24.23091 3.86088,23.62563 3.64185,23.27794 C3.64785,23.24784 8.60787,21.96322 11.00958,21.27668 C11.09848,21.70577 11.57541,22.51646 12.14844,22.32496 C12.52223,22.20004 12.40381,21.45926 12.26465,20.93473 C12.39982,21.05079 12.57512,21.11972 12.77016,21.11972 C13.19244,21.11972 13.53715,20.79276 13.53715,20.38537 C13.53715,19.97797 13.19244,19.64541 12.77016,19.64541 C12.43247,19.64541 12.15101,19.85686 12.04966,20.14993 C11.95406,19.69718 11.70454,18.79646 11.242,18.855 L11.242,18.855 Z M13.1307,20.382785 C13.1307,20.57336 12.97038,20.72802 12.772855,20.72802 C12.57532,20.72802 12.41501,20.57336 12.41501,20.382785 C12.41501,20.19222 12.57532,20.03755 12.772855,20.03755 C12.97038,20.03755 13.1307,20.19222 13.1307,20.382785 Z" id="anchor" stroke="#000000" stroke-width="0.1826" fill="#F1B517" fill-rule="nonzero"></path>
                        <g id="i4" transform="translate(80.000000, 16.000000)" fill="#F1B517" fill-rule="nonzero" stroke="#000000" stroke-width="0.1826">
                            <path d="M10.068,5.884 C10.25096,5.51741 9.90619,3.67222 9.90619,3.67222 C9.53331,3.71362 9.02402,4.35336 9.02402,4.35336 C9.5049,2.84198 8.15893,0.31581 8.15893,0.31581 C9.06951,0.50631 12.10435,3.44409 12.26193,3.97334 C12.26193,3.97334 10.93291,3.4992 10.73212,3.55794 C10.94888,5.06365 11.99014,5.76338 12.38128,6.54615 C12.38128,6.54615 10.65558,6.92512 10.82899,8.36809 L9.70181,8.38899 C9.31164,7.908 9.85355,7.11332 9.85355,7.11332 L2.11504,3.87186 C1.61648,3.66273 0.49464,3.15371 0.66271,2.55436 C0.83217,1.95006 2.67863,2.80532 3.13383,2.9517 L10.068,5.88399 L10.068,5.884 Z" id="Path"></path>
                            <path d="M2.635,4.541 L3.54542,2.86798 C3.87056,2.42882 3.19859,1.94783 2.72171,2.51247 L1.70291,4.03909 C1.24771,4.8756 2.20147,5.10564 2.635,4.541 Z" id="Path"></path>
                        </g>
                    </g>
                    <g id="motto" transform="translate(10.000000, 65.000000)" fill-rule="nonzero">
                        <g id="Group" fill="#FFFFFF" stroke="#000000" stroke-width="0.1826">
                            <polygon id="Path" points="19.367 3.366 19.3039 1.54116 17.09715 1.66282 16.97105 3.64987 19.36695 3.366"></polygon>
                            <path d="M3.237,5.924 L0.2862,4.26888 C12.4548,5.38406 14.9399,1.13972 17.8804,0.9127 C19.68795,0.77152 19.9702,2.9146 16.46765,1.89512 L17.37344,4.13647 C17.37344,4.13647 8.73494,8.99599 0.24424,6.98866 L3.23707,5.924 L3.237,5.924 Z" id="Path"></path>
                            <polygon id="Path" points="56.249 3.366 56.312 1.54116 59.0112 1.60346 59.1373 3.59051 56.24895 3.36603"></polygon>
                            <path d="M72.939,5.477 L75.71569,3.96186 C61.77689,4.37715 64.95049,1.67257 57.97649,0.91363 C56.17436,0.71833 54.8197,3.0343 59.38924,1.89605 L58.48345,4.1374 C58.48345,4.1374 60.67565,4.1394 60.67565,4.1394 C65.4237,7.26603 71.83165,7.54515 76.07695,6.54149 L72.93902,5.47683 L72.939,5.477 Z" id="Path"></path>
                            <path d="M16.418,1.908 L16.418,5.06221 C16.418,5.06221 24.146,7.92968 37.9368,7.92968 C51.7869,7.92968 59.4556,5.06221 59.4556,5.06221 L59.4556,1.908 C59.4556,1.908 53.60657,4.60342 37.9368,4.60342 C22.3265,4.60342 16.418,1.908 16.418,1.908 Z" id="Path"></path>
                        </g>
                        <path d="M17.573,5.08 L18.25494,2.77068 L18.5717,2.85778 L17.97024,4.89458 L19.14911,5.2186 L19.06861,5.49112 L17.57297,5.08004 L17.573,5.08 Z M19.80939,4.06451 L19.84749,3.61092 L19.94923,3.22181 L20.2867,3.30391 L20.18496,3.69302 L19.99216,4.10895 L19.80943,4.06445 L19.80939,4.06451 Z M23.13464,3.9086 L23.45739,3.972 L23.17053,5.33144 C23.12063,5.56791 23.05328,5.75025 22.96848,5.87846 C22.88368,6.00667 22.7597,6.10017 22.59656,6.15895 C22.43342,6.21775 22.23429,6.22405 21.99916,6.17785 C21.77069,6.13295 21.59182,6.05829 21.46256,5.95378 C21.3333,5.84928 21.2528,5.71897 21.22106,5.56285 C21.18936,5.40674 21.19976,5.20403 21.25236,4.95472 L21.53921,3.59527 L21.86196,3.65867 L21.57544,5.01651 C21.53234,5.22088 21.52024,5.37535 21.53914,5.47992 C21.55804,5.58449 21.60994,5.67241 21.69485,5.74368 C21.77975,5.81498 21.89148,5.8642 22.03012,5.89143 C22.26746,5.93803 22.44755,5.91933 22.57038,5.83543 C22.69321,5.75143 22.78578,5.56181 22.84809,5.26649 L23.13461,3.90865 L23.13464,3.9086 Z M23.4979,6.41873 L23.89968,4.04902 L24.2331,4.10162 L25.20778,6.16575 L25.52323,4.30522 L25.83487,4.35442 L25.43309,6.72413 L25.09967,6.67153 L24.12527,4.60579 L23.80954,6.46794 L23.4979,6.41874 L23.4979,6.41873 Z M26.03905,6.8024 L26.38077,4.42393 L26.70702,4.46753 L26.36529,6.84599 L26.03905,6.80239 L26.03905,6.8024 Z M26.97645,5.75333 C27.02335,5.35735 27.17026,5.05949 27.4172,4.85975 C27.66414,4.66002 27.96191,4.57937 28.31052,4.61779 C28.53879,4.64299 28.73835,4.71826 28.90918,4.8437 C29.08002,4.96914 29.20236,5.13128 29.27622,5.3301 C29.35012,5.52893 29.37282,5.74769 29.34462,5.98636 C29.31602,6.22829 29.23973,6.43915 29.11591,6.61894 C28.99209,6.79872 28.83159,6.92748 28.63442,7.00521 C28.43724,7.08291 28.23126,7.10996 28.01648,7.08631 C27.7837,7.06061 27.58209,6.98347 27.41164,6.85477 C27.2412,6.72608 27.11986,6.56268 27.04762,6.36458 C26.97542,6.16648 26.95172,5.96274 26.97652,5.75335 L26.97645,5.75333 Z M27.31323,5.79543 C27.27913,6.08292 27.33243,6.31823 27.47312,6.50134 C27.61377,6.68445 27.80498,6.78933 28.04676,6.81598 C28.29303,6.84318 28.50561,6.78198 28.68452,6.6324 C28.86343,6.48287 28.97106,6.25459 29.00743,5.94757 C29.03043,5.75337 29.01643,5.58011 28.96563,5.42777 C28.91473,5.27544 28.82852,5.15218 28.70696,5.058 C28.5854,4.9638 28.44309,4.90774 28.28004,4.88977 C28.04838,4.86427 27.83997,4.91907 27.6548,5.05412 C27.46963,5.18922 27.35577,5.43633 27.31325,5.79543 L27.31323,5.79543 Z M29.62167,7.2116 L29.82447,4.81838 L30.16121,4.84498 L31.30491,6.82673 L31.46413,4.94774 L31.77887,4.97254 L31.57606,7.36576 L31.23933,7.33916 L30.09577,5.35577 L29.9364,7.23639 L29.62167,7.21159 L29.62167,7.2116 Z M33.1109,7.45425 L33.21958,5.05533 L34.89706,5.12603 L34.88426,5.40912 L33.53583,5.35222 L33.50223,6.09514 L34.66917,6.14434 L34.65637,6.42743 L33.48943,6.37823 L33.44003,7.46805 L33.11098,7.45415 L33.1109,7.45425 Z M34.94443,7.53255 L35.94826,5.14964 L36.30303,5.15664 L37.27332,7.57641 L36.89819,7.56941 L36.62252,6.83688 L35.58198,6.81748 L35.29411,7.53948 L34.94443,7.53248 L34.94443,7.53255 Z M35.68223,6.56011 L36.52586,6.57581 L36.27949,5.90608 C36.20429,5.70263 36.14882,5.53558 36.11295,5.40495 C36.07815,5.55829 36.03045,5.7103 35.96965,5.86098 L35.68223,6.56005 L35.68223,6.56011 Z M37.59593,7.5708 L37.60093,5.1696 L37.93029,5.17014 L37.92529,7.57134 L37.59592,7.5708 L37.59593,7.5708 Z M39.13796,7.5638 L39.10666,5.44617 L38.28672,5.45747 L38.28272,5.17414 L40.25531,5.14704 L40.25931,5.43037 L39.43598,5.44167 L39.46728,7.5593 L39.13795,7.5643 L39.13796,7.5638 Z M41.58019,7.5061 L41.46379,5.10752 L41.7928,5.09272 L41.89546,7.20825 L43.1199,7.15295 L43.1336,7.436 L41.58015,7.5062 L41.58019,7.5061 Z M43.25491,7.4331 L44.03146,4.97243 L44.3854,4.94813 L45.57834,7.27343 L45.20409,7.29913 L44.86094,6.59363 L43.82284,6.66503 L43.60376,7.40917 L43.25491,7.43317 L43.25491,7.4331 Z M43.89861,6.40032 L44.74027,6.34242 L44.43218,5.69691 C44.33828,5.50085 44.26734,5.33933 44.21939,5.21235 C44.19909,5.3681 44.16579,5.52365 44.11938,5.679 L43.89861,6.40027 L43.89861,6.40032 Z M46.82035,7.15843 L46.54739,4.7717 L48.21635,4.59405 L48.24855,4.8757 L46.90697,5.01851 L46.99147,5.75764 L48.15249,5.63406 L48.18469,5.91571 L47.02368,6.0393 L47.14768,7.12358 L46.8203,7.15848 L46.82035,7.15843 Z M48.64544,5.78819 C48.58704,5.39362 48.65144,5.06961 48.83778,4.81614 C49.02437,4.56268 49.29134,4.41203 49.63869,4.3642 C49.86615,4.3329 50.07895,4.3572 50.2771,4.4368 C50.47525,4.5165 50.6361,4.64355 50.75965,4.81791 C50.88319,4.99227 50.96256,5.19836 50.99774,5.43618 C51.03344,5.67725 51.01484,5.89985 50.94214,6.10399 C50.86944,6.30813 50.74789,6.47184 50.57749,6.59513 C50.40708,6.71842 50.21487,6.79479 50.00085,6.82426 C49.76891,6.85616 49.55363,6.83026 49.355,6.74776 C49.15637,6.66476 48.99616,6.5363 48.87437,6.36225 C48.75259,6.18819 48.67626,5.99685 48.6454,5.78822 L48.64544,5.78819 Z M48.9823,5.74679 C49.0247,6.03325 49.1379,6.24792 49.32195,6.39079 C49.50601,6.53365 49.71849,6.5885 49.9594,6.55533 C50.20478,6.52153 50.39443,6.4105 50.52836,6.22219 C50.66228,6.03389 50.70661,5.78678 50.66136,5.48085 C50.63276,5.28736 50.57386,5.12312 50.48471,4.98814 C50.39561,4.85316 50.27986,4.75493 50.13757,4.69345 C49.99528,4.63195 49.8429,4.61245 49.68043,4.63475 C49.44961,4.66655 49.26232,4.77036 49.11855,4.94623 C48.97479,5.12211 48.92937,5.38895 48.9823,5.74676 L48.9823,5.74679 Z M51.59608,6.5528 L51.15158,4.1902 L52.23738,4.00006 C52.45565,3.96186 52.62557,3.95396 52.74715,3.97656 C52.86873,3.99906 52.97359,4.05816 53.06173,4.15369 C53.14983,4.24929 53.20618,4.36201 53.23064,4.49201 C53.26214,4.65962 53.23264,4.81075 53.14164,4.94541 C53.05074,5.08007 52.89081,5.18355 52.66169,5.25585 C52.75489,5.28055 52.82745,5.30835 52.87927,5.33925 C52.98969,5.40645 53.09905,5.49554 53.20734,5.60642 L53.75429,6.17485 L53.3467,6.24625 L52.93015,5.81146 C52.8088,5.68622 52.71043,5.59136 52.63503,5.52687 C52.55963,5.46237 52.49488,5.41935 52.44078,5.39775 C52.38668,5.37615 52.33345,5.36385 52.28112,5.36075 C52.24292,5.35975 52.18212,5.36675 52.09858,5.38105 L51.72273,5.44685 L51.92012,6.496 L51.59605,6.5528 L51.59608,6.5528 Z M51.67178,5.17616 L52.36836,5.05417 C52.51648,5.02827 52.62952,4.99317 52.70748,4.94901 C52.78548,4.90481 52.84003,4.84645 52.87123,4.77384 C52.90243,4.70124 52.91083,4.62679 52.89653,4.55051 C52.87553,4.43877 52.81613,4.35427 52.71856,4.29701 C52.62096,4.23971 52.48136,4.22701 52.29984,4.25881 L51.52474,4.39454 L51.6718,5.17617 L51.67178,5.17616 Z M55.60293,4.91448 L55.94252,4.92348 C55.93452,5.19271 55.85872,5.41318 55.71487,5.58489 C55.57105,5.7566 55.37271,5.86991 55.11985,5.92482 C54.85815,5.98162 54.63332,5.97652 54.44536,5.90932 C54.2574,5.84212 54.09788,5.72036 53.96682,5.54399 C53.83575,5.36763 53.74412,5.16759 53.69192,4.94388 C53.63502,4.69993 53.63362,4.47665 53.68792,4.27403 C53.74212,4.07141 53.84744,3.9036 54.00377,3.77059 C54.1601,3.63758 54.34537,3.54781 54.55959,3.50129 C54.80252,3.44849 55.02071,3.46379 55.21419,3.54719 C55.40766,3.63049 55.5622,3.77326 55.67781,3.97536 L55.37823,4.11597 C55.28213,3.95776 55.17147,3.8514 55.04622,3.79689 C54.92097,3.74239 54.77718,3.73279 54.61486,3.76799 C54.42825,3.80849 54.28235,3.88554 54.17716,3.99904 C54.07196,4.11255 54.01094,4.24753 53.99407,4.40397 C53.97717,4.56041 53.98707,4.71587 54.02287,4.87034 C54.06937,5.06955 54.14002,5.23692 54.23487,5.37246 C54.32977,5.508 54.44923,5.59873 54.59336,5.64466 C54.7375,5.69056 54.88354,5.69746 55.03151,5.66536 C55.21149,5.62626 55.35219,5.54311 55.4536,5.41587 C55.55501,5.28864 55.6048,5.12168 55.60299,4.91501 L55.60293,4.91448 Z M56.5178,5.56736 L55.84852,3.25459 L57.58186,2.78772 L57.66086,3.06065 L56.24476,3.44207 L56.44974,4.15042 L57.77591,3.79322 L57.85441,4.06456 L56.52824,4.42176 L56.75605,5.20899 L58.22776,4.81259 L58.30676,5.08551 L56.51782,5.56736 L56.5178,5.56736 Z" id="Shape" fill="#000000"></path>
                    </g>
                </g>
            </g>
        </g>
    </g>
</svg>