<?xml version="1.0" encoding="UTF-8"?>
<svg width="600px" height="412px" viewBox="0 0 600 412" version="1.1" xmlns="http://www.w3.org/2000/svg" xmlns:xlink="http://www.w3.org/1999/xlink">
    <!-- Generator: Sketch 63.1 (92452) - https://sketch.com -->
    <title>PAR</title>
    <desc>Created with Sketch.</desc>
    <g id="Page-1" stroke="none" stroke-width="1" fill="none" fill-rule="evenodd">
        <g id="Artboard">
            <g id="PAR">
                <rect id="Rectangle" fill="#0038A8" fill-rule="nonzero" x="0" y="0" width="600" height="412"></rect>
                <rect id="Rectangle" fill="#FFFFFF" fill-rule="nonzero" x="0" y="0" width="600" height="274"></rect>
                <rect id="Rectangle" fill="#D52B1E" fill-rule="nonzero" x="0" y="0" width="600" height="138"></rect>
                <g id="Group" transform="translate(250.000000, 156.000000)">
                    <g id="Oval" stroke="#000000">
                        <circle stroke-width="1.07585" cx="50" cy="50" r="49.0697674"></circle>
                        <circle stroke-width="0.47815" cx="50" cy="50" r="40.3139535"></circle>
                        <circle stroke-width="0.43816" cx="50" cy="50" r="30.8837209"></circle>
                    </g>
                    <g transform="translate(10.465116, 10.465116)" fill="#000000" fill-rule="nonzero">
                        <path d="M13.4069767,58.4651163 L7.7177907,61.8434884 L5.97790698,58.9134884 C5.65530233,58.370186 5.4552907,57.9272907 5.37789535,57.5847674 C5.30045349,57.2422907 5.33568605,56.9081977 5.48347674,56.5824767 C5.63125581,56.2567674 5.88624419,55.9863605 6.24844186,55.7712791 C6.5640814,55.5838605 6.87632558,55.4894302 7.18516279,55.4879884 C7.49402326,55.4868256 7.7895,55.5613605 8.0715814,55.7122442 C8.25124419,55.8085233 8.44840698,55.9696628 8.66306977,56.1956279 C8.60853488,55.944593 8.58772093,55.7504651 8.60074419,55.6132558 C8.60888372,55.5209302 8.65283721,55.368 8.73248837,55.1544651 C8.81213953,54.9409419 8.88110465,54.7888953 8.93930233,54.6983372 L10.0839419,52.8690349 L11.2638256,54.8560116 L10.0828953,56.8275233 C9.92848837,57.0801977 9.84530233,57.2730698 9.83334884,57.4061512 C9.82067442,57.5851512 9.86195349,57.7548605 9.95719767,57.9152558 L10.049407,58.0704884 L12.3584767,56.6993256 L13.4069767,58.4651163 Z M8.9744186,58.7088605 L8.53426744,57.9676512 C8.48659302,57.8874186 8.36860465,57.7475814 8.18012791,57.5480465 C8.08768605,57.4454884 7.97174419,57.3857093 7.83223256,57.368814 C7.69273256,57.3519535 7.56088372,57.3804419 7.43669767,57.4541628 C7.25301163,57.5632326 7.1465814,57.7051744 7.11739535,57.8799767 C7.0882093,58.0547791 7.16890698,58.3025814 7.35938372,58.6233837 L7.81796512,59.3956512 L8.9744186,58.7088605 Z" id="Shape"></path>
                        <polygon id="Path" points="3.61627907 54.3139535 1.88709302 49.1147674 3.22755814 48.6689419 4.31006977 51.9238256 5.30794186 51.5919535 4.30377907 48.5726512 5.58436047 48.1467674 6.58852326 51.1660698 7.82619767 50.7544302 6.71236047 47.4053605 8.13422093 46.9324767 9.89468605 52.2259651"></polygon>
                        <path d="M1.34883721,46.5813953 L0.96244186,43.2048837 C0.878255814,42.4695 0.990116279,41.8987209 1.29798837,41.4924419 C1.60584884,41.0862209 2.08262791,40.8461628 2.72833721,40.7722674 C3.39198837,40.6963372 3.93345349,40.8365698 4.35287209,41.1928372 C4.77222093,41.5491628 5.02876744,42.1368721 5.1225,42.9559767 L5.24975581,44.0680349 L7.68905814,43.7888837 L7.92254651,45.8291163 L1.34883721,46.5813953 Z M3.91790698,44.2204651 L3.86093023,43.7227209 C3.81616279,43.3311163 3.71662791,43.0638721 3.56247674,42.921 C3.40833721,42.7781279 3.22513953,42.7188372 3.01288372,42.7431163 C2.80661628,42.7667209 2.63960465,42.8555581 2.51184884,43.0094302 C2.38410465,43.1633605 2.34194186,43.4301628 2.38538372,43.809814 L2.45154651,44.3882558 L3.91790698,44.2204651 Z" id="Shape"></path>
                        <path d="M1.13953488,34.1627907 L1.35826744,32.1345349 L5.28024419,32.5574767 C5.66915116,32.5994535 6.02983721,32.6996047 6.3622907,32.8580233 C6.69475581,33.0164535 6.9764186,33.239 7.20727907,33.5256744 C7.43813953,33.8123488 7.59060465,34.1034419 7.66466279,34.3989186 C7.76861628,34.8096163 7.79081395,35.291686 7.73117442,35.8450814 C7.69663953,36.1651744 7.63652326,36.5120233 7.55086047,36.8856163 C7.46516279,37.2592093 7.34205814,37.5659767 7.18151163,37.8058953 C7.02096512,38.0458256 6.80666279,38.2580116 6.53861628,38.4424651 C6.27055814,38.6269186 6.0022093,38.744 5.73355814,38.7937093 C5.30118605,38.8741744 4.92345349,38.8969651 4.60036047,38.8621977 L0.678383721,38.4392442 L0.897116279,36.4109884 L4.91327907,36.8441047 C5.27226744,36.8828256 5.56345349,36.8136395 5.78683721,36.6364302 C6.01022093,36.4592674 6.14095349,36.194186 6.17901163,35.8411744 C6.21680233,35.4911744 6.1469186,35.2059651 5.96940698,34.9855698 C5.79193023,34.7651744 5.52069767,34.6353023 5.15572093,34.5959419 L1.13953488,34.1627907 Z" id="Path"></path>
                        <path d="M2.02325581,29.3139535 L3.28616279,25.7009302 C3.49663953,25.0987791 3.80734884,24.6886279 4.21827907,24.4704651 C4.6292093,24.2523372 5.05480233,24.2202093 5.49502326,24.3740698 C5.86427907,24.5031395 6.14076744,24.7288837 6.3245,25.0512791 C6.447,25.2662209 6.50774419,25.5392674 6.50674419,25.8703953 C6.77154651,25.4593488 7.07230233,25.1939419 7.409,25.0741628 C7.74569767,24.9543953 8.11288372,24.9640465 8.51053488,25.103 C8.83433721,25.2161395 9.09917442,25.3932326 9.30502326,25.6341047 C9.51088372,25.8750116 9.64340698,26.1524186 9.70260465,26.4663488 C9.73969767,26.6610233 9.72248837,26.9291279 9.65097674,27.2706512 C9.55586047,27.725093 9.48351163,28.0233256 9.43386047,28.1653372 L8.2692093,31.4970814 L2.02325581,29.3139535 Z M5.15372093,28.2231977 L5.44710465,27.3838605 C5.55233721,27.0827791 5.57373256,26.855186 5.5112907,26.7010581 C5.44884884,26.5469535 5.31959302,26.4356395 5.12360465,26.3671279 C4.94182558,26.3036395 4.77919767,26.3129419 4.63574419,26.3950349 C4.4922907,26.4771279 4.36943023,26.6645233 4.26716279,26.9570698 L3.96931395,27.809186 L5.15372093,28.2231977 Z M7.6077907,29.0810116 L7.95181395,28.096814 C8.06797674,27.7644884 8.09094186,27.5095581 8.02076744,27.3320116 C7.95053488,27.1544767 7.81602326,27.0309535 7.61718605,26.9614535 C7.43256977,26.8969186 7.2605814,26.9125 7.10122093,27.0081977 C6.94186047,27.1038953 6.80311628,27.3207558 6.68496512,27.6587558 L6.34243023,28.6386977 L7.6077907,29.0810116 Z" id="Shape"></path>
                        <polygon id="Path" points="5.15116279 21.3604651 6.20754651 19.61 10.4775465 22.1868605 12.1262674 19.4548837 13.5212674 20.2967209 10.8161512 24.7792791"></polygon>
                        <polygon id="Path" points="9.15116279 15.3023256 10.4630233 13.7282558 15.545814 17.9643023 14.2339535 19.5383721"></polygon>
                        <path d="M18.0465116,11.8837209 L19.7584884,11.1267326 C19.994686,11.5862907 20.1244767,12.028186 20.1478488,12.4524302 C20.1712209,12.876686 20.093314,13.2788605 19.9141163,13.6589419 C19.7349186,14.0390465 19.4205349,14.4222558 18.9709651,14.8085698 C18.4255349,15.2772558 17.9118023,15.5808372 17.4298023,15.719314 C16.9477674,15.8578023 16.4096512,15.8352442 15.8153837,15.6515233 C15.2211744,15.4678721 14.6563953,15.0645349 14.1210814,14.4415233 C13.4072791,13.6108372 13.0794884,12.782686 13.1376977,11.9571047 C13.1959535,11.1315116 13.6289651,10.3716395 14.4367674,9.67745349 C15.0689186,9.13426744 15.6756047,8.83505814 16.257,8.77983721 C16.8383488,8.72460465 17.4443256,8.88623256 18.0750233,9.26468605 L16.9675465,10.7459651 C16.7882442,10.6342209 16.6419419,10.5655698 16.5286628,10.5399186 C16.3399767,10.4957326 16.1554186,10.4957326 15.9749884,10.5396279 C15.7945698,10.5835814 15.6267674,10.6722442 15.4715814,10.8055814 C15.1201395,11.1075814 14.9724302,11.4804651 15.0284535,11.9242442 C15.067407,12.2557907 15.2799884,12.6463488 15.666314,13.0958721 C16.1447907,13.6527093 16.5572093,13.9618372 16.9035233,14.0232558 C17.2498605,14.0846512 17.5759419,13.9839535 17.8817442,13.7212209 C18.1784186,13.4662907 18.3310581,13.1903256 18.3396744,12.8933256 C18.347814,12.5963256 18.2504884,12.2598023 18.046407,11.8837558 L18.0465116,11.8837209 Z" id="Path"></path>
                        <path d="M25.0930233,9.34883721 L23.037907,10.4444884 L23.2689767,11.5590581 L21.4250233,12.5421628 L20.506686,5.53355814 L22.4741279,4.48462791 L27.7814535,9.15334884 L25.8936628,10.159814 L25.0930233,9.34883721 Z M24.0415698,8.28804651 L22.2773837,6.53316279 L22.7551628,8.97386047 L24.0415698,8.28804651 Z" id="Shape"></path>
                        <path d="M30.2906977,1.51162791 L33.2838372,0.994674419 C33.8738721,0.892813953 34.3643256,0.890488372 34.7552326,0.987697674 C35.146093,1.08513953 35.4859884,1.26302326 35.7749186,1.52151163 C36.0638372,1.78002326 36.2959767,2.0987093 36.4713372,2.4775814 C36.6466977,2.85646512 36.7727791,3.26827907 36.8496047,3.71304651 C36.9699419,4.40982558 36.9839535,4.96386047 36.8916977,5.37525581 C36.7993721,5.78661628 36.6347791,6.14634884 36.3979186,6.45443023 C36.1610465,6.76252326 35.8884419,6.98746512 35.5801163,7.12926744 C35.1588023,7.32417442 34.7687674,7.45260465 34.41,7.51456977 L31.4168605,8.03152326 L30.2906977,1.51162791 Z M32.5604651,2.64024419 L33.1757442,6.20268605 L33.6694186,6.11745349 C34.0904419,6.04477907 34.3818488,5.94632558 34.5436163,5.82219767 C34.7053837,5.69806977 34.8165698,5.51093023 34.877186,5.26076744 C34.9377674,5.01060465 34.923,4.62459302 34.8328837,4.10275581 C34.7135581,3.41190698 34.5192093,2.95844186 34.2498372,2.74240698 C33.9804535,2.52633721 33.5848372,2.46336047 33.0629767,2.55348837 L32.5604651,2.64024419 Z" id="Shape"></path>
                        <polygon id="Path" points="38.7906977 0.372093023 44.2648837 0.606162791 44.2045349 2.01755814 40.7775581 1.87102326 40.7326744 2.92167442 43.9117442 3.05761628 43.8540698 4.40587209 40.675 4.26993023 40.6193023 5.57306977 44.1455814 5.72384884 44.0816279 7.22094186 38.5081395 6.98262791"></polygon>
                        <polygon id="Path" points="46.755814 1 48.7417442 1.48605814 47.5560465 6.33036047 50.6554651 7.08896512 50.2681163 8.67152326 45.1827674 7.42687209"></polygon>
                        <path d="M57.372093,4.52325581 L60.2976744,6.25267442 C60.9348488,6.62933721 61.3225116,7.06298837 61.4606977,7.55360465 C61.5988372,8.04423256 61.5025581,8.56927907 61.1718256,9.12872093 C60.8318953,9.70374419 60.3933372,10.0509302 59.8561279,10.1702907 C59.3189302,10.2896512 58.6954884,10.139593 57.9857791,9.72002326 L57.0222326,9.15043023 L55.772814,11.2640349 L54.0050233,10.219 L57.372093,4.52325581 Z M57.7044186,7.99662791 L58.135686,8.25156977 C58.4749884,8.45215116 58.7481163,8.53409302 58.9550698,8.49739535 C59.1620233,8.46065116 59.3198488,8.35039535 59.4285698,8.16648837 C59.5342674,7.98776744 59.5642093,7.80102326 59.5185698,7.60625581 C59.4728721,7.4115 59.2856047,7.21688372 58.9566512,7.0224186 L58.4554535,6.72613953 L57.7044186,7.99662791 Z" id="Shape"></path>
                        <path d="M63.4418605,15.7093023 L61.7365116,14.1232558 L60.7580233,14.7048256 L59.2277907,13.281686 L65.5548837,10.1302907 L67.1875581,11.6486628 L64.5025581,18.1873837 L62.9360465,16.730407 L63.4418605,15.7093023 Z M64.1022558,14.3696512 L65.1867093,12.13 L63.0347326,13.3768605 L64.1022558,14.3696512 Z" id="Shape"></path>
                        <path d="M64.8953488,18.7674419 L70.3511628,15.0239535 L72.2790698,17.8337209 C72.6365581,18.3547326 72.8651163,18.783593 72.9647674,19.1202326 C73.0644186,19.4569186 73.0511628,19.7926047 72.925,20.1272907 C72.7988488,20.4619767 72.5621047,20.7484884 72.2147674,20.986814 C71.9120698,21.1945 71.606686,21.3091628 71.298593,21.3308023 C70.9904884,21.3524302 70.6907558,21.2971977 70.3993953,21.1650465 C70.213814,21.0807442 70.0065349,20.9328488 69.7775349,20.7214186 C69.8484651,20.9683488 69.8818372,21.160686 69.8778837,21.2984535 C69.8755581,21.3911279 69.8419535,21.546593 69.7764884,21.7648837 C69.710907,21.9831744 69.6521279,22.1393953 69.5999767,22.2335814 L68.5775233,24.133814 L67.2700814,22.2283488 L68.3193953,20.1836977 C68.4569419,19.9214651 68.5273256,19.7235581 68.5305465,19.5899767 C68.5314884,19.4105233 68.4791512,19.2438953 68.3736512,19.0900698 L68.2715581,18.9412093 L66.0572558,20.4605116 L64.8953488,18.7674419 Z M69.3024419,18.2341047 L69.7901628,18.9449302 C69.8429535,19.0217907 69.9698721,19.1536744 70.1710116,19.3404419 C70.2699651,19.4367209 70.3895698,19.4887907 70.5298837,19.4965233 C70.6701977,19.5046628 70.7998953,19.4672209 70.919,19.385593 C71.0951395,19.2647326 71.1920581,19.1161279 71.2097442,18.9397907 C71.2274186,18.7634535 71.1306744,18.5214651 70.9196163,18.213814 L70.4114767,17.4732209 L69.3024419,18.2341047 Z" id="Shape"></path>
                        <path d="M71.3488372,28.1395349 L70.4857093,25.9765116 L69.3524884,26.0837209 L68.5780116,24.1427907 L75.6451047,24.0003256 L76.4714419,26.0711395 L71.2477209,30.8331163 L70.4548372,28.8461395 L71.3488372,28.1395349 Z M72.5188372,27.2110465 L74.4569767,25.6504651 L71.9784884,25.857093 L72.5188372,27.2110465 Z" id="Shape"></path>
                        <path d="M74.244186,34.4418605 L75.6055814,34.2381512 L76.0731163,37.362686 L73.2833488,37.7801279 C72.7861744,37.2429884 72.4295349,36.7555698 72.2134419,36.3178023 C71.9973372,35.8800698 71.842093,35.3457791 71.7476977,34.7148953 C71.6315349,33.9382209 71.6692093,33.2853605 71.8608372,32.7561744 C72.0524302,32.2270233 72.3899535,31.7886163 72.8733953,31.4409419 C73.3568256,31.0932674 73.9377907,30.8686628 74.6163023,30.7671395 C75.3304884,30.6602791 75.9737442,30.7145814 76.5460698,30.9301977 C77.1183488,31.1457674 77.5838953,31.5172558 77.9426977,32.0446628 C78.2203256,32.4564419 78.4152326,33.0372791 78.5274535,33.7872209 C78.635593,34.5103372 78.6511047,35.0609419 78.5738488,35.4391977 C78.4965233,35.8173605 78.3379884,36.1453256 78.0981395,36.423093 C77.8582674,36.7008605 77.5359651,36.9308605 77.1312093,37.1131279 L76.4911744,35.2146395 C76.7261395,35.0973256 76.8947326,34.932907 76.9969535,34.7213837 C77.0991628,34.5098488 77.128,34.2553023 77.0834651,33.9577209 C77.0170698,33.5143256 76.8102442,33.184 76.4628488,32.9667326 C76.1154419,32.7494535 75.6084651,32.690686 74.9419186,32.7904302 C74.233686,32.8963605 73.7477326,33.1052674 73.4840116,33.4170116 C73.2203372,33.7287674 73.1241163,34.1226977 73.1953605,34.5988721 C73.2291977,34.8250349 73.2941977,35.0358837 73.390407,35.2314186 C73.4865698,35.4269419 73.6333605,35.6453372 73.8307093,35.8865814 L74.4466977,35.7943721 L74.244186,34.4418605 Z" id="Path"></path>
                        <path d="M78.5697674,44.0465116 L78.3886512,46.0784884 L74.4595814,45.7282674 C74.0699651,45.6935 73.7074884,45.6000581 73.3721512,45.4478256 C73.036814,45.2955814 72.7510814,45.0782907 72.5149419,44.7959535 C72.278814,44.513593 72.1209884,44.2253837 72.0414651,43.9313256 C71.9298372,43.5226163 71.8987907,43.0410465 71.9482093,42.4865581 C71.976814,42.1658721 72.0304186,41.8179651 72.1092093,41.4428488 C72.1879302,41.0677326 72.3053605,40.7587442 72.4614419,40.5158837 C72.6175116,40.2730233 72.8278488,40.056907 73.0924302,39.8675233 C73.3570233,39.6781279 73.6231628,39.5561047 73.8908488,39.5014186 C74.3216512,39.4129302 74.6988953,39.3831279 75.0225698,39.412 L78.9516395,39.7622209 L78.7705233,41.7941977 L74.7470349,41.4355698 C74.3873953,41.4034767 74.0975349,41.4781279 73.8774767,41.6593837 C73.657407,41.8406512 73.5316163,42.1081163 73.500093,42.4617674 C73.468814,42.8124186 73.5440465,43.0962791 73.7255233,43.3133488 C73.9070581,43.530407 74.1806512,43.6552326 74.5462907,43.6878372 L78.5697674,44.0465116 Z" id="Path"></path>
                        <path d="M71.255814,51.0465116 L71.9832674,48.834186 L71.0457791,48.1886047 L71.6985,46.2034884 L77.2072209,50.6326744 L76.5107907,52.7506977 L69.4484651,53.0463953 L70.1166977,51.0140698 L71.255814,51.0465116 Z M72.7488372,51.0860465 L75.2367442,51.1344186 L73.204186,49.7011628 L72.7488372,51.0860465 Z" id="Shape"></path>
                        <polygon id="Path" points="75.1162791 56.4651163 73.949186 58.4123256 71.3461628 58.41 72.5756977 60.7044186 71.4155814 62.6401163 69.4397674 58.4566279 67.0627907 57.0319767 68.1161744 55.2744186 70.4931512 56.6990698"></polygon>
                    </g>
                    <g transform="translate(22.093023, 24.418605)" fill="#009B3A" fill-rule="nonzero" id="Path" stroke="#000000" stroke-width="0.1">
                        <path d="M34.3953488,2.67430233 C34.3953488,2.67430233 53.0604651,10.7161628 49.8011628,27.3337209 C46.5418605,43.9512791 36.15,43.8395349 32.0755814,45.6767442 C28.000814,47.5131395 25.1897674,50.1413953 23.5818605,49.7738372 C21.9740698,49.4062442 19.8488372,48.1654651 19.8488372,48.1654651 C19.8488372,48.1654651 19.6787558,50.8946512 22.9516279,51.3912791 C26.2245,51.887907 30.5266279,47.0840698 32.5930233,46.5498837 C34.6594186,46.0157791 47.3465116,44.6387209 50.4337209,27.7301163 C54.0363953,9.68127907 34.5116279,3.20453488 34.3965116,2.67430233 L34.3953488,2.67430233 Z"></path>
                        <path d="M43.8139535,6.20930233 C44.160039,7.57431221 44.1664282,8.69794784 43.8282519,8.72389004 C43.4900756,8.74983225 42.9343765,7.66833531 42.5846512,6.30360465 C42.3567399,5.41422811 42.2636048,4.5813034 42.3405495,4.12055609 C42.4174941,3.65980877 42.652741,3.64176249 42.9571183,4.07325781 C43.2614956,4.50475313 43.5884142,5.31974382 43.8139535,6.20930233 L43.8139535,6.20930233 Z"></path>
                        <path d="M43.1744186,6.38372093 C43.5942585,7.23039081 43.8762527,8.05279506 43.9137879,8.54000844 C43.9513231,9.02722182 43.7386719,9.1049017 43.3562312,8.74367977 C42.9737905,8.38245783 42.4799157,7.637452 42.0613256,6.79032558 C41.4170231,5.48641132 41.1438961,4.34090924 41.4505883,4.22887683 C41.7572806,4.11684442 42.5281924,5.08050938 43.1744186,6.38372093 Z"></path>
                        <path d="M41.3023256,7.61627907 C42.6185686,8.00421569 43.6545129,8.59706873 43.6224713,8.94405845 C43.5904297,9.29104818 42.5024007,9.26223843 41.1856744,8.87953488 C39.8694314,8.49159826 38.8334871,7.89874523 38.8655287,7.5517555 C38.8975703,7.20476577 39.9855993,7.23357553 41.3023256,7.61627907 L41.3023256,7.61627907 Z"></path>
                        <path d="M41.5813953,6.93023256 C42.3644641,7.45396634 43.0383382,8.04131476 43.3475779,8.46963645 C43.6568176,8.89795814 43.5540886,9.10169154 43.0783316,9.0036091 C42.6025747,8.90552666 41.826612,8.52064148 41.0445814,7.99484884 C40.2615127,7.47111505 39.5876385,6.88376664 39.2783988,6.45544494 C38.9691592,6.02712325 39.0718881,5.82338985 39.5476451,5.92147229 C40.0234021,6.01955473 40.7993648,6.40443992 41.5813953,6.93023256 L41.5813953,6.93023256 Z"></path>
                        <path d="M42.372093,6.60465116 C43.0368009,7.29418411 43.574357,8.01245233 43.7812479,8.48752661 C43.9881388,8.96260089 43.8327436,9.12187148 43.3738934,8.90504014 C42.9150432,8.68820879 42.2228681,8.12841572 41.5594186,7.43759302 C40.5398852,6.37599474 39.8965774,5.33245576 40.1203079,5.10314564 C40.3440383,4.87383551 41.3506258,5.54503486 42.372093,6.60465116 L42.372093,6.60465116 Z"></path>
                        <path d="M43.6744186,8.95348837 C43.6848837,8.96511628 42.9543256,9.35945349 42.7888721,9.41836047 C42.6233953,9.47719767 42.3991047,9.19797674 41.9232326,9.44219767 C41.4473721,9.6864186 41.1207209,10.1318953 41.0168372,10.3933372 C40.913,10.6547674 41.1516628,10.764314 41.726814,10.4847326 C42.3019651,10.2051744 42.4533372,9.76224419 42.7306512,9.58869767 C43.0079419,9.41518605 43.473093,9.15980233 43.7378372,9.06554651 C43.8524884,8.81526744 44.2247442,8.27872093 44.4171744,7.9707907 C44.6096047,7.66288372 45.3646512,7.15467442 45.6395,6.563 C45.8794302,6.07356977 45.7893372,5.65674419 45.4682093,5.83090698 C45.1470814,6.0050814 44.7318953,6.49704651 44.5385465,6.85017442 C44.345186,7.20332558 44.5112209,7.65294186 44.2964535,7.98382558 C44.1273023,8.22359302 43.7182326,8.9527907 43.6744186,8.95343023 L43.6744186,8.95348837 Z"></path>
                        <path d="M49.4534884,10.8604651 C49.472846,12.2309026 49.3255105,13.4576786 49.0669818,14.0786786 C48.808453,14.6996786 48.4780077,14.6205579 48.2001213,13.8711205 C47.9222349,13.121683 47.7391251,11.8157863 47.7197674,10.4453488 C47.6898431,8.32683612 48.0536913,6.70236917 48.5324452,6.81700037 C49.011199,6.93163156 49.4235641,8.7419524 49.4534884,10.8604651 Z"></path>
                        <path d="M48.4883721,10.8255814 C48.7891251,12.2255463 48.9070822,13.5287572 48.797677,14.2428376 C48.6882719,14.956918 48.3681853,14.9729945 47.9583515,14.2849931 C47.5485178,13.5969917 47.1114229,12.3098096 46.8122093,10.9097674 C46.5114563,9.50980256 46.3934992,8.20659166 46.5029043,7.49251123 C46.6123095,6.7784308 46.9323961,6.7623543 47.3422299,7.45035572 C47.7520636,8.13835714 48.1891585,9.4255392 48.4883721,10.8255814 L48.4883721,10.8255814 Z"></path>
                        <path d="M45.5,11.755814 C46.6085632,12.4990926 47.5804777,13.35715 48.0466389,14.0041213 C48.5128001,14.6510926 48.4016951,14.9877271 47.7555184,14.8861809 C47.1093416,14.7846347 46.0272218,14.2604859 44.9201163,13.5127907 C43.8115531,12.7695121 42.8396386,11.9114546 42.3734774,11.2644834 C41.9073162,10.6175121 42.0184212,10.2808776 42.6645979,10.3824238 C43.3107747,10.4839699 44.3928944,11.0081188 45.5,11.755814 L45.5,11.755814 Z"></path>
                        <path d="M46.1046512,10.9069767 C47.4984571,12.5989021 48.3805708,14.2502683 48.0792008,14.6034444 C47.7778308,14.9566206 46.4060831,13.8790577 45.0086395,12.1913953 C44.0971264,11.0905807 43.3577782,9.94714363 43.0710625,9.19484048 C42.7843467,8.44253733 42.9941889,8.19662275 43.6209867,8.55038301 C44.2477844,8.90414328 45.1955108,9.80338148 46.1046512,10.9069767 L46.1046512,10.9069767 Z"></path>
                        <path d="M47.3139535,10.7906977 C48.0054489,12.0749971 48.5112745,13.3429509 48.640148,14.1150718 C48.7690215,14.8871927 48.501273,15.0456311 47.9381537,14.5304723 C47.3750344,14.0153135 46.6024937,12.9051866 45.9126744,11.6198953 C45.221179,10.335596 44.7153534,9.06764207 44.5864799,8.29552121 C44.4576064,7.52340036 44.7253549,7.3649619 45.2884742,7.88012069 C45.8515935,8.39527948 46.6241342,9.50540646 47.3139535,10.7906977 L47.3139535,10.7906977 Z"></path>
                        <path d="M48.3372093,14.7325581 C48.3488372,14.7532558 47.2055233,14.9916977 46.9568605,15.0020349 C46.7081977,15.0125 46.4900698,14.5119884 45.7501163,14.6487907 C45.0102209,14.785593 44.4103488,15.277407 44.1798837,15.6053256 C43.9494419,15.9332674 44.2437209,16.1969767 45.1328256,16.054 C46.0219302,15.9110116 46.3782907,15.3443953 46.8198023,15.2199651 C47.2612907,15.0955465 47.9900349,14.9379651 48.3879419,14.9214651 C48.6295349,14.614314 49.3228023,14.0125 49.691314,13.6576279 C50.0597791,13.3027674 51.2737558,12.912814 51.8502674,12.1885581 C52.3446163,11.595 52.3578837,10.9577442 51.8560814,11.0634419 C51.3536628,11.1691395 50.6157326,11.6879419 50.2310814,12.1071512 C49.8463488,12.5263837 49.9274535,13.2446512 49.5203837,13.6223837 C49.2067326,13.8900814 48.3987326,14.7513488 48.3378256,14.7326512 L48.3372093,14.7325581 Z"></path>
                        <path d="M52.4883721,18.6046512 C52.2603126,19.9635355 51.894731,21.1491872 51.529601,21.7141311 C51.164471,22.279075 50.8553908,22.1372874 50.71901,21.34228 C50.5826291,20.5472726 50.6397142,19.2201009 50.8687209,17.8616512 C51.0967804,16.5027669 51.462362,15.3171151 51.827492,14.7521712 C52.192622,14.1872273 52.5017022,14.329015 52.6380831,15.1240224 C52.7744639,15.9190297 52.7173788,17.2462014 52.4883721,18.6046512 L52.4883721,18.6046512 Z"></path>
                        <path d="M51.5697674,18.372093 C51.6124821,19.8164606 51.4931235,21.1322132 51.256996,21.8199365 C51.0208685,22.5076597 50.7041727,22.4619192 50.4271154,21.7000765 C50.150058,20.9382338 49.9551147,19.5770864 49.9162791,18.1332791 C49.8735644,16.6889115 49.992923,15.3731588 50.2290505,14.6854356 C50.465178,13.9977124 50.7818738,14.0434529 51.0589312,14.8052956 C51.3359885,15.5671383 51.5309319,16.9282857 51.5697674,18.372093 Z"></path>
                        <path d="M48.4767442,18.7209302 C49.9360014,20.1813266 50.9211277,21.7287461 50.6770852,22.1771885 C50.4330428,22.6256309 49.0522456,21.8052801 47.5929884,20.3448837 C46.1337311,18.8844874 45.1486049,17.3370678 45.3926473,16.8886255 C45.6366898,16.4401831 47.017487,17.2605339 48.4767442,18.7209302 L48.4767442,18.7209302 Z"></path>
                        <path d="M49.2209302,18 C49.9091307,19.2584508 50.4208767,20.5221409 50.5633986,21.3150503 C50.7059204,22.1079597 50.4575656,22.3096267 49.9118869,21.8440852 C49.3662083,21.3785437 48.6061074,20.3165206 47.917907,19.0580698 C47.2297065,17.799619 46.7179605,16.5359289 46.5754386,15.7430195 C46.4329168,14.9501101 46.6812717,14.7484431 47.2269503,15.2139846 C47.772629,15.679526 48.5327298,16.7415491 49.2209302,18 L49.2209302,18 Z"></path>
                        <path d="M50.4069767,18.1162791 C50.8538248,19.5213986 51.1219449,20.8775735 51.1093951,21.6691727 C51.0968453,22.4607719 50.8055536,22.5661898 50.3462718,21.9453456 C49.8869901,21.3245014 49.3302734,20.0727691 48.8877907,18.6660698 C48.4409427,17.2609502 48.1728226,15.9047754 48.1853724,15.1131762 C48.1979221,14.321577 48.4892139,14.216159 48.9484956,14.8370032 C49.4077773,15.4578475 49.9644941,16.7095797 50.4069767,18.1162791 L50.4069767,18.1162791 Z"></path>
                        <path d="M50.7093023,22.1976744 C50.7162791,22.2203488 49.5564186,22.2362791 49.3115116,22.1984419 C49.0666047,22.1608837 48.9436628,21.6247791 48.1957907,21.6177791 C47.4479186,21.6108023 46.7728837,21.9812674 46.4884651,22.2608837 C46.2040814,22.5405 46.4441628,22.8574884 47.3389651,22.8870465 C48.2337791,22.9166977 48.684314,22.4254535 49.1382674,22.3873605 C49.5922442,22.3493372 50.3329186,22.3336395 50.7247791,22.3931744 C51.0163372,22.1362326 51.8025116,21.6750233 52.2266395,21.3953023 C52.6507907,21.115593 53.907686,20.9636512 54.6018721,20.3590233 C55.1921395,19.8677558 55.3200698,19.2408837 54.8099419,19.2488023 C54.2998023,19.2569419 53.4849419,19.6273372 53.033314,19.9674884 C52.5816512,20.3076279 52.5313488,21.0326047 52.0653256,21.3274884 C51.7104651,21.5316279 50.7653256,22.2270581 50.7091628,22.1968837"></path>
                        <path d="M52.7209302,27.2325581 C51.5868284,29.0322092 50.4037998,30.1869806 50.0785618,29.8118123 C49.7533239,29.436644 50.4090377,27.6736045 51.5431395,25.8739535 C52.6772413,24.0743027 53.8602697,22.9195316 54.1855076,23.2946999 C54.5107455,23.6698682 53.8550319,25.4329072 52.7209302,27.2325581"></path>
                        <path d="M51.9651163,26.6395349 C51.1588972,28.7266673 50.1909898,30.2160157 49.8032346,29.9660876 C49.4154793,29.7161595 49.7547112,27.8215976 50.5609302,25.7344651 C51.3671493,23.6473327 52.3350567,22.1579843 52.7228119,22.4079124 C53.1105672,22.6578405 52.7713353,24.5524024 51.9651163,26.6395349"></path>
                        <path d="M49.0348837,25.6860465 C49.7888992,27.6435705 50.079903,29.4857668 49.6848588,29.8007072 C49.2898147,30.1156476 48.3583178,28.7840705 47.6043023,26.8265465 C46.850287,24.8690227 46.5592834,23.0268268 46.9543275,22.7118865 C47.3493716,22.3969461 48.2808683,23.7285229 49.0348837,25.6860465"></path>
                        <path d="M49.9883721,25.3255814 C50.1926727,27.5606265 50.004489,29.4637654 49.5671542,29.5854402 C49.1298195,29.707115 48.6074974,28.0016522 48.3980233,25.7680465 C48.2614118,24.3113692 48.2875829,22.9191434 48.4666101,22.1194282 C48.6456373,21.3197131 48.9500978,21.2350064 49.2645124,21.8974367 C49.578927,22.5598671 49.8551346,23.8679654 49.9883721,25.3255814"></path>
                        <path d="M51.0232558,25.9302326 C50.8806863,27.409951 50.5975312,28.7659953 50.2804524,29.4875567 C49.9633736,30.2091181 49.6605429,30.1865743 49.4860337,29.4284172 C49.3115246,28.6702601 49.291849,27.2916719 49.4344186,25.8119535 C49.6548121,23.5245072 50.1891496,21.6966433 50.6278949,21.7293052 C51.0666402,21.7619671 51.2436493,23.6427863 51.0232558,25.9302326"></path>
                        <path d="M49.7093023,29.8372093 C49.7069767,29.8611628 48.6506395,29.3963256 48.4434884,29.2602326 C48.2363721,29.1241279 48.3332558,28.5761977 47.6588953,28.2605 C46.9845698,27.9448023 46.229593,28.0092791 45.8635465,28.1509651 C45.4975233,28.2926744 45.5917791,28.6858721 46.3903721,29.0832326 C47.1889419,29.4806047 47.7874651,29.2113953 48.2132791,29.3637674 C48.6390349,29.5161512 49.3156744,29.8078605 49.6471163,30.0256279 C50.010814,29.9078953 50.9016512,29.8052558 51.3942093,29.7212326 C51.8867907,29.6372791 53.0836279,30.0159535 53.9468837,29.7422791 C54.6719884,29.5307558 55.0312093,29.0023488 54.5663256,28.7987907 C54.1014186,28.5952209 53.219814,28.6020233 52.6788837,28.7306512 C52.1379302,28.8593372 51.810907,29.5108023 51.2745814,29.5915581 C50.8740698,29.6341163 49.7484186,29.8882791 49.7093488,29.837093"></path>
                        <path d="M50.3953488,35.9883721 C49.2051728,37.0079803 48.0244069,37.7666193 47.2978341,37.9785169 C46.5712614,38.1904146 46.4092656,37.8233786 46.872869,37.015668 C47.3364724,36.2079574 48.3552426,35.0822826 49.5454186,34.0626744 C50.7355946,33.0430662 51.9163606,32.2844272 52.6429333,32.0725296 C53.369506,31.8606319 53.5315018,32.2276679 53.0678984,33.0353785 C52.6042951,33.8430891 51.5855249,34.9687639 50.3953488,35.9883721"></path>
                        <path d="M49.755814,35.0697674 C48.1823909,37.0819211 46.627448,38.3757456 46.2827516,37.9596055 C45.9380553,37.5434653 46.9341351,35.5749443 48.5075581,33.5627907 C49.5253844,32.2611555 50.5848527,31.2020091 51.2868717,30.7843217 C51.9888906,30.3666342 52.2268068,30.6538623 51.9109996,31.53781 C51.5951923,32.4217577 50.7736402,33.7681323 49.755814,35.0697674"></path>
                        <path d="M46.8488372,32.9534884 C46.9715057,34.531739 46.8981946,36.0642159 46.6566642,36.9706259 C46.4151338,37.877036 46.0423079,38.0188126 45.6793619,37.3422701 C45.316416,36.6657276 45.0188351,35.2742919 44.8993023,33.6948488 C44.7766339,32.1165982 44.8499449,30.5841213 45.0914753,29.6777113 C45.3330057,28.7713012 45.7058317,28.6295246 46.0687776,29.3060671 C46.4317235,29.9826096 46.7293044,31.3740453 46.8488372,32.9534884"></path>
                        <path d="M48.0116279,32.8953488 C47.5024167,35.4410201 46.668004,37.4808298 46.1456613,37.4569006 C45.6233186,37.4329713 45.6098676,35.3543198 46.1155814,32.8084884 C46.4442288,31.1540327 46.9298784,29.6311919 47.3888761,28.8158458 C47.8478739,28.0004997 48.2101618,28.0170966 48.3387366,28.8593602 C48.4673113,29.7016237 48.3425482,31.2409973 48.0116279,32.8953488"></path>
                        <path d="M48.9534884,33.9302326 C48.3095939,35.5184658 47.548906,36.9221353 46.959828,37.6090613 C46.3707499,38.2959873 46.0434703,38.1610006 46.1020721,37.2552793 C46.1606739,36.349558 46.5961851,34.8117692 47.2434884,33.2249419 C47.8873829,31.6367086 48.6480707,30.2330391 49.2371488,29.5461131 C49.8262268,28.8591871 50.1535064,28.9941739 50.0949047,29.8998952 C50.0363029,30.8056165 49.6007916,32.3434053 48.9534884,33.9302326"></path>
                        <path d="M46.2209302,37.7790698 C46.2104651,37.8046512 45.2004884,36.9094651 45.0172093,36.684314 C44.8339651,36.4591744 45.1206977,35.8893953 44.4821279,35.2969884 C43.8436163,34.704593 42.9914302,34.5026395 42.5418953,34.5266512 C42.0924186,34.5507209 42.0669419,35.0187791 42.8153953,35.7463023 C43.5638605,36.4737907 44.3112093,36.3931628 44.729814,36.7153721 C45.1483837,37.0375814 45.7973372,37.6043605 46.0905116,37.9645581 C46.5295581,37.9657209 47.5438837,38.1751163 48.1136512,38.2605814 C48.6834767,38.3460465 49.8764419,39.1970349 50.9165581,39.2072326 C51.7842442,39.2360698 52.3533023,38.7827674 51.9084884,38.389907 C51.4636395,37.9970233 50.4910465,37.6856279 49.8532558,37.632 C49.2155,37.5782791 48.6413953,38.1791512 48.0244186,38.0742558 C47.5695465,37.9763488 46.2469767,37.849686 46.220814,37.7790465"></path>
                        <path d="M44.3837209,43.6511628 C42.6708551,43.9362614 41.1057899,43.9772658 40.2823299,43.7586185 C39.4588699,43.5399712 39.5031979,43.0951766 40.3984955,42.5929951 C41.293793,42.0908135 42.9028691,41.608197 44.6152209,41.3282558 C46.3280867,41.0431572 47.8931519,41.0021528 48.716612,41.2208001 C49.540072,41.4394474 49.4957439,41.884242 48.6004464,42.3864235 C47.7051488,42.8886051 46.0960728,43.3712216 44.3837209,43.6511628"></path>
                        <path d="M44.2906977,42.4069767 C41.673078,43.4106168 39.4656504,43.7417886 39.36027,43.1466697 C39.2548896,42.5515508 41.2914617,41.2555006 43.9090814,40.2518605 C46.5267011,39.2482204 48.7341286,38.9170486 48.8395091,39.5121675 C48.9448895,40.1072864 46.9083173,41.4033366 44.2906977,42.4069767"></path>
                        <path d="M42.627907,38.7093023 C41.4788494,41.1315872 40.0354752,43.0006649 39.4040404,42.8840044 C38.7726056,42.7673439 39.1922216,40.7091222 40.3412791,38.2868372 C41.084589,36.7198933 41.9893503,35.312238 42.7147479,34.5941216 C43.4401456,33.8760051 43.8759744,33.9565265 43.858062,34.8053541 C43.8401495,35.6541817 43.3712171,37.1423584 42.627907,38.7093023"></path>
                        <path d="M43.7906977,39.3372093 C42.5714106,40.7168364 41.2748661,41.8792776 40.3894598,42.3866525 C39.5040536,42.8940273 39.1642999,42.6692536 39.4981808,41.7970013 C39.8320616,40.924749 40.7888525,39.5375341 42.0081395,38.157907 C43.8929938,36.0251886 45.8200091,34.5602747 46.3122488,34.88593 C46.8044886,35.2115853 45.6755518,37.2044908 43.7906977,39.3372093"></path>
                        <path d="M44.127907,40.872093 C42.6413022,42.0068754 41.1451437,42.8979432 40.2045899,43.2087049 C39.2640361,43.5194665 39.0224544,43.2025529 39.5710999,42.3776749 C40.1197454,41.552797 41.3749885,40.3456898 42.8626744,39.2123256 C45.1549061,37.466034 47.2925433,36.4229394 47.6413388,36.8804991 C47.9901344,37.3380589 46.418473,39.1236163 44.127907,40.872093"></path>
                        <path d="M39.3837209,42.9418605 C39.3596512,42.9601163 38.873814,41.5246512 38.8198953,41.2045349 C38.7659419,40.884407 39.3539186,40.5083256 39.0612326,39.5756977 C38.7685349,38.6430233 38.0562674,37.9580233 37.6093721,37.7209302 C37.1624302,37.4838023 36.8821628,37.9142674 37.207186,39.0390698 C37.5322093,40.163814 38.2975349,40.5193023 38.5255581,41.067907 C38.7535465,41.6164302 39.0703256,42.530814 39.1565581,43.0430233 C39.5794302,43.2984884 40.4442326,44.0838023 40.9476047,44.4946512 C41.4508953,44.9054884 42.1374884,46.4047674 43.1358605,47.0160465 C43.9575698,47.5452907 44.7544651,47.4432907 44.5396977,46.812407 C44.3249419,46.1814884 43.5563023,45.3228721 42.9700465,44.9029884 C42.3837907,44.4831163 41.5015581,44.7224767 40.9634186,44.265907 C40.5778605,43.9097442 39.3706279,43.0243953 39.3838837,42.9419535"></path>
                        <path d="M36.5116279,47.9534884 C33.8196258,47.9860727 31.6518721,47.3888812 31.6541039,46.6152962 C31.6563391,45.8417111 33.8277252,45.1807919 36.5197674,45.1343023 C39.2117695,45.101718 41.3795232,45.6989095 41.3772914,46.4724945 C41.3750562,47.2460796 39.2036701,47.9069988 36.5116279,47.9534884"></path>
                        <path d="M35.8604651,43.5465116 C34.1439105,45.7631588 32.2841932,47.1685897 31.7066703,46.6856296 C31.1291475,46.2026694 32.0525151,44.0142053 33.7690698,41.7975581 C34.8794859,40.3636389 36.1048616,39.2053171 36.9836097,38.7589215 C37.8623577,38.312526 38.2609754,38.6458746 38.0293073,39.6333983 C37.7976392,40.620922 36.9708813,42.1125924 35.8604651,43.5465116"></path>
                        <path d="M36.5465116,45.7906977 C34.0277901,46.8767145 31.7629642,47.1743986 31.4878814,46.4555935 C31.2127987,45.7367885 33.0316273,44.2736913 35.5503488,43.1876744 C38.0690704,42.1016576 40.3338963,41.8039735 40.608979,42.5227786 C40.8840618,43.2415836 39.0652332,44.7046808 36.5465116,45.7906977"></path>
                        <path d="M37.8837209,3.09302326 C39.1263274,4.21376592 39.8734703,5.2602697 39.5549123,5.43381813 C39.2363544,5.60736655 37.9720168,4.84262728 36.7268721,3.72326744 C35.9169844,2.99519484 35.2780633,2.26080379 35.0519031,1.79801834 C34.8257429,1.3352329 35.0468934,1.21475145 35.631662,1.48216919 C36.2164307,1.74958693 37.0754842,2.36405122 37.8837209,3.09302326"></path>
                        <path d="M36.3837209,4.36046512 C38.0704641,4.57962477 39.49042,5.04091111 39.5552814,5.39077704 C39.6201427,5.74064298 38.3053478,5.84660142 36.6186047,5.62744186 C35.527473,5.48567046 34.4968413,5.23392605 33.9149388,4.96703833 C33.3330363,4.70015061 33.2882677,4.45866619 33.7974969,4.33354991 C34.3067262,4.20843364 35.2925892,4.21869366 36.3837209,4.36046512"></path>
                        <path d="M36.9883721,3.55813953 C38.5770712,4.36654604 39.7279316,5.24602254 39.5588908,5.52250528 C39.3898499,5.79898802 37.9649201,5.3677786 36.3762209,4.55937209 C34.7875218,3.75096558 33.6366614,2.87148908 33.8057023,2.59500635 C33.9747431,2.31852361 35.399673,2.74973303 36.9883721,3.55813953"></path>
                        <path d="M14.872093,43.1744186 C14.872093,43.1744186 18.9836047,44.0562093 22.5577907,45.3552326 C26.132093,46.6543023 31.5627907,51.1130233 33.0224419,51.3655814 C34.6597674,51.4401163 36.9303488,50.8812326 37.792093,48.5172093 C35.2705814,49.1897442 33.7584884,50.2113953 31.3513953,48.8888837 C30.5009186,48.5667558 27.7159302,46.0309767 24.6630233,44.6737674 C21.6101163,43.3165581 15.4527907,41.7693488 15.4527907,41.7693488 L14.872093,43.1743488"></path>
                        <path d="M19.255814,6 C19.2410465,5.96476744 23.9884884,3.50302326 23.9884884,3.50302326 L18.7696512,4.83755814 L18.1633256,5.75574419 L19.2558256,6"></path>
                        <path d="M23.744186,7.15116279 C21.9118605,6.8180814 19.0939535,6.20194186 17.2998837,6.05825581 C18.54,4.68465116 20.2487209,2.36186047 21.3018605,0.936046512 C20.6064651,2.29593023 19.5148837,4.08918605 19.0840698,5.39093023 C20.347093,6.07267442 22.3324419,6.60651163 23.7443023,7.15116279"></path>
                        <path d="M18.4069767,6.29069767 C18.3863953,6.25825581 22.6125581,3.0344186 22.6125581,3.0344186 L17.7281395,5.21953488 L17.293407,6.22938372 L18.4069651,6.29066279"></path>
                        <path d="M22.8953488,7.10466279 C21.0503488,6.75387209 18.210814,6.10704651 16.4076744,5.95210465 C17.6260465,4.53722093 19.2965116,2.14326744 20.3261628,0.673732558 C19.6542093,2.07640698 18.592907,3.92547674 18.1853488,5.2690814 C19.465814,5.97809302 21.4681395,6.53687209 22.8953488,7.10466279"></path>
                        <path d="M17.7093023,6.55813953 C17.6976744,6.52197674 22.6617442,4.48395349 22.6617442,4.48395349 L17.3287209,5.36161628 L16.6402093,6.2217093 L17.7093023,6.55818605"></path>
                        <path d="M22.3372093,7.15116279 C20.4710465,6.99559302 17.5865116,6.64743023 15.7848837,6.68636047 C16.8235233,5.11543023 18.1943023,2.49984884 19.0398837,0.893918605 C18.5402209,2.39298837 17.7080233,4.38822093 17.4627907,5.79833721 C18.8125581,6.37955814 20.8588372,6.72940698 22.3372093,7.15116279"></path>
                        <path d="M17.1976744,6.58139535 C17.1705814,6.55383721 20.5527907,2.49313953 20.5527907,2.49313953 L16.3015116,5.67197674 L16.1042209,6.7562907 L17.1977093,6.58140698"></path>
                        <path d="M22.3139535,7.41860465 C20.3144186,7.3805814 17.212907,7.20431395 15.3015116,7.37406977 C16.247593,5.58616279 17.4416279,2.63465116 18.1789535,0.822093023 C17.7986279,2.49348837 17.1146744,4.73 16.9959302,6.28627907 C18.4894186,6.82532558 20.6998837,7.06266279 22.3139535,7.41860465"></path>
                        <path d="M16.5232558,7.54651163 C16.4973256,7.51069767 20.5975581,3.63732558 20.5975581,3.63732558 L15.6675581,6.365 L15.3298953,7.53337209 L16.5231512,7.54651163"></path>
                        <path d="M21.4186047,7.54651163 C19.2697674,7.55465116 15.9609302,7.43802326 13.864186,7.67287209 C15.2551163,5.67961628 17.1546512,2.39845349 18.3254651,0.383337209 C17.5688953,2.23403488 16.3677907,4.71473256 15.9172093,6.4322907 C17.4162791,6.98873256 19.7513953,7.19486047 21.4186047,7.54654651"></path>
                        <path d="M15.1511628,7.8372093 C15.1306977,7.79848837 20.355814,3.42895349 20.355814,3.42895349 L14.4731395,6.55709302 L13.8668372,7.85255814 L15.1512558,7.8372093"></path>
                        <path d="M20.6395349,7.6744186 C18.5116279,7.9812907 15.2165116,8.32795349 13.1725581,8.84848837 C14.265186,6.71197674 15.6772093,3.24906977 16.5486047,1.12186047 C16.064093,3.03127907 15.2293023,5.61662791 15.0289535,7.35360465 C16.5940698,7.68747674 18.9372093,7.56356977 20.6395349,7.67446512"></path>
                        <path d="M14.4534884,8.70930233 C14.4233721,8.67813953 18.4636047,3.15476744 18.4636047,3.15476744 L13.459186,7.67976744 L13.191,9.06604651 L14.4535581,8.70930233"></path>
                        <path d="M19.4651163,8.3372093 C17.3225581,8.53673256 14.0117442,8.71736047 11.9410465,9.13446512 C13.1524419,7.05632558 14.7574419,3.66993023 15.7474419,1.58993023 C15.156186,3.47190698 14.177093,6.01109302 13.8793023,7.73504651 C15.4237209,8.14697674 17.7711628,8.14093023 19.4651163,8.33711628"></path>
                        <path d="M13.7325581,9.29069767 C13.7117442,9.25139535 18.8374419,4.87313953 18.8374419,4.87313953 L13.0455814,7.99453488 L12.4601512,9.29837209 L13.732593,9.29023256"></path>
                        <path d="M18.8372093,8.55813953 C16.7011628,9.00865116 13.3868605,9.57960465 11.3463953,10.2348837 C12.3443837,8.05302326 13.5989535,4.54162791 14.3738372,2.38430233 C13.9793488,4.3 13.2645233,6.90627907 13.1487209,8.6322093 C14.7477907,8.85239535 17.1106977,8.5672093 18.8373256,8.55813953"></path>
                        <path d="M12.8837209,9.52325581 C12.8488372,9.49848837 16.1447674,3.46825581 16.1447674,3.46825581 L11.7309302,8.70406977 L11.657907,10.0874419 L12.8837209,9.52323256"></path>
                        <path d="M18.8372093,8.90697674 C16.5454651,9.50312791 12.9739535,10.2851163 10.8122093,11.105814 C11.6423372,8.62523256 12.5922093,4.64848837 13.1801163,2.20511628 C12.9805349,4.36209302 12.5132791,7.3044186 12.5966279,9.2372093 C14.3803488,9.41360465 16.9415116,8.99227907 18.8373256,8.90695349"></path>
                        <path d="M12.244186,10.9186047 C12.2095349,10.8833721 16.3527907,4.8505814 16.3527907,4.8505814 L11.0994186,9.75511628 L10.8777907,11.2859302 L12.244186,10.9186163"></path>
                        <path d="M17.9302791,9.59302326 C15.6774419,10.3054767 12.16,11.2704651 10.047093,12.1977907 C10.7573488,9.70197674 11.5168605,5.72127907 11.9877907,3.27523256 C11.8898837,5.41732558 11.5623023,8.34988372 11.7355116,10.2553488 C13.5186512,10.3336047 16.0476047,9.77940698 17.9302791,9.59303488"></path>
                        <path d="M11.4186047,11.8139535 C11.3787209,11.785814 14.5412791,5.11546512 14.5412791,5.11546512 L10.1012791,10.8844186 L10.1213953,12.4246512 L11.4186047,11.8139419"></path>
                        <path d="M17.0697791,10.5116279 C14.7619767,11.0376047 11.1718605,11.7118605 8.98383721,12.4634884 C9.91762791,10.0337209 11.0352326,6.12767442 11.7262791,3.72790698 C11.4343256,5.85523256 10.8419186,8.75174419 10.841407,10.6653488 C12.6097791,10.8891977 15.1782674,10.5435581 17.0697791,10.5117326"></path>
                        <path d="M10.6744186,12.4534884 C10.6467442,12.4123256 15.7768605,7.21139535 15.7768605,7.21139535 L9.76174419,11.0927907 L9.27188372,12.5651163 L10.6744419,12.4533721"></path>
                        <path d="M16.0465116,11.4186047 C13.7604651,11.7254419 10.2130233,12.0562093 8.03,12.6046512 C9.09133721,10.224186 10.4230233,6.3594186 11.2453488,3.98546512 C10.8294186,6.12162791 10.0727907,9.01093023 9.95453488,10.9583721 C11.6677907,11.3612674 14.1973256,11.2637907 16.0463953,11.4186512"></path>
                        <path d="M9.6627907,11.9302326 C9.62523256,11.8987209 13.1345349,5.37104651 13.1345349,5.37104651 L8.42534884,10.8903488 L8.35197674,12.4532558 L9.6627907,11.9302791"></path>
                        <path d="M16.3255814,10.6395349 C13.8394186,11.6576395 9.95604651,13.0765116 7.62651163,14.3315116 C8.39040698,11.3798837 9.19569767,6.70406977 9.69523256,3.8305814 C9.60569767,6.32011628 9.26910465,9.74488372 9.47747674,11.9369767 C11.4510814,11.875 14.2443372,11.0165116 16.3255814,10.6394186"></path>
                        <path d="M9.18604651,13.9186047 C9.14581395,13.8834884 13.3415116,6.39151163 13.3415116,6.39151163 L7.85593023,12.7605814 L7.70439535,14.539186 L9.18602326,13.9186163"></path>
                        <path d="M15.372093,11.5697674 C12.9359302,12.7147674 9.12302326,14.3343023 6.85372093,15.7038372 C7.48476744,12.7525581 8.08034884,8.10034884 8.45104651,5.24104651 C8.47267442,7.69860465 8.28904651,11.0916279 8.59465116,13.239186 C10.5618605,13.0653256 13.3116279,12.0601163 15.372093,11.5696512"></path>
                        <path d="M8.3372093,15.0581395 C8.29162791,15.0319767 11.3695349,6.95755814 11.3695349,6.95755814 L6.83127907,14.1924419 L6.94639535,15.9461628 L8.3372093,15.0582093"></path>
                        <path d="M14.3023256,12.244186 C11.8718605,13.4084884 8.06674419,15.0582558 5.80476744,16.4454651 C6.41732558,13.4910465 6.98360465,8.83732558 7.33616279,5.97697674 C7.37348837,8.43267442 7.2115,11.8247674 7.53104651,13.9683721 C9.49837209,13.7784186 12.2434884,12.7511628 14.3023256,12.244186"></path>
                        <path d="M7.65116279,16.0232558 C7.61406977,15.9839535 12.3424419,8.87988372 12.3424419,8.87988372 L6.42744186,14.7266279 L6.13916279,16.497907 L7.65113953,16.0232791"></path>
                        <path d="M14.0813953,11.872093 C11.9144186,13.6019767 8.48627907,16.1448837 6.5322093,18.0455814 C6.52872093,15.0633721 6.12947674,10.4669767 5.88840698,7.64069767 C6.43215116,9.98093023 6.97183721,13.2676744 7.73073256,15.237907 C9.64003488,14.557593 12.1468953,12.8790698 14.0813953,11.8722093"></path>
                        <path d="M7.88372093,16.3604651 C7.83174419,16.3534884 8.42719767,7.80081395 8.42719767,7.80081395 L6.16696512,16.1226744 L6.79763953,17.6903488 L7.88368605,16.3605814"></path>
                        <path d="M13.4651163,12.6627907 C11.2918605,14.3816279 7.85453488,16.9068605 5.89325581,18.7975581 C5.90255814,15.814186 5.5222093,11.2138372 5.29298837,8.38523256 C5.8267907,10.7293023 6.35259302,14.0202326 7.10298837,15.9952326 C9.01438372,15.3250349 11.5271744,13.6594186 13.4651163,12.6626744"></path>
                        <path d="M7.3372093,17.8139535 C7.28883721,17.7936047 9.52337209,9.45046512 9.52337209,9.45046512 L5.74046512,17.1417442 L6.03895349,18.8589535 L7.3372093,17.8140349"></path>
                        <path d="M13.2209302,12.8604651 C11.1672093,14.8837209 7.89744186,17.8856977 6.08186047,20.0597674 C5.75995349,16.9997674 4.85581395,12.3286047 4.30465116,9.45581395 C5.11651163,11.7951163 6.02534884,15.1062791 7.01988372,17.0411628 C8.91965116,16.1244884 11.33,14.115 13.220814,12.8603488"></path>
                        <path d="M7.34883721,18.8837209 C7.29511628,18.8755814 7.75804651,9.98860465 7.75804651,9.98860465 L5.57327907,18.6312791 L6.25175581,20.2625581 L7.34881395,18.8837209"></path>
                        <path d="M12.569814,14.3372093 C10.3718605,16.1544186 6.8905814,18.827907 4.91604651,20.8204651 C4.84732558,17.7216279 4.33394186,12.9490698 4.02306977,10.0144186 C4.63555814,12.4412791 5.26469767,15.8517442 6.09097674,17.892093 C8.04609302,17.1678953 10.5958605,15.4010465 12.569814,14.3372093"></path>
                        <path d="M6.69767442,19.8953488 C6.65081395,19.8665116 9.7944186,11.5288372 9.7944186,11.5288372 L5.1505814,18.9417442 L5.27204651,20.7781395 L6.69762791,19.895407"></path>
                        <path d="M12.5348837,14.372093 C10.5896512,16.4297674 7.49244186,19.4833721 5.77302326,21.6932558 C5.46581395,18.5913953 4.6055814,13.8574419 4.08127907,10.9460465 C4.85239535,13.315814 5.71616279,16.6705814 6.66011628,18.6296512 C8.46023256,17.6945465 10.7434884,15.6498837 12.5348837,14.3719767"></path>
                        <path d="M6.81395349,20.3255814 C6.75953488,20.324814 6.44763953,11.4802326 6.44763953,11.4802326 L5.01531395,20.29 L5.83651163,21.8212791 L6.81401163,20.3254651"></path>
                        <path d="M11.5813953,15.0348837 C9.69930233,17.1110465 6.69604651,20.1937209 5.04383721,22.4203488 C4.64577907,19.3176744 3.64744186,14.585814 3.03813953,11.6756977 C3.87797674,14.0415116 4.83930233,17.3927907 5.83965116,19.3461628 C7.60976744,18.3950465 9.83,16.3290698 11.5813953,15.035"></path>
                        <path d="M6.31395349,21.2093023 C6.26406977,21.1945349 7.30172093,12.2237209 7.30172093,12.2237209 L4.66706977,20.7230233 L5.19216279,22.4684884 L6.31401163,21.2094186"></path>
                        <path d="M11.1744186,15.3837209 C9.45372093,17.6319767 6.6905814,20.9906977 5.21081395,23.3662791 C4.57801163,20.3190698 3.22244186,15.7098837 2.39348837,12.8747674 C3.4112093,15.1461628 4.62488372,18.3856977 5.77162791,20.2310465 C7.46604651,19.1126163 9.52488372,16.8415116 11.1744186,15.3837209"></path>
                        <path d="M6.27906977,22.0465116 C6.22755814,22.044186 5.70893023,13.05 5.70893023,13.05 L4.5762093,21.9752326 L5.39195349,23.5475581 L6.27906977,22.0465116"></path>
                        <path d="M11,15.8953488 C9.38476744,18.2495349 6.77825581,21.7765116 5.41162791,24.2461628 C4.62175581,21.2109302 3.02674419,16.640814 2.05046512,13.8294186 C3.18786047,16.0631395 4.57116279,19.2616279 5.81662791,21.0596512 C7.46255814,19.8445349 9.41627907,17.4497674 11.0001163,15.8953488"></path>
                        <path d="M6.8372093,22.8837209 C6.78686047,22.8672093 7.75260465,13.8467442 7.75260465,13.8467442 L5.17713953,22.3411628 L5.72018605,24.1190698 L6.83725581,22.8837209"></path>
                        <path d="M10.6744186,16.7325581 C9.28209302,19.2976744 7.01093023,23.1667442 5.87593023,25.812093 C4.8180814,22.904186 2.82232558,18.5823256 1.5994186,15.922907 C2.93023256,17.9855814 4.5922093,20.9732558 5.99116279,22.5877907 C7.51651163,21.1509302 9.24139535,18.4982558 10.6744186,16.7325581"></path>
                        <path d="M6.52325581,23.627907 C6.47267442,23.6419767 3.99767442,15.057907 3.99767442,15.057907 L4.85119767,24.0911628 L5.98911628,25.365 L6.52319767,23.627907"></path>
                        <path d="M10.6162791,17.7325581 C9.1655814,20.2898837 6.80162791,24.1472093 5.61465116,26.7846512 C4.5504186,23.8855814 2.53348837,19.5767442 1.2977907,16.9253488 C2.64918605,18.9818605 4.33348837,21.9604651 5.75825581,23.57 C7.33674419,22.1374419 9.12988372,19.4927907 10.6161628,17.7325581"></path>
                        <path d="M6.63953488,25.244186 C6.58616279,25.2442093 5.7122907,16.2330233 5.7122907,16.2330233 L4.87765116,25.2451163 L5.77947674,26.7894186 L6.63953488,25.2440698"></path>
                        <path d="M10.7674419,18.5232558 C9.27581395,21.0462791 6.85011628,24.8475581 5.62069767,27.4567442 C4.6037093,24.532907 2.65709302,20.1769767 1.46476744,17.4967442 C2.78244186,19.5847674 4.41802326,22.6027907 5.81639535,24.245814 C7.41767442,22.8505814 9.25302326,20.2483721 10.7674419,18.5232558"></path>
                        <path d="M6.55813953,25.9651163 C6.505,25.9709302 4.88604651,17.115814 4.88604651,17.115814 L4.80430233,26.1789535 L5.83044186,27.605814 L6.55813953,25.9651163"></path>
                        <path d="M10.127907,19.8023256 C8.51895349,22.2186047 5.91674419,25.8466279 4.5655814,28.3672093 C3.68988372,25.3769767 1.95465116,20.892093 0.892209302,18.1330233 C2.1077907,20.3095349 3.59651163,23.4366279 4.91383721,25.174186 C6.57848837,23.8917442 8.53430233,21.4202326 10.1280233,19.8023256"></path>
                        <path d="M5.77906977,26.9534884 C5.72709302,26.9393023 6.52734884,17.9081395 6.52734884,17.9081395 L4.06246512,26.4851163 L4.65795349,28.2332558 L5.77903488,26.9534884"></path>
                        <path d="M10.2209302,20.0232558 C8.84546512,22.64 6.59488372,26.5944186 5.48534884,29.28 C4.33710465,26.4282558 2.1955814,22.2082558 0.883139535,19.6113953 C2.29383721,21.6089535 4.06418605,24.5139535 5.53523256,26.0618605 C7.07127907,24.5636047 8.78651163,21.8451163 10.2209302,20.0232558"></path>
                        <path d="M5.47674419,27.7093023 C5.425,27.7254651 2.70093023,19.2790698 2.70093023,19.2790698 L3.76938372,28.2437209 L4.96519767,29.4636047 L5.47684884,27.7093023"></path>
                        <path d="M9.84883721,20.6976744 C8.88838372,23.5694186 7.26767442,27.9465116 6.57930233,30.8276744 C5.02023256,28.2767442 2.27767442,24.5984884 0.595348837,22.3338372 C2.28430233,23.9882558 4.46372093,26.4554651 6.14453488,27.6548837 C7.43127907,25.847093 8.71081395,22.8011628 9.84883721,20.6976744"></path>
                        <path d="M7.94186047,28.3953488 C7.8905814,28.4136047 4.93616279,20.0815116 4.93616279,20.0815116 L6.24965116,28.9973256 L7.47837209,30.1687209 L7.94177907,28.3953488"></path>
                        <path d="M9.8255814,21.5813953 C8.88584884,24.462907 7.29674419,28.8567442 6.62918605,31.7448837 C5.05174419,29.2105814 2.28255814,25.5613953 0.583837209,23.3145349 C2.28476744,24.9510465 4.48197674,27.3952326 6.17151163,28.5768605 C7.44523256,26.7556977 8.7027907,23.6966279 9.8255814,21.5813953"></path>
                        <path d="M7.96511628,29.8139535 C7.91616279,29.84 4.09790698,22.0388372 4.09790698,22.0388372 L6.35,30.6722093 L7.69395349,31.6431744 L7.96517442,29.8138721"></path>
                        <path d="M9.53488372,22.3023256 C8.93406977,25.2937209 7.86302326,29.8774419 7.53290698,32.8365116 C5.67639535,30.5501163 2.50953488,27.3293023 0.565930233,25.3453488 C2.44151163,26.7239535 4.90255814,28.832093 6.71453488,29.7613953 C7.76863953,27.7733721 8.6644186,24.5603488 9.53488372,22.3023256"></path>
                        <path d="M8.22093023,31.0348837 C8.16813953,31.0453488 6.1355814,22.3163953 6.1355814,22.3163953 L6.47943023,31.3680233 L7.57117442,32.7222093 L8.22089535,31.035"></path>
                        <path d="M9.54659302,23.2325581 C9.22867442,26.2910465 8.59243023,30.9977907 8.54019767,33.9874419 C6.48577907,31.9616279 3.04438372,29.1822093 0.931709302,27.469186 C2.92066279,28.5888256 5.55822093,30.355814 7.4422907,31.0368605 C8.30312791,28.9160465 8.89298837,25.5973256 9.54659302,23.2325581"></path>
                        <path d="M8.3255814,31.6744186 C8.2844186,31.7146512 2.81325581,25.3802326 2.81325581,25.3802326 L6.96697674,33.0034884 L8.48476744,33.5221047 L8.3255814,31.6744302"></path>
                        <path d="M9.66282558,24.3023256 C9.33290698,27.3587209 8.67810465,32.0613953 8.61410465,35.0505814 C6.56759302,33.0132558 3.13689535,30.2144186 1.03084884,28.4895349 C3.0155,29.620407 5.64619767,31.4023256 7.5277093,32.0939535 C8.39694186,29.9782558 8.99980233,26.6631395 9.66282558,24.3023256"></path>
                        <path d="M8.94189535,33.127907 C8.89418605,33.1560465 4.70802326,25.5406977 4.70802326,25.5406977 L7.3677907,34.0573256 L8.75732558,34.9661163 L8.94189535,33.1279767"></path>
                        <path d="M9.90697674,25.5581395 C9.70580233,28.632907 9.24933721,33.372907 9.31069767,36.3644186 C7.18290698,34.4523256 3.64197674,31.8630233 1.4677907,30.2667442 C3.49593023,31.2766279 6.19593023,32.897907 8.10255814,33.4751163 C8.88140698,31.3077907 9.34418605,27.957907 9.90697674,25.5581395"></path>
                        <path d="M9.47674419,34.5232558 C9.43383721,34.560814 4.24569767,27.8905814 4.24569767,27.8905814 L8.06034884,35.7625581 L9.55430233,36.3770349 L9.47674419,34.5231977"></path>
                        <path d="M9.96516279,26.9767442 C9.78245349,30.0534884 9.35454651,34.7977907 9.43388372,37.7890698 C7.29493023,35.8953488 3.73876744,33.3367442 1.55539535,31.759186 C3.58923256,32.7515116 6.29876744,34.3494186 8.20865116,34.9101163 C8.97436047,32.735814 9.41702326,29.3816279 9.96516279,26.9767442"></path>
                        <path d="M9.95348837,35.6511628 C9.90383721,35.6740698 6.28569767,27.6546512 6.28569767,27.6546512 L8.31546512,36.4089535 L9.63488372,37.4602442 L9.95348837,35.6511744"></path>
                        <path d="M10.1046512,27.8953488 C10.2096512,30.9825581 10.226314,35.7624419 10.5832093,38.7290698 C8.28506977,37.132093 4.51925581,35.064186 2.20634884,33.7881395 C4.31634884,34.5019767 7.15297674,35.7276744 9.09983721,36.0286047 C9.65727907,33.7612791 9.78440698,30.3630233 10.1046279,27.8954651"></path>
                        <path d="M10.5930233,35.3372093 C10.562093,35.3877907 3.89348837,30.7502326 3.89348837,30.7502326 L9.57302326,37.0088372 L11.1515116,37.0903488 L10.592907,35.3372093"></path>
                        <path d="M10.3139535,28.2209302 C10.5804884,31.2939535 10.8472209,36.0574419 11.3597558,39.000814 C8.97498837,37.4959302 5.09603488,35.577093 2.71336047,34.3925581 C4.86359302,35.0243372 7.76801163,36.1388372 9.73324419,36.3651163 C10.1728372,34.084186 10.1224302,30.6923256 10.314,28.220814"></path>
                        <path d="M11.3139535,37.0465116 C11.272907,37.0855814 5.73186047,30.6298837 5.73186047,30.6298837 L9.95976744,38.3343023 L11.4876744,38.8912674 L11.313907,37.0465"></path>
                        <path d="M10.8023256,29.3953488 C11.1977442,32.4554651 11.6647907,37.207907 12.2998837,40.1234884 C9.86011628,38.760814 5.91395349,37.0737209 3.48976744,36.0315116 C5.65895349,36.5343605 8.60011628,37.475 10.5677907,37.5831395 C10.9094302,35.2733721 10.7158953,31.8810465 10.8023605,29.3953488"></path>
                        <path d="M12.4302326,38.127907 C12.3987209,38.1780233 5.78197674,33.4298837 5.78197674,33.4298837 L11.3897674,39.780814 L12.9681395,39.8893023 L12.4302326,38.127907"></path>
                        <path d="M11.0116279,30.6975814 C11.6074884,33.7218605 12.3868605,38.4324419 13.2110465,41.2893023 C10.6973256,40.156907 6.66593023,38.8426744 4.18906977,38.0294186 C6.37686047,38.3271512 9.3605814,38.9897558 11.322093,38.9116512 C11.508093,36.5683953 11.090686,33.1926977 11.0115814,30.6975814"></path>
                        <path d="M13.1627907,39.0581395 C13.1212791,39.0962791 7.66395349,32.5396512 7.66395349,32.5396512 L11.7905814,40.3188372 L13.3118605,40.9047326 L13.1628837,39.0582209"></path>
                        <path d="M11.372093,31.5348837 C12.244814,34.4759302 13.457093,39.0768605 14.5398837,41.8202326 C11.9487209,41.025407 7.84011628,40.2519767 5.31511628,39.7710465 C7.50593023,39.7756977 10.5175581,40.0384302 12.4494186,39.6980233 C12.4134884,37.3325581 11.6842442,34.0165116 11.3720233,31.5348837"></path>
                        <path d="M13.4534884,39.0697674 C13.4418605,39.1298837 5.77162791,37.424186 5.77162791,37.424186 L13.0769767,41.0559302 L14.5526744,40.5005698 L13.453593,39.0697558"></path>
                        <path d="M11.872093,32.4534884 C12.733314,35.3988372 13.9275581,40.0055814 14.9997674,42.7544186 C12.4111628,41.9451163 8.30488372,41.1486047 5.78127907,40.6536047 C7.97244186,40.6706977 10.9838372,40.9503605 12.9173256,40.6209302 C12.890814,38.255814 12.1745581,34.9363953 11.8721163,32.4534884"></path>
                        <path d="M14.7093023,39.8837209 C14.6863953,39.9381395 7.3594186,36.3339535 7.3594186,36.3339535 L13.9515116,41.6780233 L15.5309302,41.5300233 L14.7092209,39.8837442"></path>
                        <path d="M11.4883721,32.9651163 C12.9481395,35.6490698 15.0824419,39.8815116 16.7063953,42.3256977 C14.0136047,42.1201977 9.84465116,42.2705814 7.28139535,42.3574419 C9.42,41.8785233 12.4131395,41.4707674 14.2277907,40.7113953 C13.703593,38.4056977 12.3062791,35.3233721 11.4883721,32.9651163"></path>
                        <path d="M15.872093,40.6860465 C15.8577907,40.7451163 8.23476744,38.5767442 8.23476744,38.5767442 L15.4024419,42.6353488 L16.9096512,42.1750581 L15.8720233,40.6861047"></path>
                        <path d="M12.2790698,34.1046512 C13.7545349,36.7781395 15.9137209,40.9956977 17.5517442,43.4280233 C14.8597674,43.2450465 10.695,43.4303488 8.13430233,43.539186 C10.2682558,43.041907 13.2565116,42.6086628 15.065,41.8334884 C14.5267442,39.5305814 13.1111628,36.4577907 12.279186,34.1047674"></path>
                        <path d="M16.8372093,41.3139535 C16.81,41.3652326 9.72034884,37.0565116 9.72034884,37.0565116 L15.9384884,43.0072093 L17.5374419,43.0230233 L16.8372209,41.3138372"></path>
                        <path d="M12.872093,34.7790698 C14.5809302,37.2744186 17.1111628,41.2325581 18.9561628,43.464186 C16.2944186,43.631093 12.2217442,44.3603953 9.7172093,44.8032558 C11.7648837,44.0252558 14.6577907,43.2002326 16.3588372,42.1853488 C15.6065581,39.9404651 13.9177907,37.0360465 12.872093,34.7790698"></path>
                        <path d="M17.3604651,41.9418605 C17.3581395,42.0044186 9.67837209,41.7608372 9.67837209,41.7608372 L17.2784884,44.0067674 L18.6298837,43.1671512 L17.3603488,41.9418023"></path>
                        <path d="M21.8139535,4.72093023 C21.8147093,4.69697674 27.3410465,3.79884884 27.3410465,3.79884884 L21.842093,3.92711628 L20.8827558,4.41989535 L21.8139884,4.72093023"></path>
                        <path d="M24.8488372,5.89534884 C23.2452326,5.41076744 20.8219767,4.59906977 19.1759302,4.24127907 C20.9251163,3.54603488 23.5139535,2.3127907 25.107093,1.55639535 C23.8813953,2.32361628 22.099186,3.3094186 21.149186,4.07860465 C22.0669186,4.70197674 23.7326744,5.33767442 24.8489535,5.89534884"></path>
                        <path d="M21.5697674,4.90697674 C21.5639535,4.88383721 26.9169767,3.43802326 26.9169767,3.43802326 L21.3772093,4.14418605 L20.5417442,4.71763953 L21.5697558,4.90697674"></path>
                        <path d="M25.1046512,6.29069767 C23.2309302,6.11417442 20.3572093,5.7547907 18.5083721,5.73632558 C19.9013953,4.50283721 21.8543023,2.43911628 23.0573256,1.17213953 C22.2302093,2.36283721 20.9584884,3.94295349 20.4102326,5.06911628 C21.6665116,5.57338372 23.6832558,5.91097674 25.1046512,6.29062791"></path>
                        <path d="M19.5813953,5.29069767 C19.5860465,5.26639535 25.1389535,4.66315116 25.1389535,4.66315116 L19.7238372,4.48980233 L18.711093,4.93506977 L19.5814651,5.29069767"></path>
                        <path d="M23.6976744,6.5 C21.9938372,6.1742093 19.4048837,5.60660465 17.6813953,5.40446512 C19.3188372,4.60072093 21.7053488,3.21760465 23.1743023,2.369 C22.0775349,3.19744186 20.4593023,4.27911628 19.6406977,5.08655814 C20.6782326,5.60075581 22.4719767,6.06454651 23.6976744,6.50004651"></path>
                        <path d="M19.1046512,5.23255814 C19.0905814,5.21162791 23.9965116,3.1272093 23.9965116,3.1272093 L18.6384884,4.54151163 L17.9964419,5.19375581 L19.1046512,5.23247674"></path>
                        <path d="M23.5348837,7.11627907 C22.1169767,6.53069767 19.9446512,5.53872093 18.5418605,5.12593023 C19.6280465,4.11539535 21.1587209,2.3444186 22.1016279,1.25813953 C21.4458721,2.34363953 20.4436047,3.7472093 20.0009302,4.82372093 C20.9425116,5.62518605 22.4651163,6.41186047 23.5348837,7.11639535"></path>
                        <path d="M19.3837209,5.59302326 C19.3732558,5.56023256 23.1897674,3.94372093 23.1897674,3.94372093 L19.045,4.51156977 L18.5353837,5.25026744 L19.3837674,5.593"></path>
                        <path d="M16.1976744,41.2325581 C16.2011628,41.2934884 8.31,41.292093 8.31,41.292093 L16.2968605,43.2447674 L17.6072093,42.3861395 L16.1976744,41.2325581"></path>
                        <path d="M17.6162791,41.744186 C17.6069767,41.8019767 9.60523256,39.8809302 9.60523256,39.8809302 L17.2981395,43.652093 L18.8055814,43.1670581 L17.6162791,41.7441512"></path>
                        <path d="M18.9302326,42.2790698 C18.9302209,42.3395349 10.977093,41.8781512 10.977093,41.8781512 L18.9298837,44.2754767 L20.2934884,43.5024651 L18.9303488,42.279093"></path>
                        <path d="M13.8837209,36.6627907 C15.9527907,38.9431395 19.0525581,42.5767442 21.2236047,44.5874419 C18.5519767,44.9910349 14.5289535,46.0709302 12.0540698,46.7296512 C14.0209302,45.7852907 16.8369767,44.7187209 18.4205814,43.5745349 C17.3537326,41.452093 15.2493023,38.7706977 13.8837209,36.662907"></path>
                        <path d="M20.0232558,42.6860465 C20.0087209,42.7417442 12.0733721,40.0845349 12.0733721,40.0845349 L19.5437209,44.5262791 L21.1087209,44.1963256 L20.0232558,42.6859767"></path>
                        <path d="M14.6162791,37.1860465 C16.8712791,39.2426744 20.2723256,42.5440698 22.5983721,44.315 C20.0384884,45.052186 16.2332558,46.640814 13.8917442,47.6123256 C15.7083721,46.4137209 18.339186,44.9868605 19.7616279,43.6327907 C18.4994186,41.6130233 16.1677907,39.1543023 14.6162791,37.1860465"></path>
                        <path d="M20.6744186,43.1744186 C20.6867442,43.2356977 13.130814,44.6577907 13.130814,44.6577907 L21.0798837,45.1995116 L22.2021395,44.0913837 L20.6744651,43.1744651"></path>
                        <path d="M19.1046512,42.6976744 C19.1127907,42.7582558 11.2363953,43.3013837 11.2363953,43.3013837 L19.3546512,44.6963837 L20.5980233,43.7501512 L19.1045349,42.6976395"></path>
                        <path d="M20.5581395,43.1162791 C20.5523256,43.1745349 12.4223256,41.8119767 12.4223256,41.8119767 L20.3837209,45.0398837 L21.8518605,44.4523953 L20.5580233,43.1162326 L20.5581395,43.1162791 Z"></path>
                        <path d="M21.9069767,43.5581395 C21.9116279,43.6183721 13.9388372,43.7073953 13.9388372,43.7073953 L22.0565116,45.5479767 L23.3594186,44.6833953 L21.9069767,43.5581395 L21.9069767,43.5581395 Z"></path>
                        <path d="M16.4418605,38.3023256 C18.6782558,40.4324419 22.0448837,43.8401163 24.3627907,45.6944186 C21.7266279,46.2810465 17.7922093,47.6351163 15.3715116,48.4623256 C17.2637209,47.3853372 19.9943023,46.127907 21.4889535,44.8781395 C20.2647674,42.8362791 17.962907,40.3089535 16.4417442,38.3023256 L16.4418605,38.3023256 Z"></path>
                        <path d="M23.0348837,43.8837209 C23.0244186,43.9403488 14.9047674,41.8394186 14.9047674,41.8394186 L22.6944186,45.7510465 L24.2317442,45.3141628 L23.0348837,43.8836977 L23.0348837,43.8837209 Z"></path>
                        <path d="M17.2209302,38.7674419 C19.6261628,40.6617442 23.2686047,43.7175581 25.7231395,45.322093 C23.2234884,46.2335233 19.5447674,48.0795349 17.2806977,49.2094186 C19.0038372,47.8894186 21.5225581,46.2856977 22.8405814,44.837907 C21.429186,42.9118605 18.9173256,40.622093 17.2209302,38.7674419 Z"></path>
                        <path d="M23.7209302,44.3255814 C23.7377907,44.3859302 16.3030233,46.3246512 16.3030233,46.3246512 L24.2775581,46.3165116 L25.3144651,45.1345349 L23.7208605,44.3260465 L23.7209302,44.3255814 Z"></path>
                    </g>
                    <polygon id="Path" stroke="#000000" stroke-width="0.298846" fill="#FEDF00" fill-rule="nonzero" points="56.0581395 57.5813953 49.9986047 53.3936047 43.9389535 57.5813953 46.2112791 50.8809302 40.9090698 46.6930233 47.7260465 46.6930233 49.9983721 39.9925581 52.2706977 46.6930233 59.0876744 46.6930233 53.7855814 50.8809302 56.057907 57.5813953"></polygon>
                </g>
            </g>
        </g>
    </g>
</svg>