<?xml version="1.0" encoding="UTF-8"?>
<svg width="33px" height="22px" viewBox="0 0 33 22" version="1.1" xmlns="http://www.w3.org/2000/svg" xmlns:xlink="http://www.w3.org/1999/xlink">
    <!-- Generator: Sketch 63.1 (92452) - https://sketch.com -->
    <title>URU</title>
    <desc>Created with Sketch.</desc>
    <g id="Page-1" stroke="none" stroke-width="1" fill="none" fill-rule="evenodd">
        <g id="URU">
            <rect id="Rectangle" stroke="#FAFAFA" fill="#FFFFFF" fill-rule="nonzero" x="0.96969697" y="0.956521739" width="31.030303" height="20.4057971"></rect>
            <g id="Group" transform="translate(0.969697, 3.223833)" fill="#0038A8" fill-rule="nonzero">
                <rect id="Rectangle" x="11.4927048" y="0" width="19.5375982" height="2.26731079"></rect>
                <rect id="Rectangle" x="11.4927048" y="4.53462158" width="19.5375982" height="2.26731079"></rect>
                <rect id="Rectangle" x="0" y="9.06924316" width="31.030303" height="2.26731079"></rect>
                <rect id="Rectangle" x="0" y="13.6038647" width="31.030303" height="2.26731079"></rect>
            </g>
            <g id="Group" transform="translate(0.351964, 0.347182)" stroke="#000000" stroke-width="0.592592593">
                <g id="u">
                    <g id="t" transform="translate(0.000000, 3.824670)">
                        <g id="s" transform="translate(3.371672, 2.452947)">
                            <g id="Group" transform="translate(2.365059, 3.025373) rotate(22.500000) translate(-2.365059, -3.025373) translate(1.395362, 1.112330)">
                                <path d="M0.565218438,0.00346600686 L1.13410733,0.377572287 C0.122749302,1.9986995 1.26052708,2.24810369 0.375588808,2.99631625 C0.754848068,2.12340159 -0.00367045096,2.37280578 -0.00367045096,0.876380661" id="Path" fill="#FCD116" fill-rule="nonzero" stroke-linecap="square"></path>
                                <path d="M0.375588808,0.252870194 C0.122749302,1.87399741 0.944477697,2.37280578 0.375588808,2.99631625" id="Path"></path>
                            </g>
                            <polyline id="Path" fill="#FCD116" fill-rule="nonzero" points="2.99241302 0 3.75093154 0 2.99241302 4.11516908 2.2338945 0 2.99241302 0 2.99241302 4.11516908"></polyline>
                        </g>
                        <g id="s-link" transform="translate(3.915546, 4.095661) rotate(45.000000) translate(-3.915546, -4.095661) translate(1.491304, 1.226096)">
                            <g id="s" transform="translate(-0.014366, 0.000136)">
                                <g id="Group" transform="translate(2.365059, 3.025373) rotate(22.500000) translate(-2.365059, -3.025373) translate(1.395362, 1.112330)">
                                    <path d="M0.565218438,0.00346600686 L1.13410733,0.377572287 C0.122749302,1.9986995 1.26052708,2.24810369 0.375588808,2.99631625 C0.754848068,2.12340159 -0.00367045096,2.37280578 -0.00367045096,0.876380661" id="Path" fill="#FCD116" fill-rule="nonzero" stroke-linecap="square"></path>
                                    <path d="M0.375588808,0.252870194 C0.122749302,1.87399741 0.944477697,2.37280578 0.375588808,2.99631625" id="Path"></path>
                                </g>
                                <polyline id="Path" fill="#FCD116" fill-rule="nonzero" points="2.99241302 -4.77878606e-16 3.75093154 -4.77878606e-16 2.99241302 4.11516908 2.2338945 -4.77878606e-16 2.99241302 -4.77878606e-16 2.99241302 4.11516908"></polyline>
                            </g>
                        </g>
                    </g>
                    <g id="t-link" transform="translate(4.487183, 4.304348) rotate(90.000000) translate(-4.487183, -4.304348) translate(0.123547, 0.000000)">
                        <g id="t" transform="translate(0.000000, -0.000000)">
                            <g id="s" transform="translate(3.371672, 2.452947)">
                                <g id="Group" transform="translate(2.365059, 3.025373) rotate(22.500000) translate(-2.365059, -3.025373) translate(1.395362, 1.112330)">
                                    <path d="M0.565218438,0.00346600686 L1.13410733,0.377572287 C0.122749302,1.9986995 1.26052708,2.24810369 0.375588808,2.99631625 C0.754848068,2.12340159 -0.00367045096,2.37280578 -0.00367045096,0.876380661" id="Path" fill="#FCD116" fill-rule="nonzero" stroke-linecap="square"></path>
                                    <path d="M0.375588808,0.252870194 C0.122749302,1.87399741 0.944477697,2.37280578 0.375588808,2.99631625" id="Path"></path>
                                </g>
                                <polyline id="Path" fill="#FCD116" fill-rule="nonzero" points="2.99241302 -1.22172816e-16 3.75093154 -1.22172816e-16 2.99241302 4.11516908 2.2338945 -1.22172816e-16 2.99241302 -1.22172816e-16 2.99241302 4.11516908"></polyline>
                            </g>
                            <g id="s-link" transform="translate(3.915546, 4.095661) rotate(45.000000) translate(-3.915546, -4.095661) translate(1.491304, 1.226096)">
                                <g id="s" transform="translate(-0.014366, 0.000136)">
                                    <g id="Group" transform="translate(2.365059, 3.025373) rotate(22.500000) translate(-2.365059, -3.025373) translate(1.395362, 1.112330)">
                                        <path d="M0.565218438,0.00346600686 L1.13410733,0.377572287 C0.122749302,1.9986995 1.26052708,2.24810369 0.375588808,2.99631625 C0.754848068,2.12340159 -0.00367045096,2.37280578 -0.00367045096,0.876380661" id="Path" fill="#FCD116" fill-rule="nonzero" stroke-linecap="square"></path>
                                        <path d="M0.375588808,0.252870194 C0.122749302,1.87399741 0.944477697,2.37280578 0.375588808,2.99631625" id="Path"></path>
                                    </g>
                                    <polyline id="Path" fill="#FCD116" fill-rule="nonzero" points="2.99241302 -3.18585738e-16 3.75093154 -3.18585738e-16 2.99241302 4.11516908 2.2338945 -3.18585738e-16 2.99241302 -3.18585738e-16 2.99241302 4.11516908"></polyline>
                                </g>
                            </g>
                        </g>
                    </g>
                </g>
                <g id="u-link" transform="translate(7.879686, 6.337842) rotate(180.000000) translate(-7.879686, -6.337842) translate(3.031201, 0.120451)">
                    <g id="u" transform="translate(0.000000, 0.000000)">
                        <g id="t" transform="translate(-0.000000, 3.824670)">
                            <g id="s" transform="translate(3.371672, 2.452947)">
                                <g id="Group" transform="translate(2.365059, 3.025373) rotate(22.500000) translate(-2.365059, -3.025373) translate(1.395362, 1.112330)">
                                    <path d="M0.565218438,0.00346600686 L1.13410733,0.377572287 C0.122749302,1.9986995 1.26052708,2.24810369 0.375588808,2.99631625 C0.754848068,2.12340159 -0.00367045096,2.37280578 -0.00367045096,0.876380661" id="Path" fill="#FCD116" fill-rule="nonzero" stroke-linecap="square"></path>
                                    <path d="M0.375588808,0.252870194 C0.122749302,1.87399741 0.944477697,2.37280578 0.375588808,2.99631625" id="Path"></path>
                                </g>
                                <polyline id="Path" fill="#FCD116" fill-rule="nonzero" points="2.99241302 1.4547783e-15 3.75093154 1.4547783e-15 2.99241302 4.11516908 2.2338945 1.4547783e-15 2.99241302 1.4547783e-15 2.99241302 4.11516908"></polyline>
                            </g>
                            <g id="s-link" transform="translate(3.915546, 4.095661) rotate(45.000000) translate(-3.915546, -4.095661) translate(1.491304, 1.226096)">
                                <g id="s" transform="translate(-0.014366, 0.000136)">
                                    <g id="Group" transform="translate(2.365059, 3.025373) rotate(22.500000) translate(-2.365059, -3.025373) translate(1.395362, 1.112330)">
                                        <path d="M0.565218438,0.00346600686 L1.13410733,0.377572287 C0.122749302,1.9986995 1.26052708,2.24810369 0.375588808,2.99631625 C0.754848068,2.12340159 -0.00367045096,2.37280578 -0.00367045096,0.876380661" id="Path" fill="#FCD116" fill-rule="nonzero" stroke-linecap="square"></path>
                                        <path d="M0.375588808,0.252870194 C0.122749302,1.87399741 0.944477697,2.37280578 0.375588808,2.99631625" id="Path"></path>
                                    </g>
                                    <polyline id="Path" fill="#FCD116" fill-rule="nonzero" points="2.99241302 3.18585738e-16 3.75093154 3.18585738e-16 2.99241302 4.11516908 2.2338945 3.18585738e-16 2.99241302 3.18585738e-16 2.99241302 4.11516908"></polyline>
                                </g>
                            </g>
                        </g>
                        <g id="t-link" transform="translate(4.487183, 4.304348) rotate(90.000000) translate(-4.487183, -4.304348) translate(0.123547, 0.000000)">
                            <g id="t">
                                <g id="s" transform="translate(3.371672, 2.452947)">
                                    <g id="Group" transform="translate(2.365059, 3.025373) rotate(22.500000) translate(-2.365059, -3.025373) translate(1.395362, 1.112330)">
                                        <path d="M0.565218438,0.00346600686 L1.13410733,0.377572287 C0.122749302,1.9986995 1.26052708,2.24810369 0.375588808,2.99631625 C0.754848068,2.12340159 -0.00367045096,2.37280578 -0.00367045096,0.876380661" id="Path" fill="#FCD116" fill-rule="nonzero" stroke-linecap="square"></path>
                                        <path d="M0.375588808,0.252870194 C0.122749302,1.87399741 0.944477697,2.37280578 0.375588808,2.99631625" id="Path"></path>
                                    </g>
                                    <polyline id="Path" fill="#FCD116" fill-rule="nonzero" points="2.99241302 -3.66518447e-16 3.75093154 -3.66518447e-16 2.99241302 4.11516908 2.2338945 -3.66518447e-16 2.99241302 -3.66518447e-16 2.99241302 4.11516908"></polyline>
                                </g>
                                <g id="s-link" transform="translate(3.915546, 4.095661) rotate(45.000000) translate(-3.915546, -4.095661) translate(1.491304, 1.226096)">
                                    <g id="s" transform="translate(-0.014366, 0.000136)">
                                        <g id="Group" transform="translate(2.365059, 3.025373) rotate(22.500000) translate(-2.365059, -3.025373) translate(1.395362, 1.112330)">
                                            <path d="M0.565218438,0.00346600686 L1.13410733,0.377572287 C0.122749302,1.9986995 1.26052708,2.24810369 0.375588808,2.99631625 C0.754848068,2.12340159 -0.00367045096,2.37280578 -0.00367045096,0.876380661" id="Path" fill="#FCD116" fill-rule="nonzero" stroke-linecap="square"></path>
                                            <path d="M0.375588808,0.252870194 C0.122749302,1.87399741 0.944477697,2.37280578 0.375588808,2.99631625" id="Path"></path>
                                        </g>
                                        <polyline id="Path" fill="#FCD116" fill-rule="nonzero" points="2.99241302 -5.84073852e-16 3.75093154 -5.84073852e-16 2.99241302 4.11516908 2.2338945 -5.84073852e-16 2.99241302 -5.84073852e-16 2.99241302 4.11516908"></polyline>
                                    </g>
                                </g>
                            </g>
                        </g>
                    </g>
                </g>
                <ellipse id="Oval" fill="#FCD116" fill-rule="nonzero" cx="6.3640853" cy="6.27761675" rx="1.39061728" ry="1.37172303"></ellipse>
            </g>
            <g id="Group" transform="translate(4.722352, 5.864116)" fill="#000000" fill-rule="nonzero">
                <g id="right" transform="translate(1.930487, 0.000000)">
                    <path d="M1.11463912,0.221110845 C1.02337986,0.325407142 0.971231714,0.142888623 0.645305788,0.142888623 C0.319379862,0.142888623 0.267231714,0.338444179 0.215083566,0.299333068 C0.162935417,0.260221957 0.488861343,0.0255552899 0.59315764,0.0125182528 C0.697453936,-0.000518784207 0.997305788,0.103777512 1.11463912,0.221110845 M0.736565047,0.338444179 C0.827824306,0.416666401 0.749602084,0.586147882 0.658342825,0.586147882 C0.567083566,0.586147882 0.397602084,0.429703438 0.475824306,0.325407142" id="Shape"></path>
                    <path d="M0.303407407,0.444392915 C0.316444444,0.28794847 0.446814815,0.261874396 0.655407407,0.261874396 C0.864,0.261874396 0.955259259,0.418318841 1.03348148,0.457429952 C0.942222222,0.457429952 0.864,0.327059581 0.655407407,0.327059581 C0.446814815,0.327059581 0.446814815,0.327059581 0.303407407,0.457429952 M0.342518519,0.483504026 C0.394666667,0.405281804 0.459851852,0.561726248 0.603259259,0.561726248 C0.746666667,0.561726248 0.824888889,0.522615137 0.916148148,0.457429952 C1.00740741,0.392244767 0.785777778,0.613874396 0.64237037,0.613874396 C0.498962963,0.613874396 0.303407407,0.535652174 0.342518519,0.483504026" id="Shape"></path>
                    <path d="M0.795259259,0.548689211 C1.01361495,0.461397746 0.879242216,0.336695652 0.795259259,0.311755233 C0.828852442,0.336695652 0.963225172,0.461397746 0.795259259,0.548689211 M0.0651851852,1.29690177 C0.143407407,1.29690177 0.169481481,1.27196135 0.273777778,1.27196135 C0.378074074,1.27196135 0.625777778,1.40913366 0.769185185,1.35925282 C0.469333333,1.4714847 0.586666667,1.39666345 0.0651851852,1.39666345 L0,1.39666345 M0.821333333,1.4714847 C0.769185185,1.38419324 0.782222222,1.40913366 0.677925926,1.27196135 C0.782222222,1.34678261 0.808296296,1.38419324 0.821333333,1.4714847 M0.0651851852,1.5961868 C0.391111111,1.5961868 0.338962963,1.53383575 0.769185185,1.35925282 C0.456296296,1.39666345 0.391111111,1.49642512 0.0651851852,1.49642512 L0,1.49642512 M0.0651851852,1.13478905 C0.156444444,1.13478905 0.182518519,1.072438 0.286814815,1.072438 C0.391111111,1.072438 0.534518519,1.10984863 0.599703704,1.15972947 C0.612740741,1.17219968 0.560592593,1.05996779 0.456296296,1.04749758 C0.352,1.03502738 0.391111111,0.872914654 0.273777778,0.847974235 C0.273777778,0.897855072 0.312888889,0.885384863 0.325925926,0.960206119 C0.325925926,1.02255717 0.208592593,1.02255717 0.182518519,0.960206119 C0.208592593,1.05996779 0.13037037,1.05996779 0.0651851852,1.05996779" id="Shape"></path>
                </g>
                <g id="right-link" transform="translate(1.087210, 0.956522) scale(-1, 1) translate(-1.087210, -0.956522) translate(0.117513, 0.000000)">
                    <g id="right">
                        <path d="M1.11463912,0.221110845 C1.02337986,0.325407142 0.971231714,0.142888623 0.645305788,0.142888623 C0.319379862,0.142888623 0.267231714,0.338444179 0.215083566,0.299333068 C0.162935417,0.260221957 0.488861343,0.0255552899 0.59315764,0.0125182528 C0.697453936,-0.000518784207 0.997305788,0.103777512 1.11463912,0.221110845 M0.736565047,0.338444179 C0.827824306,0.416666401 0.749602084,0.586147882 0.658342825,0.586147882 C0.567083566,0.586147882 0.397602084,0.429703438 0.475824306,0.325407142" id="Shape"></path>
                        <path d="M0.303407407,0.444392915 C0.316444444,0.28794847 0.446814815,0.261874396 0.655407407,0.261874396 C0.864,0.261874396 0.955259259,0.418318841 1.03348148,0.457429952 C0.942222222,0.457429952 0.864,0.327059581 0.655407407,0.327059581 C0.446814815,0.327059581 0.446814815,0.327059581 0.303407407,0.457429952 M0.342518519,0.483504026 C0.394666667,0.405281804 0.459851852,0.561726248 0.603259259,0.561726248 C0.746666667,0.561726248 0.824888889,0.522615137 0.916148148,0.457429952 C1.00740741,0.392244767 0.785777778,0.613874396 0.64237037,0.613874396 C0.498962963,0.613874396 0.303407407,0.535652174 0.342518519,0.483504026" id="Shape"></path>
                        <path d="M0.795259259,0.548689211 C1.01361495,0.461397746 0.879242216,0.336695652 0.795259259,0.311755233 C0.828852442,0.336695652 0.963225172,0.461397746 0.795259259,0.548689211 M0.0651851852,1.29690177 C0.143407407,1.29690177 0.169481481,1.27196135 0.273777778,1.27196135 C0.378074074,1.27196135 0.625777778,1.40913366 0.769185185,1.35925282 C0.469333333,1.4714847 0.586666667,1.39666345 0.0651851852,1.39666345 L0,1.39666345 M0.821333333,1.4714847 C0.769185185,1.38419324 0.782222222,1.40913366 0.677925926,1.27196135 C0.782222222,1.34678261 0.808296296,1.38419324 0.821333333,1.4714847 M0.0651851852,1.5961868 C0.391111111,1.5961868 0.338962963,1.53383575 0.769185185,1.35925282 C0.456296296,1.39666345 0.391111111,1.49642512 0.0651851852,1.49642512 L0,1.49642512 M0.0651851852,1.13478905 C0.156444444,1.13478905 0.182518519,1.072438 0.286814815,1.072438 C0.391111111,1.072438 0.534518519,1.10984863 0.599703704,1.15972947 C0.612740741,1.17219968 0.560592593,1.05996779 0.456296296,1.04749758 C0.352,1.03502738 0.391111111,0.872914654 0.273777778,0.847974235 C0.273777778,0.897855072 0.312888889,0.885384863 0.325925926,0.960206119 C0.325925926,1.02255717 0.208592593,1.02255717 0.182518519,0.960206119 C0.208592593,1.05996779 0.13037037,1.05996779 0.0651851852,1.05996779" id="Shape"></path>
                    </g>
                </g>
                <path d="M1.99369697,1.70841868 C1.93048709,1.70841868 1.76614141,1.82178422 1.99369697,1.82178422 C2.22125253,1.82178422 2.05690685,1.70841868 1.99369697,1.70841868" id="Path"></path>
            </g>
        </g>
    </g>
</svg>