<?xml version="1.0" encoding="UTF-8"?>
<svg width="32px" height="22px" viewBox="0 0 32 22" version="1.1" xmlns="http://www.w3.org/2000/svg" xmlns:xlink="http://www.w3.org/1999/xlink">
    <!-- Generator: Sketch 63.1 (92452) - https://sketch.com -->
    <title>USA</title>
    <desc>Created with Sketch.</desc>
    <g id="Page-1" stroke="none" stroke-width="1" fill="none" fill-rule="evenodd">
        <g id="USA">
            <rect id="Rectangle" fill="#B22234" fill-rule="nonzero" x="0" y="0" width="31.9353535" height="22"></rect>
            <rect id="Rectangle" fill="#FFFFFF" x="12" y="2" width="20" height="2"></rect>
            <rect id="Rectangle" fill="#FFFFFF" x="12" y="6" width="20" height="2"></rect>
            <rect id="Rectangle" fill="#FFFFFF" x="0" y="10" width="32" height="2"></rect>
            <rect id="Rectangle" fill="#FFFFFF" x="0" y="14" width="32" height="2"></rect>
            <rect id="Rectangle" fill="#FFFFFF" x="0" y="18" width="32" height="2"></rect>
            <rect id="Rectangle" fill="#3C3B6E" fill-rule="nonzero" x="0" y="0" width="12.7741414" height="9.05050505"></rect>
            <g id="Group" transform="translate(0.568889, 0.387879)" fill="#FFFFFF" fill-rule="nonzero">
                <g id="s18">
                    <g id="s9">
                        <g id="s5">
                            <g id="s4">
                                <polygon id="s" points="0.495622896 0 0.799608803 0.935572424 0.00376336377 0.357356869 0.987482427 0.357356869 0.191636989 0.935572424"></polygon>
                                <g id="s-link" transform="translate(0.000000, 1.810101)">
                                    <polygon id="s" points="0.495622896 0 0.799608803 0.935572424 0.00376336377 0.357356869 0.987482427 0.357356869 0.191636989 0.935572424"></polygon>
                                </g>
                                <g id="s-link" transform="translate(0.000000, 3.620202)">
                                    <polygon id="s" points="0.495622896 0 0.799608803 0.935572424 0.00376336377 0.357356869 0.987482427 0.357356869 0.191636989 0.935572424"></polygon>
                                </g>
                                <g id="s-link" transform="translate(0.000000, 5.430303)">
                                    <polygon id="s" points="0.495622896 0 0.799608803 0.935572424 0.00376336377 0.357356869 0.987482427 0.357356869 0.191636989 0.935572424"></polygon>
                                </g>
                            </g>
                            <g id="s-link" transform="translate(0.000000, 7.240404)">
                                <polygon id="s" points="0.495622896 0 0.799608803 0.935572424 0.00376336377 0.357356869 0.987482427 0.357356869 0.191636989 0.935572424"></polygon>
                            </g>
                        </g>
                        <g id="s4-link" transform="translate(1.064512, 0.905051)">
                            <g id="s4">
                                <polygon id="s" points="0.495622896 0 0.799608803 0.935572424 0.00376336377 0.357356869 0.987482427 0.357356869 0.191636989 0.935572424"></polygon>
                                <g id="s-link" transform="translate(0.000000, 1.810101)">
                                    <polygon id="s" points="0.495622896 0 0.799608803 0.935572424 0.00376336377 0.357356869 0.987482427 0.357356869 0.191636989 0.935572424"></polygon>
                                </g>
                                <g id="s-link" transform="translate(0.000000, 3.620202)">
                                    <polygon id="s" points="0.495622896 0 0.799608803 0.935572424 0.00376336377 0.357356869 0.987482427 0.357356869 0.191636989 0.935572424"></polygon>
                                </g>
                                <g id="s-link" transform="translate(0.000000, 5.430303)">
                                    <polygon id="s" points="0.495622896 0 0.799608803 0.935572424 0.00376336377 0.357356869 0.987482427 0.357356869 0.191636989 0.935572424"></polygon>
                                </g>
                            </g>
                        </g>
                    </g>
                    <g id="s9-link" transform="translate(2.129024, 0.000000)">
                        <g id="s9">
                            <g id="s5">
                                <g id="s4">
                                    <polygon id="s" points="0.495622896 0 0.799608803 0.935572424 0.00376336377 0.357356869 0.987482427 0.357356869 0.191636989 0.935572424"></polygon>
                                    <g id="s-link" transform="translate(0.000000, 1.810101)">
                                        <polygon id="s" points="0.495622896 0 0.799608803 0.935572424 0.00376336377 0.357356869 0.987482427 0.357356869 0.191636989 0.935572424"></polygon>
                                    </g>
                                    <g id="s-link" transform="translate(0.000000, 3.620202)">
                                        <polygon id="s" points="0.495622896 0 0.799608803 0.935572424 0.00376336377 0.357356869 0.987482427 0.357356869 0.191636989 0.935572424"></polygon>
                                    </g>
                                    <g id="s-link" transform="translate(0.000000, 5.430303)">
                                        <polygon id="s" points="0.495622896 0 0.799608803 0.935572424 0.00376336377 0.357356869 0.987482427 0.357356869 0.191636989 0.935572424"></polygon>
                                    </g>
                                </g>
                                <g id="s-link" transform="translate(0.000000, 7.240404)">
                                    <polygon id="s" points="0.495622896 0 0.799608803 0.935572424 0.00376336377 0.357356869 0.987482427 0.357356869 0.191636989 0.935572424"></polygon>
                                </g>
                            </g>
                            <g id="s4-link" transform="translate(1.064512, 0.905051)">
                                <g id="s4">
                                    <polygon id="s" points="0.495622896 0 0.799608803 0.935572424 0.00376336377 0.357356869 0.987482427 0.357356869 0.191636989 0.935572424"></polygon>
                                    <g id="s-link" transform="translate(0.000000, 1.810101)">
                                        <polygon id="s" points="0.495622896 0 0.799608803 0.935572424 0.00376336377 0.357356869 0.987482427 0.357356869 0.191636989 0.935572424"></polygon>
                                    </g>
                                    <g id="s-link" transform="translate(0.000000, 3.620202)">
                                        <polygon id="s" points="0.495622896 0 0.799608803 0.935572424 0.00376336377 0.357356869 0.987482427 0.357356869 0.191636989 0.935572424"></polygon>
                                    </g>
                                    <g id="s-link" transform="translate(0.000000, 5.430303)">
                                        <polygon id="s" points="0.495622896 0 0.799608803 0.935572424 0.00376336377 0.357356869 0.987482427 0.357356869 0.191636989 0.935572424"></polygon>
                                    </g>
                                </g>
                            </g>
                        </g>
                    </g>
                </g>
                <g id="s18-link" transform="translate(4.258047, 0.000000)">
                    <g id="s18">
                        <g id="s9">
                            <g id="s5">
                                <g id="s4">
                                    <polygon id="s" points="0.495622896 0 0.799608803 0.935572424 0.00376336377 0.357356869 0.987482427 0.357356869 0.191636989 0.935572424"></polygon>
                                    <g id="s-link" transform="translate(0.000000, 1.810101)">
                                        <polygon id="s" points="0.495622896 0 0.799608803 0.935572424 0.00376336377 0.357356869 0.987482427 0.357356869 0.191636989 0.935572424"></polygon>
                                    </g>
                                    <g id="s-link" transform="translate(0.000000, 3.620202)">
                                        <polygon id="s" points="0.495622896 0 0.799608803 0.935572424 0.00376336377 0.357356869 0.987482427 0.357356869 0.191636989 0.935572424"></polygon>
                                    </g>
                                    <g id="s-link" transform="translate(0.000000, 5.430303)">
                                        <polygon id="s" points="0.495622896 0 0.799608803 0.935572424 0.00376336377 0.357356869 0.987482427 0.357356869 0.191636989 0.935572424"></polygon>
                                    </g>
                                </g>
                                <g id="s-link" transform="translate(0.000000, 7.240404)">
                                    <polygon id="s" points="0.495622896 0 0.799608803 0.935572424 0.00376336377 0.357356869 0.987482427 0.357356869 0.191636989 0.935572424"></polygon>
                                </g>
                            </g>
                            <g id="s4-link" transform="translate(1.064512, 0.905051)">
                                <g id="s4">
                                    <polygon id="s" points="0.495622896 0 0.799608803 0.935572424 0.00376336377 0.357356869 0.987482427 0.357356869 0.191636989 0.935572424"></polygon>
                                    <g id="s-link" transform="translate(0.000000, 1.810101)">
                                        <polygon id="s" points="0.495622896 0 0.799608803 0.935572424 0.00376336377 0.357356869 0.987482427 0.357356869 0.191636989 0.935572424"></polygon>
                                    </g>
                                    <g id="s-link" transform="translate(0.000000, 3.620202)">
                                        <polygon id="s" points="0.495622896 0 0.799608803 0.935572424 0.00376336377 0.357356869 0.987482427 0.357356869 0.191636989 0.935572424"></polygon>
                                    </g>
                                    <g id="s-link" transform="translate(0.000000, 5.430303)">
                                        <polygon id="s" points="0.495622896 0 0.799608803 0.935572424 0.00376336377 0.357356869 0.987482427 0.357356869 0.191636989 0.935572424"></polygon>
                                    </g>
                                </g>
                            </g>
                        </g>
                        <g id="s9-link" transform="translate(2.129024, 0.000000)">
                            <g id="s9">
                                <g id="s5">
                                    <g id="s4">
                                        <polygon id="s" points="0.495622896 0 0.799608803 0.935572424 0.00376336377 0.357356869 0.987482427 0.357356869 0.191636989 0.935572424"></polygon>
                                        <g id="s-link" transform="translate(0.000000, 1.810101)">
                                            <polygon id="s" points="0.495622896 0 0.799608803 0.935572424 0.00376336377 0.357356869 0.987482427 0.357356869 0.191636989 0.935572424"></polygon>
                                        </g>
                                        <g id="s-link" transform="translate(0.000000, 3.620202)">
                                            <polygon id="s" points="0.495622896 0 0.799608803 0.935572424 0.00376336377 0.357356869 0.987482427 0.357356869 0.191636989 0.935572424"></polygon>
                                        </g>
                                        <g id="s-link" transform="translate(0.000000, 5.430303)">
                                            <polygon id="s" points="0.495622896 0 0.799608803 0.935572424 0.00376336377 0.357356869 0.987482427 0.357356869 0.191636989 0.935572424"></polygon>
                                        </g>
                                    </g>
                                    <g id="s-link" transform="translate(0.000000, 7.240404)">
                                        <polygon id="s" points="0.495622896 0 0.799608803 0.935572424 0.00376336377 0.357356869 0.987482427 0.357356869 0.191636989 0.935572424"></polygon>
                                    </g>
                                </g>
                                <g id="s4-link" transform="translate(1.064512, 0.905051)">
                                    <g id="s4">
                                        <polygon id="s" points="0.495622896 0 0.799608803 0.935572424 0.00376336377 0.357356869 0.987482427 0.357356869 0.191636989 0.935572424"></polygon>
                                        <g id="s-link" transform="translate(0.000000, 1.810101)">
                                            <polygon id="s" points="0.495622896 0 0.799608803 0.935572424 0.00376336377 0.357356869 0.987482427 0.357356869 0.191636989 0.935572424"></polygon>
                                        </g>
                                        <g id="s-link" transform="translate(0.000000, 3.620202)">
                                            <polygon id="s" points="0.495622896 0 0.799608803 0.935572424 0.00376336377 0.357356869 0.987482427 0.357356869 0.191636989 0.935572424"></polygon>
                                        </g>
                                        <g id="s-link" transform="translate(0.000000, 5.430303)">
                                            <polygon id="s" points="0.495622896 0 0.799608803 0.935572424 0.00376336377 0.357356869 0.987482427 0.357356869 0.191636989 0.935572424"></polygon>
                                        </g>
                                    </g>
                                </g>
                            </g>
                        </g>
                    </g>
                </g>
                <g id="s9-link" transform="translate(8.516094, 0.000000)">
                    <g id="s9">
                        <g id="s5">
                            <g id="s4">
                                <polygon id="s" points="0.495622896 0 0.799608803 0.935572424 0.00376336377 0.357356869 0.987482427 0.357356869 0.191636989 0.935572424"></polygon>
                                <g id="s-link" transform="translate(0.000000, 1.810101)">
                                    <polygon id="s" points="0.495622896 0 0.799608803 0.935572424 0.00376336377 0.357356869 0.987482427 0.357356869 0.191636989 0.935572424"></polygon>
                                </g>
                                <g id="s-link" transform="translate(0.000000, 3.620202)">
                                    <polygon id="s" points="0.495622896 0 0.799608803 0.935572424 0.00376336377 0.357356869 0.987482427 0.357356869 0.191636989 0.935572424"></polygon>
                                </g>
                                <g id="s-link" transform="translate(0.000000, 5.430303)">
                                    <polygon id="s" points="0.495622896 0 0.799608803 0.935572424 0.00376336377 0.357356869 0.987482427 0.357356869 0.191636989 0.935572424"></polygon>
                                </g>
                            </g>
                            <g id="s-link" transform="translate(0.000000, 7.240404)">
                                <polygon id="s" points="0.495622896 0 0.799608803 0.935572424 0.00376336377 0.357356869 0.987482427 0.357356869 0.191636989 0.935572424"></polygon>
                            </g>
                        </g>
                        <g id="s4-link" transform="translate(1.064512, 0.905051)">
                            <g id="s4">
                                <polygon id="s" points="0.495622896 0 0.799608803 0.935572424 0.00376336377 0.357356869 0.987482427 0.357356869 0.191636989 0.935572424"></polygon>
                                <g id="s-link" transform="translate(0.000000, 1.810101)">
                                    <polygon id="s" points="0.495622896 0 0.799608803 0.935572424 0.00376336377 0.357356869 0.987482427 0.357356869 0.191636989 0.935572424"></polygon>
                                </g>
                                <g id="s-link" transform="translate(0.000000, 3.620202)">
                                    <polygon id="s" points="0.495622896 0 0.799608803 0.935572424 0.00376336377 0.357356869 0.987482427 0.357356869 0.191636989 0.935572424"></polygon>
                                </g>
                                <g id="s-link" transform="translate(0.000000, 5.430303)">
                                    <polygon id="s" points="0.495622896 0 0.799608803 0.935572424 0.00376336377 0.357356869 0.987482427 0.357356869 0.191636989 0.935572424"></polygon>
                                </g>
                            </g>
                        </g>
                    </g>
                </g>
                <g id="s5-link" transform="translate(10.645118, 0.000000)">
                    <g id="s5">
                        <g id="s4">
                            <polygon id="s" points="0.495622896 0 0.799608803 0.935572424 0.00376336377 0.357356869 0.987482427 0.357356869 0.191636989 0.935572424"></polygon>
                            <g id="s-link" transform="translate(0.000000, 1.810101)">
                                <polygon id="s" points="0.495622896 0 0.799608803 0.935572424 0.00376336377 0.357356869 0.987482427 0.357356869 0.191636989 0.935572424"></polygon>
                            </g>
                            <g id="s-link" transform="translate(0.000000, 3.620202)">
                                <polygon id="s" points="0.495622896 0 0.799608803 0.935572424 0.00376336377 0.357356869 0.987482427 0.357356869 0.191636989 0.935572424"></polygon>
                            </g>
                            <g id="s-link" transform="translate(0.000000, 5.430303)">
                                <polygon id="s" points="0.495622896 0 0.799608803 0.935572424 0.00376336377 0.357356869 0.987482427 0.357356869 0.191636989 0.935572424"></polygon>
                            </g>
                        </g>
                        <g id="s-link" transform="translate(0.000000, 7.240404)">
                            <polygon id="s" points="0.495622896 0 0.799608803 0.935572424 0.00376336377 0.357356869 0.987482427 0.357356869 0.191636989 0.935572424"></polygon>
                        </g>
                    </g>
                </g>
            </g>
        </g>
    </g>
</svg>